0
SECTION
2
HEADER
9
$INSUNITS
70
4
9
$MEASUREMENT
70
1
9
$EXTMIN
10
-83
20
-29
9
$EXTMAX
10
74
20
86
0
ENDSEC
0
SECTION
2
TABLES
0
ENDSEC
0
SECTION
2
ENTITIES
0
POLYLINE
8
0
66
1
70
1
0
VERTEX
8
0
10
74
20
53.003
30
0
0
VERTEX
8
0
10
73
20
53.003
30
0
0
VERTEX
8
0
10
70.998
20
53.003
30
0
0
VERTEX
8
0
10
70.998
20
33
30
0
0
VERTEX
8
0
10
54
20
33
30
0
0
VERTEX
8
0
10
54
20
30
30
0
0
VERTEX
8
0
10
53
20
30
30
0
0
VERTEX
8
0
10
44
20
30
30
0
0
VERTEX
8
0
10
44
20
33
30
0
0
VERTEX
8
0
10
43
20
33
30
0
0
VERTEX
8
0
10
27.003
20
33
30
0
0
VERTEX
8
0
10
24
20
33
30
0
0
VERTEX
8
0
10
24
20
52.998
30
0
0
VERTEX
8
0
10
27.003
20
52.998
30
0
0
VERTEX
8
0
10
27.003
20
63.003
30
0
0
VERTEX
8
0
10
24
20
63.003
30
0
0
VERTEX
8
0
10
24
20
83
30
0
0
VERTEX
8
0
10
27.003
20
83
30
0
0
VERTEX
8
0
10
43
20
83
30
0
0
VERTEX
8
0
10
44
20
83
30
0
0
VERTEX
8
0
10
44
20
86
30
0
0
VERTEX
8
0
10
53
20
86
30
0
0
VERTEX
8
0
10
54
20
86
30
0
0
VERTEX
8
0
10
54
20
83
30
0
0
VERTEX
8
0
10
70.998
20
83
30
0
0
VERTEX
8
0
10
70.998
20
62.998
30
0
0
VERTEX
8
0
10
73
20
62.998
30
0
0
VERTEX
8
0
10
74
20
62.998
30
0
0
VERTEX
8
0
10
74
20
53.003
30
0
0
SEQEND
8
0
0
POLYLINE
8
0
66
1
70
1
0
VERTEX
8
0
10
53
20
-29
30
0
0
VERTEX
8
0
10
43
20
-29
30
0
0
VERTEX
8
0
10
43
20
-26
30
0
0
VERTEX
8
0
10
26.003
20
-26
30
0
0
VERTEX
8
0
10
23
20
-26
30
0
0
VERTEX
8
0
10
23
20
-6.003
30
0
0
VERTEX
8
0
10
26.003
20
-6.003
30
0
0
VERTEX
8
0
10
26.003
20
4.003
30
0
0
VERTEX
8
0
10
23
20
4.003
30
0
0
VERTEX
8
0
10
23
20
24
30
0
0
VERTEX
8
0
10
24
20
24
30
0
0
VERTEX
8
0
10
26.003
20
24
30
0
0
VERTEX
8
0
10
43
20
24
30
0
0
VERTEX
8
0
10
43
20
27
30
0
0
VERTEX
8
0
10
44
20
27
30
0
0
VERTEX
8
0
10
53
20
27
30
0
0
VERTEX
8
0
10
53
20
24
30
0
0
VERTEX
8
0
10
54
20
24
30
0
0
VERTEX
8
0
10
69.998
20
24
30
0
0
VERTEX
8
0
10
69.998
20
3.998
30
0
0
VERTEX
8
0
10
73
20
3.998
30
0
0
VERTEX
8
0
10
73
20
-5.998
30
0
0
VERTEX
8
0
10
69.998
20
-5.998
30
0
0
VERTEX
8
0
10
69.998
20
-26
30
0
0
VERTEX
8
0
10
53
20
-26
30
0
0
VERTEX
8
0
10
53
20
-29
30
0
0
SEQEND
8
0
0
POLYLINE
8
0
66
1
70
1
0
VERTEX
8
0
10
-31
20
24
30
0
0
VERTEX
8
0
10
-30
20
24
30
0
0
VERTEX
8
0
10
-27.998
20
24
30
0
0
VERTEX
8
0
10
-11
20
24
30
0
0
VERTEX
8
0
10
-11
20
27
30
0
0
VERTEX
8
0
10
-1
20
27
30
0
0
VERTEX
8
0
10
-1
20
24
30
0
0
VERTEX
8
0
10
15.998
20
24
30
0
0
VERTEX
8
0
10
15.998
20
3.998
30
0
0
VERTEX
8
0
10
19
20
3.998
30
0
0
VERTEX
8
0
10
19
20
-5.998
30
0
0
VERTEX
8
0
10
15.998
20
-5.998
30
0
0
VERTEX
8
0
10
15.998
20
-26
30
0
0
VERTEX
8
0
10
-1
20
-26
30
0
0
VERTEX
8
0
10
-1
20
-29
30
0
0
VERTEX
8
0
10
-11
20
-29
30
0
0
VERTEX
8
0
10
-11
20
-26
30
0
0
VERTEX
8
0
10
-27.998
20
-26
30
0
0
VERTEX
8
0
10
-30
20
-26
30
0
0
VERTEX
8
0
10
-31
20
-26
30
0
0
VERTEX
8
0
10
-31
20
-6.003
30
0
0
VERTEX
8
0
10
-30
20
-6.003
30
0
0
VERTEX
8
0
10
-27.998
20
-6.003
30
0
0
VERTEX
8
0
10
-27.998
20
4.003
30
0
0
VERTEX
8
0
10
-30
20
4.003
30
0
0
VERTEX
8
0
10
-31
20
4.003
30
0
0
VERTEX
8
0
10
-31
20
24
30
0
0
SEQEND
8
0
0
POLYLINE
8
0
66
1
70
1
0
VERTEX
8
0
10
-30
20
80
30
0
0
VERTEX
8
0
10
-26.998
20
80
30
0
0
VERTEX
8
0
10
-10.003
20
80
30
0
0
VERTEX
8
0
10
-10.003
20
76.998
30
0
0
VERTEX
8
0
10
0.003
20
76.998
30
0
0
VERTEX
8
0
10
0.003
20
80
30
0
0
VERTEX
8
0
10
16.998
20
80
30
0
0
VERTEX
8
0
10
20
20
80
30
0
0
VERTEX
8
0
10
20
20
60.003
30
0
0
VERTEX
8
0
10
16.998
20
60.003
30
0
0
VERTEX
8
0
10
16.998
20
49.998
30
0
0
VERTEX
8
0
10
20
20
49.998
30
0
0
VERTEX
8
0
10
20
20
30
30
0
0
VERTEX
8
0
10
19
20
30
30
0
0
VERTEX
8
0
10
16.998
20
30
30
0
0
VERTEX
8
0
10
0.003
20
30
30
0
0
VERTEX
8
0
10
0.003
20
33.003
30
0
0
VERTEX
8
0
10
-10.003
20
33.003
30
0
0
VERTEX
8
0
10
-10.003
20
30
30
0
0
VERTEX
8
0
10
-11
20
30
30
0
0
VERTEX
8
0
10
-26.998
20
30
30
0
0
VERTEX
8
0
10
-30
20
30
30
0
0
VERTEX
8
0
10
-30
20
49.998
30
0
0
VERTEX
8
0
10
-26.998
20
49.998
30
0
0
VERTEX
8
0
10
-26.998
20
60.003
30
0
0
VERTEX
8
0
10
-30
20
60.003
30
0
0
VERTEX
8
0
10
-30
20
80
30
0
0
SEQEND
8
0
0
POLYLINE
8
0
66
1
70
1
0
VERTEX
8
0
10
-53
20
-29
30
0
0
VERTEX
8
0
10
-63
20
-29
30
0
0
VERTEX
8
0
10
-63
20
-26
30
0
0
VERTEX
8
0
10
-79.998
20
-26
30
0
0
VERTEX
8
0
10
-83
20
-26
30
0
0
VERTEX
8
0
10
-83
20
-6.003
30
0
0
VERTEX
8
0
10
-79.998
20
-6.003
30
0
0
VERTEX
8
0
10
-79.998
20
4.003
30
0
0
VERTEX
8
0
10
-83
20
4.003
30
0
0
VERTEX
8
0
10
-83
20
24
30
0
0
VERTEX
8
0
10
-79.998
20
24
30
0
0
VERTEX
8
0
10
-63
20
24
30
0
0
VERTEX
8
0
10
-63
20
27
30
0
0
VERTEX
8
0
10
-53
20
27
30
0
0
VERTEX
8
0
10
-53
20
24
30
0
0
VERTEX
8
0
10
-36.003
20
24
30
0
0
VERTEX
8
0
10
-36.003
20
3.998
30
0
0
VERTEX
8
0
10
-33
20
3.998
30
0
0
VERTEX
8
0
10
-33
20
-5.998
30
0
0
VERTEX
8
0
10
-36.003
20
-5.998
30
0
0
VERTEX
8
0
10
-36.003
20
-26
30
0
0
VERTEX
8
0
10
-53
20
-26
30
0
0
VERTEX
8
0
10
-53
20
-29
30
0
0
SEQEND
8
0
0
POLYLINE
8
0
66
1
70
1
0
VERTEX
8
0
10
-83
20
80
30
0
0
VERTEX
8
0
10
-79.998
20
80
30
0
0
VERTEX
8
0
10
-63.003
20
80
30
0
0
VERTEX
8
0
10
-63.003
20
76.998
30
0
0
VERTEX
8
0
10
-52.998
20
76.998
30
0
0
VERTEX
8
0
10
-52.998
20
80
30
0
0
VERTEX
8
0
10
-36.003
20
80
30
0
0
VERTEX
8
0
10
-33
20
80
30
0
0
VERTEX
8
0
10
-33
20
60.003
30
0
0
VERTEX
8
0
10
-36.003
20
60.003
30
0
0
VERTEX
8
0
10
-36.003
20
49.998
30
0
0
VERTEX
8
0
10
-33
20
49.998
30
0
0
VERTEX
8
0
10
-33
20
30
30
0
0
VERTEX
8
0
10
-36.003
20
30
30
0
0
VERTEX
8
0
10
-52.998
20
30
30
0
0
VERTEX
8
0
10
-52.998
20
33.003
30
0
0
VERTEX
8
0
10
-63.003
20
33.003
30
0
0
VERTEX
8
0
10
-63.003
20
30
30
0
0
VERTEX
8
0
10
-79.998
20
30
30
0
0
VERTEX
8
0
10
-83
20
30
30
0
0
VERTEX
8
0
10
-83
20
49.998
30
0
0
VERTEX
8
0
10
-79.998
20
49.998
30
0
0
VERTEX
8
0
10
-79.998
20
60.003
30
0
0
VERTEX
8
0
10
-83
20
60.003
30
0
0
VERTEX
8
0
10
-83
20
80
30
0
0
SEQEND
8
0
0
ENDSEC
0
EOF
