<?xml version="1.0" standalone="no"?>
<!DOCTYPE svg PUBLIC "-//W3C//DTD SVG 1.1//EN"
  "http://www.w3.org/Graphics/SVG/1.1/DTD/svg11.dtd">
<svg width="159mm" height="116.99999999999997mm" viewBox="-84 -86.99999999999999 159 116.99999999999997" xmlns="http://www.w3.org/2000/svg" version="1.1">
	<title>svgOutput</title>
	<desc>made with tinkercad</desc>
<path d="M 74 -53.00299835205077 L 73 -53.00299835205077 L 70.99800109863281 -53.00299835205077 L 70.99800109863281 -32.99999999999999 L 54 -32.99999999999999 L 54 -29.999999999999993 L 53 -29.999999999999993 L 44 -29.999999999999993 L 44 -32.99999999999999 L 43 -32.99999999999999 L 27.003000259399414 -32.99999999999999 L 24 -32.99999999999999 L 24 -52.9980010986328 L 27.003000259399414 -52.9980010986328 L 27.003000259399414 -63.00299835205077 L 24 -63.00299835205077 L 24 -82.99999999999999 L 27.003000259399414 -82.99999999999999 L 43 -82.99999999999999 L 44 -82.99999999999999 L 44 -85.99999999999999 L 53 -85.99999999999999 L 54 -85.99999999999999 L 54 -82.99999999999999 L 70.99800109863281 -82.99999999999999 L 70.99800109863281 -62.9980010986328 L 73 -62.9980010986328 L 74 -62.9980010986328 L 74 -53.00299835205077 M 53 28.999999999999993 L 43 28.999999999999993 L 43 25.999999999999993 L 26.003000259399414 25.999999999999993 L 23 25.999999999999993 L 23 6.002999782562254 L 26.003000259399414 6.002999782562254 L 26.003000259399414 -4.002999782562255 L 23 -4.002999782562255 L 23 -23.999999999999993 L 24 -23.999999999999993 L 26.003000259399414 -23.999999999999993 L 43 -23.999999999999993 L 43 -26.999999999999993 L 44 -26.999999999999993 L 53 -26.999999999999993 L 53 -23.999999999999993 L 54 -23.999999999999993 L 69.99800109863281 -23.999999999999993 L 69.99800109863281 -3.997999906539916 L 73 -3.997999906539916 L 73 5.998000144958495 L 69.99800109863281 5.998000144958495 L 69.99800109863281 25.999999999999993 L 53 25.999999999999993 L 53 28.999999999999993 M -31 -23.999999999999993 L -30 -23.999999999999993 L -27.99799919128418 -23.999999999999993 L -11 -23.999999999999993 L -11 -26.999999999999993 L -1 -26.999999999999993 L -1 -23.999999999999993 L 15.998000144958496 -23.999999999999993 L 15.998000144958496 -3.997999906539916 L 19 -3.997999906539916 L 19 5.998000144958495 L 15.998000144958496 5.998000144958495 L 15.998000144958496 25.999999999999993 L -1 25.999999999999993 L -1 28.999999999999993 L -11 28.999999999999993 L -11 25.999999999999993 L -27.99799919128418 25.999999999999993 L -30 25.999999999999993 L -31 25.999999999999993 L -31 6.002999782562254 L -30 6.002999782562254 L -27.99799919128418 6.002999782562254 L -27.99799919128418 -4.002999782562255 L -30 -4.002999782562255 L -31 -4.002999782562255 L -31 -23.999999999999993 M -30 -79.99999999999999 L -26.99799919128418 -79.99999999999999 L -10.003000259399414 -79.99999999999999 L -10.003000259399414 -76.9980010986328 L 0.003000000026077032 -76.9980010986328 L 0.003000000026077032 -79.99999999999999 L 16.99799919128418 -79.99999999999999 L 20 -79.99999999999999 L 20 -60.00299835205077 L 16.99799919128418 -60.00299835205077 L 16.99799919128418 -49.9980010986328 L 20 -49.9980010986328 L 20 -29.999999999999993 L 19 -29.999999999999993 L 16.99799919128418 -29.999999999999993 L 0.003000000026077032 -29.999999999999993 L 0.003000000026077032 -33.002998352050774 L -10.003000259399414 -33.002998352050774 L -10.003000259399414 -29.999999999999993 L -11 -29.999999999999993 L -26.99799919128418 -29.999999999999993 L -30 -29.999999999999993 L -30 -49.9980010986328 L -26.99799919128418 -49.9980010986328 L -26.99799919128418 -60.00299835205077 L -30 -60.00299835205077 L -30 -79.99999999999999 M -53 28.999999999999993 L -63 28.999999999999993 L -63 25.999999999999993 L -79.99800109863281 25.999999999999993 L -83 25.999999999999993 L -83 6.002999782562254 L -79.99800109863281 6.002999782562254 L -79.99800109863281 -4.002999782562255 L -83 -4.002999782562255 L -83 -23.999999999999993 L -79.99800109863281 -23.999999999999993 L -63 -23.999999999999993 L -63 -26.999999999999993 L -53 -26.999999999999993 L -53 -23.999999999999993 L -36.00299835205078 -23.999999999999993 L -36.00299835205078 -3.997999906539916 L -33 -3.997999906539916 L -33 5.998000144958495 L -36.00299835205078 5.998000144958495 L -36.00299835205078 25.999999999999993 L -53 25.999999999999993 L -53 28.999999999999993 M -83 -79.99999999999999 L -79.99800109863281 -79.99999999999999 L -63.00299835205078 -79.99999999999999 L -63.00299835205078 -76.9980010986328 L -52.99800109863281 -76.9980010986328 L -52.99800109863281 -79.99999999999999 L -36.00299835205078 -79.99999999999999 L -33 -79.99999999999999 L -33 -60.00299835205077 L -36.00299835205078 -60.00299835205077 L -36.00299835205078 -49.9980010986328 L -33 -49.9980010986328 L -33 -29.999999999999993 L -36.00299835205078 -29.999999999999993 L -52.99800109863281 -29.999999999999993 L -52.99800109863281 -33.002998352050774 L -63.00299835205078 -33.002998352050774 L -63.00299835205078 -29.999999999999993 L -79.99800109863281 -29.999999999999993 L -83 -29.999999999999993 L -83 -49.9980010986328 L -79.99800109863281 -49.9980010986328 L -79.99800109863281 -60.00299835205077 L -83 -60.00299835205077 L -83 -79.99999999999999 z" fill="none" stroke="rgb(255,0,0)" stroke-width="0.001mm" />
</svg>