  0
SECTION
  2
HEADER
  9
$ACADVER
  1
AC1032
  9
$ACADMAINTVER
 90
      329
  9
$DWGCODEPAGE
  3
ANSI_1252
  9
$REQUIREDVERSIONS
160
                 0
  9
$INSBASE
 10
0.0
 20
0.0
 30
0.0
  9
$EXTMIN
 10
1.000000000000000E+20
 20
1.000000000000000E+20
 30
1.000000000000000E+20
  9
$EXTMAX
 10
-1.000000000000000E+20
 20
-1.000000000000000E+20
 30
-1.000000000000000E+20
  9
$LIMMIN
 10
0.0
 20
0.0
  9
$LIMMAX
 10
12.0
 20
9.0
  9
$ORTHOMODE
 70
     0
  9
$REGENMODE
 70
     1
  9
$FILLMODE
 70
     1
  9
$QTEXTMODE
 70
     0
  9
$MIRRTEXT
 70
     0
  9
$LTSCALE
 40
1.0
  9
$ATTMODE
 70
     1
  9
$TEXTSIZE
 40
0.2
  9
$TRACEWID
 40
0.05
  9
$TEXTSTYLE
  7
Standard
  9
$CLAYER
  8
0
  9
$CELTYPE
  6
ByLayer
  9
$CECOLOR
 62
   256
  9
$CELTSCALE
 40
1.0
  9
$DISPSILH
 70
     0
  9
$DIMSCALE
 40
1.0
  9
$DIMASZ
 40
0.18
  9
$DIMEXO
 40
0.0625
  9
$DIMDLI
 40
0.38
  9
$DIMRND
 40
0.0
  9
$DIMDLE
 40
0.0
  9
$DIMEXE
 40
0.18
  9
$DIMTP
 40
0.0
  9
$DIMTM
 40
0.0
  9
$DIMTXT
 40
0.18
  9
$DIMCEN
 40
0.09
  9
$DIMTSZ
 40
0.0
  9
$DIMTOL
 70
     0
  9
$DIMLIM
 70
     0
  9
$DIMTIH
 70
     1
  9
$DIMTOH
 70
     1
  9
$DIMSE1
 70
     0
  9
$DIMSE2
 70
     0
  9
$DIMTAD
 70
     0
  9
$DIMZIN
 70
     0
  9
$DIMBLK
  1

  9
$DIMASO
 70
     1
  9
$DIMSHO
 70
     1
  9
$DIMPOST
  1

  9
$DIMAPOST
  1

  9
$DIMALT
 70
     0
  9
$DIMALTD
 70
     2
  9
$DIMALTF
 40
25.4
  9
$DIMLFAC
 40
1.0
  9
$DIMTOFL
 70
     0
  9
$DIMTVP
 40
0.0
  9
$DIMTIX
 70
     0
  9
$DIMSOXD
 70
     0
  9
$DIMSAH
 70
     0
  9
$DIMBLK1
  1

  9
$DIMBLK2
  1

  9
$DIMSTYLE
  2
Standard
  9
$DIMCLRD
 70
     0
  9
$DIMCLRE
 70
     0
  9
$DIMCLRT
 70
     0
  9
$DIMTFAC
 40
1.0
  9
$DIMGAP
 40
0.09
  9
$DIMJUST
 70
     0
  9
$DIMSD1
 70
     0
  9
$DIMSD2
 70
     0
  9
$DIMTOLJ
 70
     1
  9
$DIMTZIN
 70
     0
  9
$DIMALTZ
 70
     0
  9
$DIMALTTZ
 70
     0
  9
$DIMUPT
 70
     0
  9
$DIMDEC
 70
     4
  9
$DIMTDEC
 70
     4
  9
$DIMALTU
 70
     2
  9
$DIMALTTD
 70
     2
  9
$DIMTXSTY
  7
Standard
  9
$DIMAUNIT
 70
     0
  9
$DIMADEC
 70
     0
  9
$DIMALTRND
 40
0.0
  9
$DIMAZIN
 70
     0
  9
$DIMDSEP
 70
    46
  9
$DIMATFIT
 70
     3
  9
$DIMFRAC
 70
     0
  9
$DIMLDRBLK
  1

  9
$DIMLUNIT
 70
     2
  9
$DIMLWD
 70
    -2
  9
$DIMLWE
 70
    -2
  9
$DIMTMOVE
 70
     0
  9
$DIMFXL
 40
1.0
  9
$DIMFXLON
 70
     0
  9
$DIMJOGANG
 40
0.7853981633974483
  9
$DIMTFILL
 70
     0
  9
$DIMTFILLCLR
 70
     0
  9
$DIMARCSYM
 70
     0
  9
$DIMLTYPE
  6

  9
$DIMLTEX1
  6

  9
$DIMLTEX2
  6

  9
$DIMTXTDIRECTION
 70
     0
  9
$LUNITS
 70
     2
  9
$LUPREC
 70
     4
  9
$SKETCHINC
 40
0.1
  9
$FILLETRAD
 40
0.0
  9
$AUNITS
 70
     0
  9
$AUPREC
 70
     0
  9
$MENU
  1
.
  9
$ELEVATION
 40
0.0
  9
$PELEVATION
 40
0.0
  9
$THICKNESS
 40
0.0
  9
$LIMCHECK
 70
     0
  9
$CHAMFERA
 40
0.0
  9
$CHAMFERB
 40
0.0
  9
$CHAMFERC
 40
0.0
  9
$CHAMFERD
 40
0.0
  9
$SKPOLY
 70
     0
  9
$TDCREATE
 40
2460845.654594908
  9
$TDUCREATE
 40
2460845.904594908
  9
$TDUPDATE
 40
2460845.654594908
  9
$TDUUPDATE
 40
2460845.904594908
  9
$TDINDWG
 40
0.0000000000
  9
$TDUSRTIMER
 40
0.0000000000
  9
$USRTIMER
 70
     1
  9
$ANGBASE
 50
0.0
  9
$ANGDIR
 70
     0
  9
$PDMODE
 70
     0
  9
$PDSIZE
 40
0.0
  9
$PLINEWID
 40
0.0
  9
$SPLFRAME
 70
     0
  9
$SPLINETYPE
 70
     6
  9
$SPLINESEGS
 70
     8
  9
$HANDSEED
  5
A7
  9
$SURFTAB1
 70
     6
  9
$SURFTAB2
 70
     6
  9
$SURFTYPE
 70
     6
  9
$SURFU
 70
     6
  9
$SURFV
 70
     6
  9
$UCSBASE
  2

  9
$UCSNAME
  2

  9
$UCSORG
 10
0.0
 20
0.0
 30
0.0
  9
$UCSXDIR
 10
1.0
 20
0.0
 30
0.0
  9
$UCSYDIR
 10
0.0
 20
1.0
 30
0.0
  9
$UCSORTHOREF
  2

  9
$UCSORTHOVIEW
 70
     0
  9
$UCSORGTOP
 10
0.0
 20
0.0
 30
0.0
  9
$UCSORGBOTTOM
 10
0.0
 20
0.0
 30
0.0
  9
$UCSORGLEFT
 10
0.0
 20
0.0
 30
0.0
  9
$UCSORGRIGHT
 10
0.0
 20
0.0
 30
0.0
  9
$UCSORGFRONT
 10
0.0
 20
0.0
 30
0.0
  9
$UCSORGBACK
 10
0.0
 20
0.0
 30
0.0
  9
$PUCSBASE
  2

  9
$PUCSNAME
  2

  9
$PUCSORG
 10
0.0
 20
0.0
 30
0.0
  9
$PUCSXDIR
 10
1.0
 20
0.0
 30
0.0
  9
$PUCSYDIR
 10
0.0
 20
1.0
 30
0.0
  9
$PUCSORTHOREF
  2

  9
$PUCSORTHOVIEW
 70
     0
  9
$PUCSORGTOP
 10
0.0
 20
0.0
 30
0.0
  9
$PUCSORGBOTTOM
 10
0.0
 20
0.0
 30
0.0
  9
$PUCSORGLEFT
 10
0.0
 20
0.0
 30
0.0
  9
$PUCSORGRIGHT
 10
0.0
 20
0.0
 30
0.0
  9
$PUCSORGFRONT
 10
0.0
 20
0.0
 30
0.0
  9
$PUCSORGBACK
 10
0.0
 20
0.0
 30
0.0
  9
$USERI1
 70
     0
  9
$USERI2
 70
     0
  9
$USERI3
 70
     0
  9
$USERI4
 70
     0
  9
$USERI5
 70
     0
  9
$USERR1
 40
0.0
  9
$USERR2
 40
0.0
  9
$USERR3
 40
0.0
  9
$USERR4
 40
0.0
  9
$USERR5
 40
0.0
  9
$WORLDVIEW
 70
     1
  9
$SHADEDGE
 70
     3
  9
$SHADEDIF
 70
    70
  9
$TILEMODE
 70
     1
  9
$MAXACTVP
 70
    64
  9
$PINSBASE
 10
0.0
 20
0.0
 30
0.0
  9
$PLIMCHECK
 70
     0
  9
$PEXTMIN
 10
1.000000000000000E+20
 20
1.000000000000000E+20
 30
1.000000000000000E+20
  9
$PEXTMAX
 10
-1.000000000000000E+20
 20
-1.000000000000000E+20
 30
-1.000000000000000E+20
  9
$PLIMMIN
 10
0.0
 20
0.0
  9
$PLIMMAX
 10
12.0
 20
9.0
  9
$UNITMODE
 70
     0
  9
$VISRETAIN
 70
     1
  9
$PLINEGEN
 70
     0
  9
$PSLTSCALE
 70
     1
  9
$TREEDEPTH
 70
  3020
  9
$CMLSTYLE
  2
Standard
  9
$CMLJUST
 70
     0
  9
$CMLSCALE
 40
1.0
  9
$PROXYGRAPHICS
 70
     1
  9
$MEASUREMENT
 70
     0
  9
$CELWEIGHT
370
    -1
  9
$ENDCAPS
280
     0
  9
$JOINSTYLE
280
     0
  9
$LWDISPLAY
290
     1
  9
$INSUNITS
 70
     4
  9
$HYPERLINKBASE
  1

  9
$STYLESHEET
  1

  9
$XEDIT
290
     1
  9
$CEPSNTYPE
380
     0
  9
$PSTYLEMODE
290
     1
  9
$FINGERPRINTGUID
  2
{B1341A5F-F46F-3B4D-982A-933C894F6E42}
  9
$VERSIONGUID
  2
{4EB8EA30-6FD3-DB45-B533-B4ACF2473E8C}
  9
$EXTNAMES
290
     1
  9
$PSVPSCALE
 40
0.0
  9
$OLESTARTUP
290
     0
  9
$SORTENTS
280
   127
  9
$INDEXCTL
280
     0
  9
$HIDETEXT
280
     1
  9
$XCLIPFRAME
280
     2
  9
$HALOGAP
280
     0
  9
$OBSCOLOR
 70
   257
  9
$OBSLTYPE
280
     0
  9
$INTERSECTIONDISPLAY
280
     0
  9
$INTERSECTIONCOLOR
 70
   257
  9
$DIMASSOC
280
     2
  9
$PROJECTNAME
  1

  9
$CAMERADISPLAY
290
     0
  9
$LENSLENGTH
 40
50.0
  9
$CAMERAHEIGHT
 40
0.0
  9
$STEPSPERSEC
 40
2.0
  9
$STEPSIZE
 40
6.0
  9
$3DDWFPREC
 40
2.0
  9
$PSOLWIDTH
 40
0.25
  9
$PSOLHEIGHT
 40
4.0
  9
$LOFTANG1
 40
1.570796326794896
  9
$LOFTANG2
 40
1.570796326794896
  9
$LOFTMAG1
 40
0.0
  9
$LOFTMAG2
 40
0.0
  9
$LOFTPARAM
 70
     7
  9
$LOFTNORMALS
280
     1
  9
$LATITUDE
 40
37.795
  9
$LONGITUDE
 40
-122.394
  9
$NORTHDIRECTION
 40
0.0
  9
$TIMEZONE
 70
 -8000
  9
$LIGHTGLYPHDISPLAY
280
     1
  9
$TILEMODELIGHTSYNCH
280
     1
  9
$CMATERIAL
347
11
  9
$SOLIDHIST
280
     0
  9
$SHOWHIST
280
     1
  9
$DWFFRAME
280
     2
  9
$DGNFRAME
280
     0
  9
$REALWORLDSCALE
290
     1
  9
$INTERFERECOLOR
 62
     1
  9
$INTERFEREOBJVS
345
33
  9
$INTERFEREVPVS
346
30
  9
$CSHADOW
280
     0
  9
$SHADOWPLANELOCATION
 40
0.0
  0
ENDSEC
  0
SECTION
  2
CLASSES
  0
CLASS
  1
ACDBDICTIONARYWDFLT
  2
AcDbDictionaryWithDefault
  3
ObjectDBX Classes
 90
        0
 91
        1
280
     0
281
     0
  0
CLASS
  1
MATERIAL
  2
AcDbMaterial
  3
ObjectDBX Classes
 90
     1153
 91
        3
280
     0
281
     0
  0
CLASS
  1
VISUALSTYLE
  2
AcDbVisualStyle
  3
ObjectDBX Classes
 90
     4095
 91
       24
280
     0
281
     0
  0
CLASS
  1
SCALE
  2
AcDbScale
  3
ObjectDBX Classes
 90
     1153
 91
       17
280
     0
281
     0
  0
CLASS
  1
TABLESTYLE
  2
AcDbTableStyle
  3
ObjectDBX Classes
 90
     4095
 91
        1
280
     0
281
     0
  0
CLASS
  1
MLEADERSTYLE
  2
AcDbMLeaderStyle
  3
ACDB_MLEADERSTYLE_CLASS
 90
     4095
 91
        1
280
     0
281
     0
  0
CLASS
  1
ACDBSECTIONVIEWSTYLE
  2
AcDbSectionViewStyle
  3
ObjectDBX Classes
 90
     1025
 91
        1
280
     0
281
     0
  0
CLASS
  1
ACDBDETAILVIEWSTYLE
  2
AcDbDetailViewStyle
  3
ObjectDBX Classes
 90
     1025
 91
        1
280
     0
281
     0
  0
CLASS
  1
DICTIONARYVAR
  2
AcDbDictionaryVar
  3
ObjectDBX Classes
 90
        0
 91
        5
280
     0
281
     0
  0
CLASS
  1
CELLSTYLEMAP
  2
AcDbCellStyleMap
  3
ObjectDBX Classes
 90
     1152
 91
        1
280
     0
281
     0
  0
ENDSEC
  0
SECTION
  2
TABLES
  0
TABLE
  2
VPORT
  5
8
330
0
100
AcDbSymbolTable
 70
     1
  0
VPORT
  5
57
330
8
100
AcDbSymbolTableRecord
100
AcDbViewportTableRecord
  2
*Active
 70
     0
 10
0.0
 20
0.0
 11
1.0
 21
1.0
 12
0.0
 22
0.0
 13
0.0
 23
0.0
 14
1.0
 24
1.0
 15
0.0
 25
0.0
 16
0.0
 26
0.0
 36
1.0
 17
106.7152777510989
 27
-139.5236110762302
 37
0.0
 40
182.4354999543911
 41
2.143984220907297
 42
50.0
 43
0.0
 44
0.0
 50
0.0
 51
0.0
 71
     0
 72
   100
 73
     1
 74
     1
 75
     0
 76
     0
 77
     0
 78
     0
281
     0
 65
     1
110
0.0
120
0.0
130
0.0
111
1.0
121
0.0
131
0.0
112
0.0
122
1.0
132
0.0
 79
     0
146
0.0
 60
     3
 61
     5
292
     1
282
     1
141
0.0
142
0.0
 63
   250
421
  3355443
  0
ENDTAB
  0
TABLE
  2
LTYPE
  5
5
330
0
100
AcDbSymbolTable
 70
     1
  0
LTYPE
  5
5B
330
5
100
AcDbSymbolTableRecord
100
AcDbLinetypeTableRecord
  2
ByBlock
 70
     0
  3

 72
    65
 73
     0
 40
0.0
  0
LTYPE
  5
5C
330
5
100
AcDbSymbolTableRecord
100
AcDbLinetypeTableRecord
  2
ByLayer
 70
     0
  3

 72
    65
 73
     0
 40
0.0
  0
LTYPE
  5
5D
330
5
100
AcDbSymbolTableRecord
100
AcDbLinetypeTableRecord
  2
Continuous
 70
     0
  3
Solid line
 72
    65
 73
     0
 40
0.0
  0
ENDTAB
  0
TABLE
  2
LAYER
  5
2
330
0
100
AcDbSymbolTable
 70
     2
  0
LAYER
  5
54
330
2
100
AcDbSymbolTableRecord
100
AcDbLayerTableRecord
  2
0
 70
     0
 62
     7
  6
Continuous
370
    -3
390
F
347
21
348
0
  0
LAYER
  5
78
330
2
100
AcDbSymbolTableRecord
100
AcDbLayerTableRecord
  2
Capa 1
 70
     0
 62
     7
  6
Continuous
370
     0
390
F
347
21
348
0
  0
ENDTAB
  0
TABLE
  2
STYLE
  5
3
330
0
100
AcDbSymbolTable
 70
     2
  0
STYLE
  5
55
330
3
100
AcDbSymbolTableRecord
100
AcDbTextStyleTableRecord
  2
Standard
 70
     0
 40
0.0
 41
1.0
 50
0.0
 71
     0
 42
0.2
  3
txt
  4

  0
STYLE
  5
5A
330
3
100
AcDbSymbolTableRecord
100
AcDbTextStyleTableRecord
  2
Annotative
 70
     0
 40
0.0
 41
1.0
 50
0.0
 71
     0
 42
0.2
  3
txt
  4

1001
AcadAnnotative
1000
AnnotativeData
1002
{
1070
     1
1070
     1
1002
}
  0
ENDTAB
  0
TABLE
  2
VIEW
  5
6
330
0
100
AcDbSymbolTable
 70
     0
  0
ENDTAB
  0
TABLE
  2
UCS
  5
7
330
0
100
AcDbSymbolTable
 70
     0
  0
ENDTAB
  0
TABLE
  2
APPID
  5
9
330
0
100
AcDbSymbolTable
 70
     2
  0
APPID
  5
56
330
9
100
AcDbSymbolTableRecord
100
AcDbRegAppTableRecord
  2
ACAD
 70
     0
  0
APPID
  5
5E
330
9
100
AcDbSymbolTableRecord
100
AcDbRegAppTableRecord
  2
AcadAnnotative
 70
     0
  0
ENDTAB
  0
TABLE
  2
DIMSTYLE
  5
A
330
0
100
AcDbSymbolTable
 70
     2
100
AcDbDimStyleTable
 71
     0
  0
DIMSTYLE
105
58
330
A
100
AcDbSymbolTableRecord
100
AcDbDimStyleTableRecord
  2
Standard
 70
     0
340
55
  0
DIMSTYLE
105
59
330
A
100
AcDbSymbolTableRecord
100
AcDbDimStyleTableRecord
  2
Annotative
 70
     0
340
55
1001
AcadAnnotative
1000
AnnotativeData
1002
{
1070
     1
1070
     1
1002
}
  0
ENDTAB
  0
TABLE
  2
BLOCK_RECORD
  5
1
330
0
100
AcDbSymbolTable
 70
     3
  0
BLOCK_RECORD
  5
70
330
1
100
AcDbSymbolTableRecord
100
AcDbBlockTableRecord
  2
*Model_Space
340
73
 70
     0
280
     1
281
     0
  0
BLOCK_RECORD
  5
6C
330
1
100
AcDbSymbolTableRecord
100
AcDbBlockTableRecord
  2
*Paper_Space
340
6F
 70
     0
280
     1
281
     0
  0
BLOCK_RECORD
  5
74
330
1
100
AcDbSymbolTableRecord
100
AcDbBlockTableRecord
  2
*Paper_Space0
340
77
 70
     0
280
     1
281
     0
  0
BLOCK_RECORD
  5
79
330
1
100
AcDbSymbolTableRecord
100
AcDbBlockTableRecord
  2
Block_0
340
0
102
{BLKREFS
331
7A
102
}
 70
     0
280
     1
281
     0
  0
BLOCK_RECORD
  5
7D
330
1
100
AcDbSymbolTableRecord
100
AcDbBlockTableRecord
  2
Block_1
340
0
102
{BLKREFS
331
7E
102
}
 70
     0
280
     1
281
     0
  0
ENDTAB
  0
ENDSEC
  0
SECTION
  2
BLOCKS
  0
BLOCK
  5
71
330
70
100
AcDbEntity
  8
0
100
AcDbBlockBegin
  2
*Model_Space
 70
     0
 10
0.0
 20
0.0
 30
0.0
  3
*Model_Space
  1

  0
ENDBLK
  5
72
330
70
100
AcDbEntity
  8
0
100
AcDbBlockEnd
  0
BLOCK
  5
6D
330
6C
100
AcDbEntity
 67
     1
  8
0
100
AcDbBlockBegin
  2
*Paper_Space
 70
     0
 10
0.0
 20
0.0
 30
0.0
  3
*Paper_Space
  1

  0
ENDBLK
  5
6E
330
6C
100
AcDbEntity
 67
     1
  8
0
100
AcDbBlockEnd
  0
BLOCK
  5
75
330
74
100
AcDbEntity
 67
     1
  8
0
100
AcDbBlockBegin
  2
*Paper_Space0
 70
     0
 10
0.0
 20
0.0
 30
0.0
  3
*Paper_Space0
  1

  0
ENDBLK
  5
76
330
74
100
AcDbEntity
 67
     1
  8
0
100
AcDbBlockEnd
  0
BLOCK
  5
7B
330
79
100
AcDbEntity
  8
0
100
AcDbBlockBegin
  2
Block_0
 70
     0
 10
0.0
 20
0.0
 30
0.0
  3
Block_0
  1

  0
INSERT
  5
7E
330
79
100
AcDbEntity
  8
Capa 1
100
AcDbBlockReference
  2
Block_1
 10
0.0
 20
0.0
 30
0.0
  0
ENDBLK
  5
7C
330
79
100
AcDbEntity
  8
0
100
AcDbBlockEnd
  0
BLOCK
  5
7F
330
7D
100
AcDbEntity
  8
0
100
AcDbBlockBegin
  2
Block_1
 70
     0
 10
0.0
 20
0.0
 30
0.0
  3
Block_1
  1

  0
SPLINE
  5
81
330
7D
100
AcDbEntity
  8
Capa 1
 62
    18
420
    65793
370
    35
100
AcDbSpline
210
0.0
220
0.0
230
1.0
 70
    11
 71
     3
 72
    89
 73
    85
 74
     0
 42
0.0000000001
 43
0.0000000001
 40
0.0
 40
0.0
 40
0.0
 40
0.0
 40
1.0
 40
1.0
 40
1.0
 40
2.0
 40
2.0
 40
2.0
 40
3.0
 40
3.0
 40
3.0
 40
4.0
 40
4.0
 40
4.0
 40
5.0
 40
5.0
 40
5.0
 40
6.0
 40
6.0
 40
6.0
 40
7.0
 40
7.0
 40
7.0
 40
8.0
 40
8.0
 40
8.0
 40
9.0
 40
9.0
 40
9.0
 40
10.0
 40
10.0
 40
10.0
 40
11.0
 40
11.0
 40
11.0
 40
12.0
 40
12.0
 40
12.0
 40
13.0
 40
13.0
 40
13.0
 40
14.0
 40
14.0
 40
14.0
 40
15.0
 40
15.0
 40
15.0
 40
16.0
 40
16.0
 40
16.0
 40
17.0
 40
17.0
 40
17.0
 40
18.0
 40
18.0
 40
18.0
 40
19.0
 40
19.0
 40
19.0
 40
20.0
 40
20.0
 40
20.0
 40
21.0
 40
21.0
 40
21.0
 40
22.0
 40
22.0
 40
22.0
 40
23.0
 40
23.0
 40
23.0
 40
24.0
 40
24.0
 40
24.0
 40
25.0
 40
25.0
 40
25.0
 40
26.0
 40
26.0
 40
26.0
 40
27.0
 40
27.0
 40
27.0
 40
28.0
 40
28.0
 40
28.0
 40
28.0
 10
-43.92459293915958
 20
-170.8995948528267
 30
0.0
 10
-43.92459293915958
 20
-170.8995948528267
 30
0.0
 10
-73.62939380317214
 20
-170.8995948528267
 30
0.0
 10
-73.62939380317214
 20
-170.8995948528267
 30
0.0
 10
-73.62939380317214
 20
-170.8995948528267
 30
0.0
 10
-73.62939380317214
 20
-167.6864403760952
 30
0.0
 10
-73.62939380317214
 20
-167.6864403760952
 30
0.0
 10
-73.62939380317214
 20
-167.6864403760952
 30
0.0
 10
-72.74515393767906
 20
-167.6864403760952
 30
0.0
 10
-72.74515393767906
 20
-167.6864403760952
 30
0.0
 10
-71.12529414746304
 20
-167.6864403760952
 30
0.0
 10
-69.82511357296733
 20
-167.638545849756
 30
0.0
 10
-68.86607592562642
 20
-167.5481144899724
 30
0.0
 10
-68.02964159907252
 20
-167.468236161252
 30
0.0
 10
-67.3847546357824
 20
-167.255389639136
 30
0.0
 10
-66.93726877520635
 20
-166.9256480019311
 30
0.0
 10
-66.54832030914829
 20
-166.633085505473
 30
0.0
 10
-66.28197516395005
 20
-166.1116034085865
 30
0.0
 10
-66.1275014839523
 20
-165.3827948366985
 30
0.0
 10
-65.95156409261339
 20
-164.4890342690477
 30
0.0
 10
-65.86083113097362
 20
-163.1856537355705
 30
0.0
 10
-65.86083113097362
 20
-161.5257431009418
 30
0.0
 10
-65.86083113097362
 20
-161.5257431009418
 30
0.0
 10
-65.86083113097362
 20
-81.20402477303006
 30
0.0
 10
-65.86083113097362
 20
-81.20402477303006
 30
0.0
 10
-65.86083113097362
 20
-79.54411413840205
 30
0.0
 10
-65.95156409261339
 20
-78.24609129762311
 30
0.0
 10
-66.1275014839523
 20
-77.35233072996658
 30
0.0
 10
-66.28197516395005
 20
-76.6128067725286
 30
0.0
 10
-66.54832030914829
 20
-76.10204006122732
 30
0.0
 10
-66.93726877520635
 20
-75.8041198720703
 30
0.0
 10
-67.37402278008038
 20
-75.47437823479292
 30
0.0
 10
-68.02411306729616
 20
-75.27224709827054
 30
0.0
 10
-68.86607592562642
 20
-75.19236876958474
 30
0.0
 10
-69.84657728430078
 20
-75.09657971695138
 30
0.0
 10
-71.15196118272857
 20
-75.04348985217745
 30
0.0
 10
-72.74515393767906
 20
-75.04348985217745
 30
0.0
 10
-72.74515393767906
 20
-75.04348985217745
 30
0.0
 10
-73.62939380317214
 20
-75.04348985217745
 30
0.0
 10
-73.62939380317214
 20
-75.04348985217745
 30
0.0
 10
-73.62939380317214
 20
-75.04348985217745
 30
0.0
 10
-73.62939380317214
 20
-71.83553071383648
 30
0.0
 10
-73.62939380317214
 20
-71.83553071383648
 30
0.0
 10
-73.62939380317214
 20
-71.83553071383648
 30
0.0
 10
-43.92459293915958
 20
-71.83553071383648
 30
0.0
 10
-43.92459293915958
 20
-71.83553071383648
 30
0.0
 10
-43.92459293915958
 20
-71.83553071383648
 30
0.0
 10
-43.92459293915958
 20
-75.04348985217745
 30
0.0
 10
-43.92459293915958
 20
-75.04348985217745
 30
0.0
 10
-43.92459293915958
 20
-75.04348985217745
 30
0.0
 10
-44.81468654400958
 20
-75.04348985217745
 30
0.0
 10
-44.81468654400958
 20
-75.04348985217745
 30
0.0
 10
-46.40755409123065
 20
-75.04348985217745
 30
0.0
 10
-47.70773466573247
 20
-75.09657971695138
 30
0.0
 10
-48.69896788010756
 20
-75.19236876958474
 30
0.0
 10
-49.52987367496435
 20
-75.27224709827054
 30
0.0
 10
-50.17476063824805
 20
-75.47437823479292
 30
0.0
 10
-50.61151464315866
 20
-75.8041198720703
 30
0.0
 10
-51.00599164079834
 20
-76.10204006122732
 30
0.0
 10
-51.28306864170532
 20
-76.62352215812093
 30
0.0
 10
-51.42160714211294
 20
-77.35233072996658
 30
0.0
 10
-51.60795118150208
 20
-78.24073360484523
 30
0.0
 10
-51.69868414301992
 20
-79.53891879995892
 30
0.0
 10
-51.69868414301992
 20
-81.20402477303006
 30
0.0
 10
-51.69868414301992
 20
-81.20402477303006
 30
0.0
 10
-51.69868414301992
 20
-161.5257431009418
 30
0.0
 10
-51.69868414301992
 20
-161.5257431009418
 30
0.0
 10
-51.69868414301992
 20
-163.1910114283477
 30
0.0
 10
-51.60795118150208
 20
-164.4890342690477
 30
0.0
 10
-51.42160714211294
 20
-165.3827948366985
 30
0.0
 10
-51.28306864170532
 20
-166.1116034085865
 30
0.0
 10
-51.00599164079834
 20
-166.633085505473
 30
0.0
 10
-50.61151464315866
 20
-166.9256480019311
 30
0.0
 10
-50.17476063824805
 20
-167.255389639136
 30
0.0
 10
-49.52467035096073
 20
-167.468236161252
 30
0.0
 10
-48.69896788010756
 20
-167.5427567971233
 30
0.0
 10
-47.72919837706432
 20
-167.638545849756
 30
0.0
 10
-46.4290178025625
 20
-167.6864403760952
 30
0.0
 10
-44.81468654400958
 20
-167.6864403760952
 30
0.0
 10
-44.81468654400958
 20
-167.6864403760952
 30
0.0
 10
-43.92459293915958
 20
-167.6864403760952
 30
0.0
 10
-43.92459293915958
 20
-167.6864403760952
 30
0.0
 10
-43.92459293915958
 20
-167.6864403760952
 30
0.0
 10
-43.92459293915958
 20
-170.8995948528267
 30
0.0
 10
-43.92459293915958
 20
-170.8995948528267
 30
0.0
  0
SPLINE
  5
82
330
7D
100
AcDbEntity
  8
Capa 1
 62
    18
420
    65793
370
    35
100
AcDbSpline
210
0.0
220
0.0
230
1.0
 70
    11
 71
     3
 72
    47
 73
    43
 74
     0
 42
0.0000000001
 43
0.0000000001
 40
0.0
 40
0.0
 40
0.0
 40
0.0
 40
1.0
 40
1.0
 40
1.0
 40
2.0
 40
2.0
 40
2.0
 40
3.0
 40
3.0
 40
3.0
 40
4.0
 40
4.0
 40
4.0
 40
5.0
 40
5.0
 40
5.0
 40
6.0
 40
6.0
 40
6.0
 40
7.0
 40
7.0
 40
7.0
 40
8.0
 40
8.0
 40
8.0
 40
9.0
 40
9.0
 40
9.0
 40
10.0
 40
10.0
 40
10.0
 40
11.0
 40
11.0
 40
11.0
 40
12.0
 40
12.0
 40
12.0
 40
13.0
 40
13.0
 40
13.0
 40
14.0
 40
14.0
 40
14.0
 40
14.0
 10
-12.83961039464169
 20
-114.8003302744675
 30
0.0
 10
-12.83961039464169
 20
-114.8003302744675
 30
0.0
 10
0.09162526903886
 20
-114.8003302744675
 30
0.0
 10
0.09162526903886
 20
-114.8003302744675
 30
0.0
 10
2.984998598577803
 20
-114.8003302744675
 30
0.0
 10
5.771703786806946
 20
-114.4972147468025
 30
0.0
 10
8.371739728110989
 20
-113.8853012900111
 30
0.0
 10
10.93470198606911
 20
-113.2948186044024
 30
0.0
 10
13.20432685587704
 20
-112.3052689840304
 30
0.0
 10
15.11719882659243
 20
-110.9327255074179
 30
0.0
 10
16.99820043815386
 20
-109.6027188643296
 30
0.0
 10
18.50066023154897
 20
-107.8151977290204
 30
0.0
 10
19.5823011997497
 20
-105.6659511541879
 30
0.0
 10
20.66394216790712
 20
-103.4952738081784
 30
0.0
 10
21.21809616963575
 20
-100.7821706572713
 30
0.0
 10
21.21809616963575
 20
-97.58476455022389
 30
0.0
 10
21.21809616963575
 20
-94.30764246881897
 30
0.0
 10
20.56280255849528
 20
-91.5466447915009
 30
0.0
 10
19.25741865998856
 20
-89.34414599755973
 30
0.0
 10
17.93577437416131
 20
-87.13093181802557
 30
0.0
 10
16.22550683008692
 20
-85.3434106827523
 30
0.0
 10
14.14742932354919
 20
-84.03467245642593
 30
0.0
 10
12.03748145782124
 20
-82.7100235061148
 30
0.0
 10
9.570780693042797
 20
-81.76836841211786
 30
0.0
 10
6.821149187923109
 20
-81.20970717447873
 30
0.0
 10
4.013305496097322
 20
-80.65120829114546
 30
0.0
 10
1.114728842641387
 20
-80.37455651871516
 30
0.0
 10
-1.783847810787595
 20
-80.37455651871516
 30
0.0
 10
-2.561744742744579
 20
-80.37455651871516
 30
0.0
 10
-3.531514245865144
 20
-80.3425727163961
 30
0.0
 10
-4.698359643835912
 20
-80.29467819002295
 30
0.0
 10
-5.811870971298408
 20
-80.2574990492768
 30
0.0
 10
-6.930910830422086
 20
-80.27340977330265
 30
0.0
 10
-8.049625481765959
 20
-80.36384113315941
 30
0.0
 10
-9.141998305625394
 20
-80.45963018583448
 30
0.0
 10
-10.1703052031879
 20
-80.63513521277526
 30
0.0
 10
-11.11340767093802
 20
-80.90659164681438
 30
0.0
 10
-11.82756388440645
 20
-81.10336509055247
 30
0.0
 10
-12.39765306584105
 20
-81.42791138932961
 30
0.0
 10
-12.83961039464169
 20
-81.8482467407677
 30
0.0
 10
-12.83961039464169
 20
-81.8482467407677
 30
0.0
 10
-12.83961039464169
 20
-114.8003302744675
 30
0.0
 10
-12.83961039464169
 20
-114.8003302744675
 30
0.0
  0
SPLINE
  5
83
330
7D
100
AcDbEntity
  8
Capa 1
 62
    18
420
    65793
370
    35
100
AcDbSpline
210
0.0
220
0.0
230
1.0
 70
     9
 71
     3
 72
    47
 73
    43
 74
     0
 42
0.0000000001
 43
0.0000000001
 40
0.0
 40
0.0
 40
0.0
 40
0.0
 40
1.0
 40
1.0
 40
1.0
 40
2.0
 40
2.0
 40
2.0
 40
3.0
 40
3.0
 40
3.0
 40
4.0
 40
4.0
 40
4.0
 40
5.0
 40
5.0
 40
5.0
 40
6.0
 40
6.0
 40
6.0
 40
7.0
 40
7.0
 40
7.0
 40
8.0
 40
8.0
 40
8.0
 40
9.0
 40
9.0
 40
9.0
 40
10.0
 40
10.0
 40
10.0
 40
11.0
 40
11.0
 40
11.0
 40
12.0
 40
12.0
 40
12.0
 40
13.0
 40
13.0
 40
13.0
 40
14.0
 40
14.0
 40
14.0
 40
14.0
 10
-12.97814889509134
 20
-159.7279936430176
 30
0.0
 10
-12.58920042911413
 20
-160.4249807669309
 30
0.0
 10
-12.05651013872472
 20
-160.9516582022163
 30
0.0
 10
-11.31601209761369
 20
-161.3133836417755
 30
0.0
 10
-10.46331738372353
 20
-161.7390766859921
 30
0.0
 10
-9.488344556676674
 20
-162.0262814896287
 30
0.0
 10
-8.444102479484241
 20
-162.1592496831385
 30
0.0
 10
-7.330265944365146
 20
-162.2975755692895
 30
0.0
 10
-6.206022761243944
 20
-162.3613808196544
 30
0.0
 10
-5.092511433826366
 20
-162.3613808196544
 30
0.0
 10
-5.092511433826366
 20
-162.3613808196544
 30
0.0
 10
-2.071331459538836
 20
-162.3613808196544
 30
0.0
 10
-2.071331459538836
 20
-162.3613808196544
 30
0.0
 10
1.120257374417754
 20
-162.3613808196544
 30
0.0
 10
4.364855071151902
 20
-162.0847290472241
 30
0.0
 10
7.561972436770315
 20
-161.5155147783338
 30
0.0
 10
10.70543052414332
 20
-160.9675689262428
 30
0.0
 10
13.55620163866875
 20
-159.9354824723486
 30
0.0
 10
16.0336342590767
 20
-158.4725076358012
 30
0.0
 10
18.48992837584791
 20
-157.0200858305106
 30
0.0
 10
20.49873663219836
 20
-155.0517019754398
 30
0.0
 10
21.99599310159273
 20
-152.6524297377086
 30
0.0
 10
23.48251771547728
 20
-150.27442591674
 30
0.0
 10
24.23927614383665
 20
-147.167451169555
 30
0.0
 10
24.23927614383665
 20
-143.427456903188
 30
0.0
 10
24.23927614383665
 20
-139.1341590919584
 30
0.0
 10
23.30137700013507
 20
-135.6920850147914
 30
0.0
 10
21.46330281123798
 20
-133.1757553075942
 30
0.0
 10
19.58782973144842
 20
-130.6274417980779
 30
0.0
 10
17.17934115345243
 20
-128.6377895262438
 30
0.0
 10
14.31263485929228
 20
-127.2706037423374
 30
0.0
 10
11.39291970235392
 20
-125.8873448801384
 30
0.0
 10
8.04685718827862
 20
-124.9403320934072
 30
0.0
 10
4.364855071151902
 20
-124.4774599084027
 30
0.0
 10
0.6353726228751184
 20
-124.0093923849602
 30
0.0
 10
-3.030694314688416
 20
-123.7699197533114
 30
0.0
 10
-6.525701977037077
 20
-123.7699197533114
 30
0.0
 10
-6.525701977037077
 20
-123.7699197533114
 30
0.0
 10
-12.97814889509134
 20
-123.7699197533114
 30
0.0
 10
-12.97814889509134
 20
-123.7699197533114
 30
0.0
 10
-12.97814889509134
 20
-123.7699197533114
 30
0.0
 10
-12.97814889509134
 20
-159.7279936430176
 30
0.0
 10
-12.97814889509134
 20
-159.7279936430176
 30
0.0
  0
SPLINE
  5
84
330
7D
100
AcDbEntity
  8
Capa 1
 62
    18
420
    65793
370
    35
100
AcDbSpline
210
0.0
220
0.0
230
1.0
 70
     9
 71
     3
 72
    92
 73
    88
 74
     0
 42
0.0000000001
 43
0.0000000001
 40
0.0
 40
0.0
 40
0.0
 40
0.0
 40
1.0
 40
1.0
 40
1.0
 40
2.0
 40
2.0
 40
2.0
 40
3.0
 40
3.0
 40
3.0
 40
4.0
 40
4.0
 40
4.0
 40
5.0
 40
5.0
 40
5.0
 40
6.0
 40
6.0
 40
6.0
 40
7.0
 40
7.0
 40
7.0
 40
8.0
 40
8.0
 40
8.0
 40
9.0
 40
9.0
 40
9.0
 40
10.0
 40
10.0
 40
10.0
 40
11.0
 40
11.0
 40
11.0
 40
12.0
 40
12.0
 40
12.0
 40
13.0
 40
13.0
 40
13.0
 40
14.0
 40
14.0
 40
14.0
 40
15.0
 40
15.0
 40
15.0
 40
16.0
 40
16.0
 40
16.0
 40
17.0
 40
17.0
 40
17.0
 40
18.0
 40
18.0
 40
18.0
 40
19.0
 40
19.0
 40
19.0
 40
20.0
 40
20.0
 40
20.0
 40
21.0
 40
21.0
 40
21.0
 40
22.0
 40
22.0
 40
22.0
 40
23.0
 40
23.0
 40
23.0
 40
24.0
 40
24.0
 40
24.0
 40
25.0
 40
25.0
 40
25.0
 40
26.0
 40
26.0
 40
26.0
 40
27.0
 40
27.0
 40
27.0
 40
28.0
 40
28.0
 40
28.0
 40
29.0
 40
29.0
 40
29.0
 40
29.0
 10
2.814589738787782
 20
-170.9000819158822
 30
0.0
 10
2.814589738787782
 20
-170.9000819158822
 30
0.0
 10
-34.77064526257339
 20
-170.9000819158822
 30
0.0
 10
-34.77064526257339
 20
-170.9000819158822
 30
0.0
 10
-34.77064526257339
 20
-170.9000819158822
 30
0.0
 10
-34.77064526257339
 20
-167.6814073919951
 30
0.0
 10
-34.77064526257339
 20
-167.6814073919951
 30
0.0
 10
-34.77064526257339
 20
-167.6814073919951
 30
0.0
 10
-33.87567354149252
 20
-167.6814073919951
 30
0.0
 10
-33.87567354149252
 20
-167.6814073919951
 30
0.0
 10
-32.36215668461431
 20
-167.6814073919951
 30
0.0
 10
-31.1101068567458
 20
-167.6388705584352
 30
0.0
 10
-30.1510692094033
 20
-167.5484391985347
 30
0.0
 10
-29.31463488284908
 20
-167.4687232242286
 30
0.0
 10
-28.67527645126441
 20
-167.2558767021203
 30
0.0
 10
-28.22746538295251
 20
-166.925972710573
 30
0.0
 10
-27.8225817373457
 20
-166.62805252138
 30
0.0
 10
-27.51883770114591
 20
-166.0961797476149
 30
0.0
 10
-27.33249366187677
 20
-165.3405827118593
 30
0.0
 10
-27.11395405553237
 20
-164.457537529749
 30
0.0
 10
-26.99687926645019
 20
-163.1754254129631
 30
0.0
 10
-26.99687926645019
 20
-161.5262301638845
 30
0.0
 10
-26.99687926645019
 20
-161.5262301638845
 30
0.0
 10
-26.99687926645019
 20
-81.20451183600799
 30
0.0
 10
-26.99687926645019
 20
-81.20451183600799
 30
0.0
 10
-26.99687926645019
 20
-79.56586961821324
 30
0.0
 10
-27.11395405553237
 20
-78.2783998086489
 30
0.0
 10
-27.33249366187677
 20
-77.39535462651028
 30
0.0
 10
-27.51883770114591
 20
-76.65583066911015
 30
0.0
 10
-27.82811026907971
 20
-76.12379554100193
 30
0.0
 10
-28.27039280565985
 20
-75.82587535180898
 30
0.0
 10
-28.76048088112076
 20
-75.48006063624223
 30
0.0
 10
-29.4424415276336
 20
-75.27257180694774
 30
0.0
 10
-30.29481103378662
 20
-75.19285583256269
 30
0.0
 10
-31.27531239249659
 20
-75.09706677997167
 30
0.0
 10
-32.52736222040102
 20
-75.04381456077573
 30
0.0
 10
-34.02461868980021
 20
-75.04381456077573
 30
0.0
 10
-34.02461868980021
 20
-75.04381456077573
 30
0.0
 10
-34.91438708702794
 20
-75.04381456077573
 30
0.0
 10
-34.91438708702794
 20
-75.04381456077573
 30
0.0
 10
-34.91438708702794
 20
-75.04381456077573
 30
0.0
 10
-34.91438708702794
 20
-71.8358554225156
 30
0.0
 10
-34.91438708702794
 20
-71.8358554225156
 30
0.0
 10
-34.91438708702794
 20
-71.8358554225156
 30
0.0
 10
-0.2013869114159144
 20
-71.8358554225156
 30
0.0
 10
-0.2013869114159144
 20
-71.8358554225156
 30
0.0
 10
4.050704387100804
 20
-71.8358554225156
 30
0.0
 10
8.318405657437159
 20
-72.19758086202991
 30
0.0
 10
12.47456067051133
 20
-72.92655178825459
 30
0.0
 10
16.68372454632842
 20
-73.65536036014195
 30
0.0
 10
20.4880047764896
 20
-75.00127772725169
 30
0.0
 10
23.77552989593205
 20
-76.90585633196461
 30
0.0
 10
27.10565723030299
 20
-78.84761407750197
 30
0.0
 10
29.84976020371915
 20
-81.52889578047734
 30
0.0
 10
31.93304103414563
 20
-84.89661157607248
 30
0.0
 10
34.0270537202735
 20
-88.28543343413018
 30
0.0
 10
35.08755618483491
 20
-92.60519500059443
 30
0.0
 10
35.08755618483491
 20
-97.72309043646021
 30
0.0
 10
35.08755618483491
 20
-104.2721392607403
 30
0.0
 10
33.30249085886939
 20
-109.3260670918627
 30
0.0
 10
29.78049095349625
 20
-112.7309620282835
 30
0.0
 10
27.00451762085555
 20
-115.4335121479773
 30
0.0
 10
23.30690553179689
 20
-117.5030427485037
 30
0.0
 10
18.76180205278722
 20
-118.9340337827391
 30
0.0
 10
20.71727623854405
 20
-119.4767842963518
 30
0.0
 10
22.60868449791925
 20
-120.1630560346727
 30
0.0
 10
24.42041685922217
 20
-120.9876536592313
 30
0.0
 10
27.32419683660601
 20
-122.3123026095489
 30
0.0
 10
29.90309427427683
 20
-124.0360184945367
 30
0.0
 10
32.07710806633635
 20
-126.1161021262687
 30
0.0
 10
34.26673183017059
 20
-128.196185758
 30
0.0
 10
36.02513012091519
 20
-130.6806940171931
 30
0.0
 10
37.30937551574666
 20
-133.5056592991338
 30
0.0
 10
38.60402755855264
 20
-136.3411776123303
 30
0.0
 10
39.26484970146178
 20
-139.5811205529377
 30
0.0
 10
39.26484970146178
 20
-143.1348944067716
 30
0.0
 10
39.26484970146178
 20
-148.359131926443
 30
0.0
 10
38.17768020164383
 20
-152.7907556239032
 30
0.0
 10
36.03586197654598
 20
-156.3232610609327
 30
0.0
 10
33.90997893119132
 20
-159.8291403884654
 30
0.0
 10
31.07514299625828
 20
-162.7020001967075
 30
0.0
 10
27.6172090171827
 20
-164.8725151883816
 30
0.0
 10
24.18073874939631
 20
-167.0217617632506
 30
0.0
 10
20.23759481089017
 20
-168.5858833452023
 30
0.0
 10
15.88989243462216
 20
-169.5168230536845
 30
0.0
 10
11.57926374158007
 20
-170.4318520380697
 30
0.0
 10
7.183755826459194
 20
-170.9000819158822
 30
0.0
 10
2.814589738787782
 20
-170.9000819158822
 30
0.0
  0
SPLINE
  5
85
330
7D
100
AcDbEntity
  8
Capa 1
 62
    18
420
    65793
370
    35
100
AcDbSpline
210
0.0
220
0.0
230
1.0
 70
    11
 71
     3
 72
   149
 73
   145
 74
     0
 42
0.0000000001
 43
0.0000000001
 40
0.0
 40
0.0
 40
0.0
 40
0.0
 40
1.0
 40
1.0
 40
1.0
 40
2.0
 40
2.0
 40
2.0
 40
3.0
 40
3.0
 40
3.0
 40
4.0
 40
4.0
 40
4.0
 40
5.0
 40
5.0
 40
5.0
 40
6.0
 40
6.0
 40
6.0
 40
7.0
 40
7.0
 40
7.0
 40
8.0
 40
8.0
 40
8.0
 40
9.0
 40
9.0
 40
9.0
 40
10.0
 40
10.0
 40
10.0
 40
11.0
 40
11.0
 40
11.0
 40
12.0
 40
12.0
 40
12.0
 40
13.0
 40
13.0
 40
13.0
 40
14.0
 40
14.0
 40
14.0
 40
15.0
 40
15.0
 40
15.0
 40
16.0
 40
16.0
 40
16.0
 40
17.0
 40
17.0
 40
17.0
 40
18.0
 40
18.0
 40
18.0
 40
19.0
 40
19.0
 40
19.0
 40
20.0
 40
20.0
 40
20.0
 40
21.0
 40
21.0
 40
21.0
 40
22.0
 40
22.0
 40
22.0
 40
23.0
 40
23.0
 40
23.0
 40
24.0
 40
24.0
 40
24.0
 40
25.0
 40
25.0
 40
25.0
 40
26.0
 40
26.0
 40
26.0
 40
27.0
 40
27.0
 40
27.0
 40
28.0
 40
28.0
 40
28.0
 40
29.0
 40
29.0
 40
29.0
 40
30.0
 40
30.0
 40
30.0
 40
31.0
 40
31.0
 40
31.0
 40
32.0
 40
32.0
 40
32.0
 40
33.0
 40
33.0
 40
33.0
 40
34.0
 40
34.0
 40
34.0
 40
35.0
 40
35.0
 40
35.0
 40
36.0
 40
36.0
 40
36.0
 40
37.0
 40
37.0
 40
37.0
 40
38.0
 40
38.0
 40
38.0
 40
39.0
 40
39.0
 40
39.0
 40
40.0
 40
40.0
 40
40.0
 40
41.0
 40
41.0
 40
41.0
 40
42.0
 40
42.0
 40
42.0
 40
43.0
 40
43.0
 40
43.0
 40
44.0
 40
44.0
 40
44.0
 40
45.0
 40
45.0
 40
45.0
 40
46.0
 40
46.0
 40
46.0
 40
47.0
 40
47.0
 40
47.0
 40
48.0
 40
48.0
 40
48.0
 40
48.0
 10
113.2105873271882
 20
-170.8995948528267
 30
0.0
 10
113.2105873271882
 20
-170.8995948528267
 30
0.0
 10
45.97388553230802
 20
-170.8995948528267
 30
0.0
 10
45.97388553230802
 20
-170.8995948528267
 30
0.0
 10
45.97388553230802
 20
-170.8995948528267
 30
0.0
 10
45.97388553230802
 20
-167.6864403760952
 30
0.0
 10
45.97388553230802
 20
-167.6864403760952
 30
0.0
 10
45.97388553230802
 20
-167.6864403760952
 30
0.0
 10
46.85845060545193
 20
-167.6864403760952
 30
0.0
 10
46.85845060545193
 20
-167.6864403760952
 30
0.0
 10
50.40679233838875
 20
-167.6864403760952
 30
0.0
 10
51.49396183836488
 20
-167.090599997665
 30
0.0
 10
51.82404770208729
 20
-166.7447852821335
 30
0.0
 10
52.16519062913334
 20
-166.3777021498041
 30
0.0
 10
52.73527981053233
 20
-165.2232005337059
 30
0.0
 10
52.73527981053233
 20
-161.5257431009418
 30
0.0
 10
52.73527981053233
 20
-161.5257431009418
 30
0.0
 10
52.73527981053233
 20
-81.20402477303006
 30
0.0
 10
52.73527981053233
 20
-81.20402477303006
 30
0.0
 10
52.73527981053233
 20
-77.50656734022266
 30
0.0
 10
52.16519062913334
 20
-76.35742341693924
 30
0.0
 10
51.82404770208729
 20
-75.9903402845662
 30
0.0
 10
51.5577025567742
 20
-75.70849317370046
 30
0.0
 10
50.54012751487713
 20
-75.04348985217745
 30
0.0
 10
46.85845060545193
 20
-75.04348985217745
 30
0.0
 10
46.85845060545193
 20
-75.04348985217745
 30
0.0
 10
45.97388553230802
 20
-75.04348985217745
 30
0.0
 10
45.97388553230802
 20
-75.04348985217745
 30
0.0
 10
45.97388553230802
 20
-75.04348985217745
 30
0.0
 10
45.97388553230802
 20
-71.83553071383648
 30
0.0
 10
45.97388553230802
 20
-71.83553071383648
 30
0.0
 10
45.97388553230802
 20
-71.83553071383648
 30
0.0
 10
111.9315452562827
 20
-71.83553071383648
 30
0.0
 10
111.9315452562827
 20
-71.83553071383648
 30
0.0
 10
111.9315452562827
 20
-71.83553071383648
 30
0.0
 10
112.0967507919973
 20
-88.41791456461326
 30
0.0
 10
112.0967507919973
 20
-88.41791456461326
 30
0.0
 10
112.0967507919973
 20
-88.41791456461326
 30
0.0
 10
108.3991387030172
 20
-88.41791456461326
 30
0.0
 10
108.3991387030172
 20
-88.41791456461326
 30
0.0
 10
108.3991387030172
 20
-88.41791456461326
 30
0.0
 10
108.2976738857556
 20
-87.64121146638611
 30
0.0
 10
108.2976738857556
 20
-87.64121146638611
 30
0.0
 10
107.8609198808447
 20
-84.33746327541305
 30
0.0
 10
106.8911503778432
 20
-82.32654258681689
 30
0.0
 10
105.4257642676701
 20
-81.65618157252369
 30
0.0
 10
103.7740341181144
 20
-80.89538919824475
 30
0.0
 10
101.3125366772609
 20
-80.51239534192479
 30
0.0
 10
98.0994841319722
 20
-80.51239534192479
 30
0.0
 10
98.0994841319722
 20
-80.51239534192479
 30
0.0
 10
69.02363505165706
 20
-80.51239534192479
 30
0.0
 10
69.02363505165706
 20
-80.51239534192479
 30
0.0
 10
67.40930379306694
 20
-80.51239534192479
 30
0.0
 10
66.95108607681774
 20
-80.68790036891369
 30
0.0
 10
66.86555643922426
 20
-80.71988417126098
 30
0.0
 10
66.9084838618886
 20
-80.74115258806022
 30
0.0
 10
66.75368497411169
 20
-81.21993549705013
 30
0.0
 10
66.75368497411169
 20
-82.93309835079515
 30
0.0
 10
66.75368497411169
 20
-82.93309835079515
 30
0.0
 10
66.75368497411169
 20
-114.9436891447974
 30
0.0
 10
66.75368497411169
 20
-114.9436891447974
 30
0.0
 10
66.75368497411169
 20
-114.9436891447974
 30
0.0
 10
95.07862936557838
 20
-114.9436891447974
 30
0.0
 10
95.07862936557838
 20
-114.9436891447974
 30
0.0
 10
96.56515397934805
 20
-114.9436891447974
 30
0.0
 10
97.88126973347786
 20
-114.8745262016963
 30
0.0
 10
98.99478106086144
 20
-114.7308426227321
 30
0.0
 10
100.0019494549085
 20
-114.6084274604787
 30
0.0
 10
100.81692007005
 20
-114.3424910735605
 30
0.0
 10
101.413676286786
 20
-113.9487818316911
 30
0.0
 10
101.9944973237735
 20
-113.5657879753776
 30
0.0
 10
102.4208446807179
 20
-112.9912160137094
 30
0.0
 10
102.7405238965466
 20
-112.2037975299342
 30
0.0
 10
103.0976020032627
 20
-111.3207523478315
 30
0.0
 10
103.3639471484613
 20
-110.0917300958979
 30
0.0
 10
103.550291187843
 20
-108.5436815922234
 30
0.0
 10
103.550291187843
 20
-108.5436815922234
 30
0.0
 10
103.6354956176275
 20
-107.7562631084547
 30
0.0
 10
103.6354956176275
 20
-107.7562631084547
 30
0.0
 10
103.6354956176275
 20
-107.7562631084547
 30
0.0
 10
107.1948944140019
 20
-107.7562631084547
 30
0.0
 10
107.1948944140019
 20
-107.7562631084547
 30
0.0
 10
107.1948944140019
 20
-107.7562631084547
 30
0.0
 10
107.1948944140019
 20
-131.2388681918924
 30
0.0
 10
107.1948944140019
 20
-131.2388681918924
 30
0.0
 10
107.1948944140019
 20
-131.2388681918924
 30
0.0
 10
103.6354956176275
 20
-131.2388681918924
 30
0.0
 10
103.6354956176275
 20
-131.2388681918924
 30
0.0
 10
103.6354956176275
 20
-131.2388681918924
 30
0.0
 10
103.550291187843
 20
-130.4462543696384
 30
0.0
 10
103.550291187843
 20
-130.4462543696384
 30
0.0
 10
103.3639471484613
 20
-128.8129698445503
 30
0.0
 10
103.0976020032627
 20
-127.5308577278364
 30
0.0
 10
102.7353205725773
 20
-126.6476501913893
 30
0.0
 10
102.4208446807179
 20
-125.8550363691794
 30
0.0
 10
101.967830288516
 20
-125.232569881181
 30
0.0
 10
101.3870092514133
 20
-124.8175922225131
 30
0.0
 10
100.7957815664973
 20
-124.3867038398604
 30
0.0
 10
100.0123561028008
 20
-124.0993366818381
 30
0.0
 10
99.06405031104617
 20
-123.977083874007
 30
0.0
 10
98.00387305422219
 20
-123.8334002949992
 30
0.0
 10
96.66629358871787
 20
-123.7695950446765
 30
0.0
 10
95.07862936557838
 20
-123.7695950446765
 30
0.0
 10
95.07862936557838
 20
-123.7695950446765
 30
0.0
 10
66.75368497411169
 20
-123.7695950446765
 30
0.0
 10
66.75368497411169
 20
-123.7695950446765
 30
0.0
 10
66.75368497411169
 20
-123.7695950446765
 30
0.0
 10
66.75368497411169
 20
-160.3819568704289
 30
0.0
 10
66.75368497411169
 20
-160.3819568704289
 30
0.0
 10
66.75368497411169
 20
-161.2544490212458
 30
0.0
 10
67.10003122520468
 20
-161.5364584864552
 30
0.0
 10
67.21190269028324
 20
-161.6322475391322
 30
0.0
 10
67.61158301199809
 20
-161.9619891763288
 30
0.0
 10
68.07532925994568
 20
-162.1589249744536
 30
0.0
 10
68.63988990952595
 20
-162.2332832559459
 30
0.0
 10
69.31144390814385
 20
-162.323714615888
 30
0.0
 10
70.014543058253
 20
-162.3397876942075
 30
0.0
 10
70.77130148665633
 20
-162.2972508606552
 30
0.0
 10
71.60253248924961
 20
-162.2545516727515
 30
0.0
 10
72.32189202676464
 20
-162.2227302247409
 30
0.0
 10
72.91311971163867
 20
-162.2227302247409
 30
0.0
 10
72.91311971163867
 20
-162.2227302247409
 30
0.0
 10
96.66629358871787
 20
-162.2227302247409
 30
0.0
 10
96.66629358871787
 20
-162.2227302247409
 30
0.0
 10
98.92030848670648
 20
-162.2227302247409
 30
0.0
 10
100.8861893203165
 20
-162.1110304481157
 30
0.0
 10
102.5060491105742
 20
-161.8769155092435
 30
0.0
 10
104.0618429746435
 20
-161.6587112943213
 30
0.0
 10
105.4898301938942
 20
-161.1852860781523
 30
0.0
 10
106.7207415181244
 20
-160.4777459230199
 30
0.0
 10
107.9675880220326
 20
-159.7594903823876
 30
0.0
 10
109.0918312051595
 20
-158.8019245644071
 30
0.0
 10
110.0720073560538
 20
-157.5889753907141
 30
0.0
 10
111.0739724261331
 20
-156.3706685243292
 30
0.0
 10
112.0434167214405
 20
-154.66822105614
 30
0.0
 10
112.9705840095559
 20
-152.5561536220543
 30
0.0
 10
112.9705840095559
 20
-152.5561536220543
 30
0.0
 10
113.1998554715655
 20
-152.0189231555125
 30
0.0
 10
113.1998554715655
 20
-152.0189231555125
 30
0.0
 10
113.1998554715655
 20
-152.0189231555125
 30
0.0
 10
117.1852764170688
 20
-152.0189231555125
 30
0.0
 10
117.1852764170688
 20
-152.0189231555125
 30
0.0
 10
117.1852764170688
 20
-152.0189231555125
 30
0.0
 10
113.2105873271882
 20
-170.8995948528267
 30
0.0
 10
113.2105873271882
 20
-170.8995948528267
 30
0.0
  0
SPLINE
  5
86
330
7D
100
AcDbEntity
  8
Capa 1
 62
    18
420
    65793
370
    35
100
AcDbSpline
210
0.0
220
0.0
230
1.0
 70
    11
 71
     3
 72
    47
 73
    43
 74
     0
 42
0.0000000001
 43
0.0000000001
 40
0.0
 40
0.0
 40
0.0
 40
0.0
 40
1.0
 40
1.0
 40
1.0
 40
2.0
 40
2.0
 40
2.0
 40
3.0
 40
3.0
 40
3.0
 40
4.0
 40
4.0
 40
4.0
 40
5.0
 40
5.0
 40
5.0
 40
6.0
 40
6.0
 40
6.0
 40
7.0
 40
7.0
 40
7.0
 40
8.0
 40
8.0
 40
8.0
 40
9.0
 40
9.0
 40
9.0
 40
10.0
 40
10.0
 40
10.0
 40
11.0
 40
11.0
 40
11.0
 40
12.0
 40
12.0
 40
12.0
 40
13.0
 40
13.0
 40
13.0
 40
14.0
 40
14.0
 40
14.0
 40
14.0
 10
141.5267511094873
 20
-116.8161215928629
 30
0.0
 10
141.5267511094873
 20
-116.8161215928629
 30
0.0
 10
147.5421188148246
 20
-116.8161215928629
 30
0.0
 10
147.5421188148246
 20
-116.8161215928629
 30
0.0
 10
150.9255802198218
 20
-116.8161215928629
 30
0.0
 10
154.2875779134915
 20
-116.5022906796781
 30
0.0
 10
157.521768962304
 20
-115.8905395772715
 30
0.0
 10
160.7081544722576
 20
-115.2946991987996
 30
0.0
 10
163.6386014849773
 20
-114.2200759113872
 30
0.0
 10
166.2334341021593
 20
-112.6984911629525
 30
0.0
 10
168.7697293249417
 20
-111.1981748313235
 30
0.0
 10
170.8530101554439
 20
-109.1500750019382
 30
0.0
 10
172.3980721637698
 20
-106.6071191851639
 30
0.0
 10
173.9327275242469
 20
-104.0747163996317
 30
0.0
 10
174.710624456243
 20
-100.8508465373868
 30
0.0
 10
174.710624456243
 20
-97.00970552554409
 30
0.0
 10
174.710624456243
 20
-93.6367943915042
 30
0.0
 10
174.0764693486286
 20
-90.83845521909784
 30
0.0
 10
172.824419520796
 20
-88.69992402982143
 30
0.0
 10
171.5564345132899
 20
-86.54531976217446
 30
0.0
 10
169.8513702931758
 20
-84.83215690842945
 30
0.0
 10
167.7414224273773
 20
-83.62992312032879
 30
0.0
 10
165.5992789946604
 20
-82.39034783718251
 30
0.0
 10
163.1111145185482
 20
-81.52840871753596
 30
0.0
 10
160.35107636554
 20
-81.07089422526446
 30
0.0
 10
157.521768962304
 20
-80.60282670182262
 30
0.0
 10
154.61798898495
 20
-80.37406945573081
 30
0.0
 10
151.7142090075254
 20
-80.37406945573081
 30
0.0
 10
151.7142090075254
 20
-80.37406945573081
 30
0.0
 10
148.8367708576206
 20
-80.37406945573081
 30
0.0
 10
148.8367708576206
 20
-80.37406945573081
 30
0.0
 10
147.9044002455827
 20
-80.37406945573081
 30
0.0
 10
146.9238988869132
 20
-80.41660628929077
 30
0.0
 10
145.8955919893077
 20
-80.50703764915331
 30
0.0
 10
144.931351017969
 20
-80.59211131627455
 30
0.0
 10
144.0308507651486
 20
-80.81031553116075
 30
0.0
 10
143.2103516181852
 20
-81.1666832779408
 30
0.0
 10
142.5283909717914
 20
-81.44869274314322
 30
0.0
 10
141.9742369699402
 20
-81.81041818270115
 30
0.0
 10
141.5267511094873
 20
-82.26793267489439
 30
0.0
 10
141.5267511094873
 20
-82.26793267489439
 30
0.0
 10
141.5267511094873
 20
-116.8161215928629
 30
0.0
 10
141.5267511094873
 20
-116.8161215928629
 30
0.0
  0
SPLINE
  5
87
330
7D
100
AcDbEntity
  8
Capa 1
 62
    18
420
    65793
370
    35
100
AcDbSpline
210
0.0
220
0.0
230
1.0
 70
    11
 71
     3
 72
   146
 73
   142
 74
     0
 42
0.0000000001
 43
0.0000000001
 40
0.0
 40
0.0
 40
0.0
 40
0.0
 40
1.0
 40
1.0
 40
1.0
 40
2.0
 40
2.0
 40
2.0
 40
3.0
 40
3.0
 40
3.0
 40
4.0
 40
4.0
 40
4.0
 40
5.0
 40
5.0
 40
5.0
 40
6.0
 40
6.0
 40
6.0
 40
7.0
 40
7.0
 40
7.0
 40
8.0
 40
8.0
 40
8.0
 40
9.0
 40
9.0
 40
9.0
 40
10.0
 40
10.0
 40
10.0
 40
11.0
 40
11.0
 40
11.0
 40
12.0
 40
12.0
 40
12.0
 40
13.0
 40
13.0
 40
13.0
 40
14.0
 40
14.0
 40
14.0
 40
15.0
 40
15.0
 40
15.0
 40
16.0
 40
16.0
 40
16.0
 40
17.0
 40
17.0
 40
17.0
 40
18.0
 40
18.0
 40
18.0
 40
19.0
 40
19.0
 40
19.0
 40
20.0
 40
20.0
 40
20.0
 40
21.0
 40
21.0
 40
21.0
 40
22.0
 40
22.0
 40
22.0
 40
23.0
 40
23.0
 40
23.0
 40
24.0
 40
24.0
 40
24.0
 40
25.0
 40
25.0
 40
25.0
 40
26.0
 40
26.0
 40
26.0
 40
27.0
 40
27.0
 40
27.0
 40
28.0
 40
28.0
 40
28.0
 40
29.0
 40
29.0
 40
29.0
 40
30.0
 40
30.0
 40
30.0
 40
31.0
 40
31.0
 40
31.0
 40
32.0
 40
32.0
 40
32.0
 40
33.0
 40
33.0
 40
33.0
 40
34.0
 40
34.0
 40
34.0
 40
35.0
 40
35.0
 40
35.0
 40
36.0
 40
36.0
 40
36.0
 40
37.0
 40
37.0
 40
37.0
 40
38.0
 40
38.0
 40
38.0
 40
39.0
 40
39.0
 40
39.0
 40
40.0
 40
40.0
 40
40.0
 40
41.0
 40
41.0
 40
41.0
 40
42.0
 40
42.0
 40
42.0
 40
43.0
 40
43.0
 40
43.0
 40
44.0
 40
44.0
 40
44.0
 40
45.0
 40
45.0
 40
45.0
 40
46.0
 40
46.0
 40
46.0
 40
47.0
 40
47.0
 40
47.0
 40
47.0
 10
201.9698630591899
 20
-170.8995948528267
 30
0.0
 10
201.9698630591899
 20
-170.8995948528267
 30
0.0
 10
184.3865305674897
 20
-170.8995948528267
 30
0.0
 10
184.3865305674897
 20
-170.8995948528267
 30
0.0
 10
184.3865305674897
 20
-170.8995948528267
 30
0.0
 10
184.1523809892881
 20
-170.3782751103198
 30
0.0
 10
184.1523809892881
 20
-170.3782751103198
 30
0.0
 10
181.8609672004532
 20
-165.3508110343884
 30
0.0
 10
179.5539434397226
 20
-160.7490400027147
 30
0.0
 10
177.2787900382506
 20
-156.7216785783398
 30
0.0
 10
175.0036366367427
 20
-152.7157479250475
 30
0.0
 10
172.4995369810006
 20
-148.9012330228155
 30
0.0
 10
169.8621021488076
 20
-145.4007113880595
 30
0.0
 10
167.2032036052484
 20
-141.8948320605698
 30
0.0
 10
164.2672280608593
 20
-138.5006525097342
 30
0.0
 10
161.1556403327926
 20
-135.28197798596
 30
0.0
 10
158.0651911083605
 20
-132.1111979883675
 30
0.0
 10
154.5327845550962
 20
-128.7756283494611
 30
0.0
 10
150.6644383985512
 20
-125.3494649963142
 30
0.0
 10
150.6644383985512
 20
-125.3494649963142
 30
0.0
 10
141.5267511094873
 20
-125.4825955440785
 30
0.0
 10
141.5267511094873
 20
-125.4825955440785
 30
0.0
 10
141.5267511094873
 20
-125.4825955440785
 30
0.0
 10
141.5267511094873
 20
-161.5257431009418
 30
0.0
 10
141.5267511094873
 20
-161.5257431009418
 30
0.0
 10
141.5267511094873
 20
-163.0950600212942
 30
0.0
 10
141.6223621871963
 20
-164.3453506900682
 30
0.0
 10
141.7930962546432
 20
-165.2391112577337
 30
0.0
 10
141.9527732586086
 20
-166.0158143559538
 30
0.0
 10
142.2031832242963
 20
-166.5850286247991
 30
0.0
 10
142.5443261513404
 20
-166.9308433403306
 30
0.0
 10
142.8851438706927
 20
-167.2607473318702
 30
0.0
 10
143.428891224527
 20
-167.4734314997227
 30
0.0
 10
144.1693892656028
 20
-167.547952135594
 30
0.0
 10
145.085824698053
 20
-167.6383834955361
 30
0.0
 10
146.3060041666963
 20
-167.6862780217957
 30
0.0
 10
147.8299276714275
 20
-167.6862780217957
 30
0.0
 10
147.8299276714275
 20
-167.6862780217957
 30
0.0
 10
148.7196960685378
 20
-167.6862780217957
 30
0.0
 10
148.7196960685378
 20
-167.6862780217957
 30
0.0
 10
148.7196960685378
 20
-167.6862780217957
 30
0.0
 10
148.7196960685378
 20
-170.8995948528267
 30
0.0
 10
148.7196960685378
 20
-170.8995948528267
 30
0.0
 10
148.7196960685378
 20
-170.8995948528267
 30
0.0
 10
120.7358946042759
 20
-170.8995948528267
 30
0.0
 10
120.7358946042759
 20
-170.8995948528267
 30
0.0
 10
120.7358946042759
 20
-170.8995948528267
 30
0.0
 10
120.7358946042759
 20
-167.6862780217957
 30
0.0
 10
120.7358946042759
 20
-167.6862780217957
 30
0.0
 10
120.7358946042759
 20
-167.6862780217957
 30
0.0
 10
121.6363948570899
 20
-167.6862780217957
 30
0.0
 10
121.6363948570899
 20
-167.6862780217957
 30
0.0
 10
123.011048005703
 20
-167.6862780217957
 30
0.0
 10
124.1567549001628
 20
-167.6065620474819
 30
0.0
 10
125.0198562620191
 20
-167.4787891925365
 30
0.0
 10
125.7392157994925
 20
-167.3670894157964
 30
0.0
 10
126.2826379455977
 20
-167.1383321696693
 30
0.0
 10
126.6130490170499
 20
-166.7978751469511
 30
0.0
 10
126.9538667364008
 20
-166.4467027386058
 30
0.0
 10
127.1938700540357
 20
-165.9200253032761
 30
0.0
 10
127.3002129874123
 20
-165.2017697626014
 30
0.0
 10
127.4280196322796
 20
-164.3453506900682
 30
0.0
 10
127.5028174141589
 20
-163.1057754068859
 30
0.0
 10
127.5028174141589
 20
-161.5257431009418
 30
0.0
 10
127.5028174141589
 20
-161.5257431009418
 30
0.0
 10
127.5028174141589
 20
-81.20402477303006
 30
0.0
 10
127.5028174141589
 20
-81.20402477303006
 30
0.0
 10
127.5028174141589
 20
-79.71961916542176
 30
0.0
 10
127.4280196322796
 20
-78.50666999177207
 30
0.0
 10
127.3002129874123
 20
-77.59164100730764
 30
0.0
 10
127.1883415223739
 20
-76.83084863315126
 30
0.0
 10
126.9538667364008
 20
-76.28290278102491
 30
0.0
 10
126.6130490170499
 20
-75.93708806549376
 30
0.0
 10
126.2719060898876
 20
-75.6019887354754
 30
0.0
 10
125.7336872677934
 20
-75.37323148933869
 30
0.0
 10
125.0198562620191
 20
-75.25617401994202
 30
0.0
 10
124.1567549001628
 20
-75.11784813371211
 30
0.0
 10
123.011048005703
 20
-75.04332749779777
 30
0.0
 10
121.6363948570899
 20
-75.04332749779777
 30
0.0
 10
121.6363948570899
 20
-75.04332749779777
 30
0.0
 10
120.7358946042759
 20
-75.04332749779777
 30
0.0
 10
120.7358946042759
 20
-75.04332749779777
 30
0.0
 10
120.7358946042759
 20
-75.04332749779777
 30
0.0
 10
120.7358946042759
 20
-71.83536835953765
 30
0.0
 10
120.7358946042759
 20
-71.83536835953765
 30
0.0
 10
120.7358946042759
 20
-71.83536835953765
 30
0.0
 10
156.0300410244874
 20
-71.83536835953765
 30
0.0
 10
156.0300410244874
 20
-71.83536835953765
 30
0.0
 10
160.2873356470113
 20
-71.83536835953765
 30
0.0
 10
164.4538973079785
 20
-72.30359823731489
 30
0.0
 10
168.3967160386313
 20
-73.2291802529846
 30
0.0
 10
172.366201804551
 20
-74.14956693017654
 30
0.0
 10
175.9308039248157
 20
-75.67115167853294
 30
0.0
 10
178.989057582282
 20
-77.73532458632185
 30
0.0
 10
182.0583683032401
 20
-79.81540821805447
 30
0.0
 10
184.5572646349751
 20
-82.57656824967199
 30
0.0
 10
186.3901354998717
 20
-85.95467472221692
 30
0.0
 10
188.2337382203142
 20
-89.32222816347795
 30
0.0
 10
189.1661088323982
 20
-93.53045230762161
 30
0.0
 10
189.1661088323982
 20
-98.44621660689249
 30
0.0
 10
189.1661088323982
 20
-102.2126746284441
 30
0.0
 10
188.4519526189231
 20
-105.5537643145071
 30
0.0
 10
187.0561609667126
 20
-108.3946403204814
 30
0.0
 10
185.6600441067243
 20
-111.2355163264128
 30
0.0
 10
183.7419688119777
 20
-113.6560569809323
 30
0.0
 10
181.3549439453133
 20
-115.5979770808134
 30
0.0
 10
178.989057582282
 20
-117.5025556855264
 30
0.0
 10
176.2452798166816
 20
-119.0772302987266
 30
0.0
 10
173.1922294831776
 20
-120.2530003315945
 30
0.0
 10
170.7463420142586
 20
-121.1998507640269
 30
0.0
 10
168.1996401436185
 20
-121.9288216902086
 30
0.0
 10
165.5781404910285
 20
-122.4288730160388
 30
0.0
 10
167.6988202124485
 20
-124.2163941513127
 30
0.0
 10
169.4890888624215
 20
-125.7964264572925
 30
0.0
 10
170.8956123703727
 20
-127.121075407645
 30
0.0
 10
172.6325469497415
 20
-128.7543599326619
 30
0.0
 10
174.1779341658478
 20
-130.350302962669
 30
0.0
 10
175.4833180642769
 20
-131.83990390875
 30
0.0
 10
176.7887019627458
 20
-133.3455779331992
 30
0.0
 10
178.0726221499126
 20
-134.8830734056187
 30
0.0
 10
179.3354038334129
 20
-136.479016435547
 30
0.0
 10
180.5715184816193
 20
-138.0590487415334
 30
0.0
 10
182.0583683032401
 20
-139.8944644031805
 30
0.0
 10
183.7793677028583
 20
-142.0011741444524
 30
0.0
 10
185.7293133569161
 20
-144.4324301845663
 30
0.0
 10
187.5943797887748
 20
-147.1989479089257
 30
0.0
 10
189.3313143682629
 20
-150.2365973586375
 30
0.0
 10
191.063045623631
 20
-153.2690514699517
 30
0.0
 10
192.6666450265605
 20
-156.0940167518553
 30
0.0
 10
194.1586981719856
 20
-158.7220462357213
 30
0.0
 10
195.607823894867
 20
-161.318254271569
 30
0.0
 10
196.9880055751817
 20
-163.5420214822729
 30
0.0
 10
198.2185916917212
 20
-165.3400956488814
 30
0.0
 10
199.2683623006955
 20
-166.8723957828224
 30
0.0
 10
200.2540669833722
 20
-167.6862780217957
 30
0.0
 10
201.0852979859225
 20
-167.6862780217957
 30
0.0
 10
201.0852979859225
 20
-167.6862780217957
 30
0.0
 10
201.9698630591899
 20
-167.6862780217957
 30
0.0
 10
201.9698630591899
 20
-167.6862780217957
 30
0.0
 10
201.9698630591899
 20
-167.6862780217957
 30
0.0
 10
201.9698630591899
 20
-170.8995948528267
 30
0.0
 10
201.9698630591899
 20
-170.8995948528267
 30
0.0
  0
SPLINE
  5
88
330
7D
100
AcDbEntity
  8
Capa 1
 62
    18
420
    65793
370
    35
100
AcDbSpline
210
0.0
220
0.0
230
1.0
 70
     9
 71
     3
 72
    53
 73
    49
 74
     0
 42
0.0000000001
 43
0.0000000001
 40
0.0
 40
0.0
 40
0.0
 40
0.0
 40
1.0
 40
1.0
 40
1.0
 40
2.0
 40
2.0
 40
2.0
 40
3.0
 40
3.0
 40
3.0
 40
4.0
 40
4.0
 40
4.0
 40
5.0
 40
5.0
 40
5.0
 40
6.0
 40
6.0
 40
6.0
 40
7.0
 40
7.0
 40
7.0
 40
8.0
 40
8.0
 40
8.0
 40
9.0
 40
9.0
 40
9.0
 40
10.0
 40
10.0
 40
10.0
 40
11.0
 40
11.0
 40
11.0
 40
12.0
 40
12.0
 40
12.0
 40
13.0
 40
13.0
 40
13.0
 40
14.0
 40
14.0
 40
14.0
 40
15.0
 40
15.0
 40
15.0
 40
16.0
 40
16.0
 40
16.0
 40
16.0
 10
243.5434458758253
 20
-78.49546754323803
 30
0.0
 10
237.7036903540103
 20
-78.49546754323803
 30
0.0
 10
232.7377680496757
 20
-79.8042057695214
 30
0.0
 10
228.7786889318191
 20
-82.37378769583628
 30
0.0
 10
224.7825361304812
 20
-84.98071111723238
 30
0.0
 10
221.4790758314101
 20
-88.3641752825555
 30
0.0
 10
218.9749761756667
 20
-92.44462657163314
 30
0.0
 10
216.443884276971
 20
-96.5570616631447
 30
0.0
 10
214.5950782324431
 20
-101.2120849139617
 30
0.0
 10
213.4656317253924
 20
-106.2608174066121
 30
0.0
 10
212.3306566866028
 20
-111.3413713473174
 30
0.0
 10
211.7605675052385
 20
-116.4485513975851
 30
0.0
 10
211.7605675052385
 20
-121.4388363326914
 30
0.0
 10
211.7605675052385
 20
-126.4343166062684
 30
0.0
 10
212.3306566866028
 20
-131.5734804588545
 30
0.0
 10
213.4656317253924
 20
-136.6913758946774
 30
0.0
 10
214.5950782324431
 20
-141.7931982521729
 30
0.0
 10
216.4386809530434
 20
-146.4376684717491
 30
0.0
 10
218.9642443200451
 20
-150.502046682579
 30
0.0
 10
221.4790758314101
 20
-154.5347657996972
 30
0.0
 10
224.7825361304812
 20
-157.8810508242372
 30
0.0
 10
228.7575504281409
 20
-160.4240066409686
 30
0.0
 10
232.7218328702075
 20
-162.9562470721159
 30
0.0
 10
237.6929584983888
 20
-164.2383591888652
 30
0.0
 10
243.5434458758253
 20
-164.2383591888652
 30
0.0
 10
249.2924684361222
 20
-164.2383591888652
 30
0.0
 10
254.2424555606652
 20
-162.9562470721159
 30
0.0
 10
258.2545435415483
 20
-160.4132912553775
 30
0.0
 10
262.2985018816503
 20
-157.8703354386462
 30
0.0
 10
265.6074907124653
 20
-154.5133350286004
 30
0.0
 10
268.1115903681702
 20
-150.438241432257
 30
0.0
 10
270.6426822669468
 20
-146.3206110023107
 30
0.0
 10
272.4966916354408
 20
-141.6814984755201
 30
0.0
 10
273.6157314945567
 20
-136.6222129515762
 30
0.0
 10
274.7507065333874
 20
-131.5414966565791
 30
0.0
 10
275.325999038633
 20
-126.4236012207563
 30
0.0
 10
275.325999038633
 20
-121.4388363326914
 30
0.0
 10
275.325999038633
 20
-116.549698142997
 30
0.0
 10
274.7344461459783
 20
-111.4637865095202
 30
0.0
 10
273.5464622443714
 20
-106.3351756882709
 30
0.0
 10
272.3688849906543
 20
-101.2279956379895
 30
0.0
 10
270.498615234791
 20
-96.5570616631447
 30
0.0
 10
267.9678485438309
 20
-92.44462657163314
 30
0.0
 10
265.4634236803134
 20
-88.3641752825555
 30
0.0
 10
262.1599633812
 20
-84.98071111723238
 30
0.0
 10
258.1638105799852
 20
-82.37378769583628
 30
0.0
 10
254.1998533457364
 20
-79.8042057695214
 30
0.0
 10
249.2765332564499
 20
-78.49546754323803
 30
0.0
 10
243.5434458758253
 20
-78.49546754323803
 30
0.0
  0
SPLINE
  5
89
330
7D
100
AcDbEntity
  8
Capa 1
 62
    18
420
    65793
370
    35
100
AcDbSpline
210
0.0
220
0.0
230
1.0
 70
     9
 71
     3
 72
    56
 73
    52
 74
     0
 42
0.0000000001
 43
0.0000000001
 40
0.0
 40
0.0
 40
0.0
 40
0.0
 40
1.0
 40
1.0
 40
1.0
 40
2.0
 40
2.0
 40
2.0
 40
3.0
 40
3.0
 40
3.0
 40
4.0
 40
4.0
 40
4.0
 40
5.0
 40
5.0
 40
5.0
 40
6.0
 40
6.0
 40
6.0
 40
7.0
 40
7.0
 40
7.0
 40
8.0
 40
8.0
 40
8.0
 40
9.0
 40
9.0
 40
9.0
 40
10.0
 40
10.0
 40
10.0
 40
11.0
 40
11.0
 40
11.0
 40
12.0
 40
12.0
 40
12.0
 40
13.0
 40
13.0
 40
13.0
 40
14.0
 40
14.0
 40
14.0
 40
15.0
 40
15.0
 40
15.0
 40
16.0
 40
16.0
 40
16.0
 40
17.0
 40
17.0
 40
17.0
 40
17.0
 10
243.5434458758253
 20
-172.6333767060929
 30
0.0
 10
236.0571635284229
 20
-172.6333767060929
 30
0.0
 10
229.3491033208317
 20
-171.2661909222583
 30
0.0
 10
223.5945522288704
 20
-168.5902669120256
 30
0.0
 10
217.8400011369131
 20
-165.9141805475216
 30
0.0
 10
212.922209579332
 20
-162.2008123906938
 30
0.0
 10
208.9738623169314
 20
-157.5777729421881
 30
0.0
 10
205.025840262351
 20
-152.9652865249311
 30
0.0
 10
202.0153921437372
 20
-147.4697549256002
 30
0.0
 10
200.0173157432107
 20
-141.2559677855965
 30
0.0
 10
198.0296459904123
 20
-135.0686444008314
 30
0.0
 10
197.0280061281467
 20
-128.4027004614118
 30
0.0
 10
197.0280061281467
 20
-121.4388363326914
 30
0.0
 10
197.0280061281467
 20
-112.8363299862128
 30
0.0
 10
198.3600570619491
 20
-105.2287309527963
 30
0.0
 10
200.9815567144327
 20
-98.82872340018703
 30
0.0
 10
203.6030563670329
 20
-92.41800046206435
 30
0.0
 10
207.1517233078218
 20
-86.97572108188579
 30
0.0
 10
211.5420278989005
 20
-82.65043946826592
 30
0.0
 10
215.9326576979073
 20
-78.31996251621834
 30
0.0
 10
220.9782559003171
 20
-75.03748274208688
 30
0.0
 10
226.5249992415542
 20
-72.90414689119552
 30
0.0
 10
231.949139262053
 20
-70.80815253544347
 30
0.0
 10
237.5492166739263
 20
-69.7440822792739
 30
0.0
 10
243.1597007337382
 20
-69.7440822792739
 30
0.0
 10
243.1597007337382
 20
-69.7440822792739
 30
0.0
 10
243.5538525237177
 20
-69.74943997205146
 30
0.0
 10
243.5538525237177
 20
-69.74943997205146
 30
0.0
 10
249.2924684361222
 20
-69.79733449834535
 30
0.0
 10
255.0203524926613
 20
-70.90913692659246
 30
0.0
 10
260.5563639783539
 20
-73.04247277743185
 30
0.0
 10
266.113513967527
 20
-75.18116632105104
 30
0.0
 10
271.1594373777506
 20
-78.44237767846539
 30
0.0
 10
275.5390101132387
 20
-82.71440707289572
 30
0.0
 10
279.9296399121684
 20
-87.00754252985472
 30
0.0
 10
283.4835101768874
 20
-92.44462657163314
 30
0.0
 10
286.1050098294812
 20
-98.90324403605774
 30
0.0
 10
288.7265094819647
 20
-105.3509837606701
 30
0.0
 10
290.0585604157312
 20
-112.9321190388449
 30
0.0
 10
290.0585604157312
 20
-121.4388363326914
 30
0.0
 10
290.0585604157312
 20
-128.4027004614118
 30
0.0
 10
289.0195216625004
 20
-135.0527336768467
 30
0.0
 10
286.9895749026319
 20
-141.1920001809385
 30
0.0
 10
284.9488962870957
 20
-147.3526974561618
 30
0.0
 10
281.9169844571529
 20
-152.848229055492
 30
0.0
 10
277.9793690504598
 20
-157.5139676919085
 30
0.0
 10
274.0206151402116
 20
-162.1795439739318
 30
0.0
 10
269.097295050843
 20
-165.9141805475216
 30
0.0
 10
263.3482724905462
 20
-168.5902669120256
 30
0.0
 10
257.5937213986736
 20
-171.2661909222583
 30
0.0
 10
250.9282634059649
 20
-172.6333767060929
 30
0.0
 10
243.5434458758253
 20
-172.6333767060929
 30
0.0
  0
SPLINE
  5
8A
330
7D
100
AcDbEntity
  8
Capa 1
 62
    18
420
    65793
370
    35
100
AcDbSpline
210
0.0
220
0.0
230
1.0
 70
     9
 71
     3
 72
    35
 73
    31
 74
     0
 42
0.0000000001
 43
0.0000000001
 40
0.0
 40
0.0
 40
0.0
 40
0.0
 40
1.0
 40
1.0
 40
1.0
 40
2.0
 40
2.0
 40
2.0
 40
3.0
 40
3.0
 40
3.0
 40
4.0
 40
4.0
 40
4.0
 40
5.0
 40
5.0
 40
5.0
 40
6.0
 40
6.0
 40
6.0
 40
7.0
 40
7.0
 40
7.0
 40
8.0
 40
8.0
 40
8.0
 40
9.0
 40
9.0
 40
9.0
 40
10.0
 40
10.0
 40
10.0
 40
10.0
 10
-50.75623209077904
 20
-208.4260115370025
 30
0.0
 10
-51.77413234045559
 20
-208.95285132671
 30
0.0
 10
-53.92147909714211
 20
-209.4795287620313
 30
0.0
 10
-56.62265464784996
 20
-209.4795287620313
 30
0.0
 10
-62.87802567098504
 20
-209.4795287620313
 30
0.0
 10
-67.56166765040778
 20
-205.5266879735258
 30
0.0
 10
-67.56166765040778
 20
-198.2275621605963
 30
0.0
 10
-67.56166765040778
 20
-191.2477873078841
 30
0.0
 10
-62.85135863564828
 20
-186.5874063642892
 30
0.0
 10
-55.96215771271197
 20
-186.5874063642892
 30
0.0
 10
-53.23398991892381
 20
-186.5874063642892
 30
0.0
 10
-51.45445312458321
 20
-187.1725313571623
 30
0.0
 10
-50.68728804824964
 20
-187.5662405990683
 30
0.0
 10
-50.68728804824964
 20
-187.5662405990683
 30
0.0
 10
-51.41185090969226
 20
-189.9070652792464
 30
0.0
 10
-51.41185090969226
 20
-189.9070652792464
 30
0.0
 10
-52.46682484259826
 20
-189.380387843875
 30
0.0
 10
-54.01741538262058
 20
-188.9813209092349
 30
0.0
 10
-55.86622142722611
 20
-188.9813209092349
 30
0.0
 10
-61.07182184138019
 20
-188.9813209092349
 30
0.0
 10
-64.52975582053534
 20
-192.3063375169693
 30
0.0
 10
-64.52975582053534
 20
-198.1265777694833
 30
0.0
 10
-64.52975582053534
 20
-203.5901255664598
 30
0.0
 10
-61.39670438106208
 20
-207.0375573364054
 30
0.0
 10
-56.02069510727488
 20
-207.0375573364054
 30
0.0
 10
-54.25156496086355
 20
-207.0375573364054
 30
0.0
 10
-52.46682484259826
 20
-206.681189589624
 30
0.0
 10
-51.31591462421153
 20
-206.1225283519124
 30
0.0
 10
-51.31591462421153
 20
-206.1225283519124
 30
0.0
 10
-50.75623209077904
 20
-208.4260115370025
 30
0.0
 10
-50.75623209077904
 20
-208.4260115370025
 30
0.0
  0
LWPOLYLINE
  5
8B
330
7D
100
AcDbEntity
  8
Capa 1
 62
    18
420
    65793
370
    35
100
AcDbPolyline
 90
        4
 70
     1
 43
0.0
 10
-44.26801232047401
 20
-209.1153680076228
 10
-47.1665889738969
 20
-209.1153680076228
 10
-47.1665889738969
 20
-186.9415011505117
 10
-44.26801232047401
 20
-186.9415011505117
  0
SPLINE
  5
8C
330
7D
100
AcDbEntity
  8
Capa 1
 62
    18
420
    65793
370
    35
100
AcDbSpline
210
0.0
220
0.0
230
1.0
 70
    11
 71
     3
 72
    35
 73
    31
 74
     0
 42
0.0000000001
 43
0.0000000001
 40
0.0
 40
0.0
 40
0.0
 40
0.0
 40
1.0
 40
1.0
 40
1.0
 40
2.0
 40
2.0
 40
2.0
 40
3.0
 40
3.0
 40
3.0
 40
4.0
 40
4.0
 40
4.0
 40
5.0
 40
5.0
 40
5.0
 40
6.0
 40
6.0
 40
6.0
 40
7.0
 40
7.0
 40
7.0
 40
8.0
 40
8.0
 40
8.0
 40
9.0
 40
9.0
 40
9.0
 40
10.0
 40
10.0
 40
10.0
 40
10.0
 10
-36.39050505290492
 20
-186.9431246937855
 30
0.0
 10
-36.39050505290492
 20
-186.9431246937855
 30
0.0
 10
-36.39050505290492
 20
-200.1102229312256
 30
0.0
 10
-36.39050505290492
 20
-200.1102229312256
 30
0.0
 10
-36.39050505290492
 20
-205.0365402616687
 30
0.0
 10
-34.18494610935445
 20
-207.1434123573119
 30
0.0
 10
-31.22230352963143
 20
-207.1434123573119
 30
0.0
 10
-27.95624212152854
 20
-207.1434123573119
 30
0.0
 10
-25.81409868880971
 20
-204.9727350113378
 30
0.0
 10
-25.81409868880971
 20
-200.1102229312256
 30
0.0
 10
-25.81409868880971
 20
-200.1102229312256
 30
0.0
 10
-25.81409868880971
 20
-186.9431246937855
 30
0.0
 10
-25.81409868880971
 20
-186.9431246937855
 30
0.0
 10
-25.81409868880971
 20
-186.9431246937855
 30
0.0
 10
-22.92105056704319
 20
-186.9431246937855
 30
0.0
 10
-22.92105056704319
 20
-186.9431246937855
 30
0.0
 10
-22.92105056704319
 20
-186.9431246937855
 30
0.0
 10
-22.92105056704319
 20
-199.9027341018894
 30
0.0
 10
-22.92105056704319
 20
-199.9027341018894
 30
0.0
 10
-22.92105056704319
 20
-206.7177193130947
 30
0.0
 10
-26.5123197226434
 20
-209.4788793447193
 30
0.0
 10
-31.31823981519622
 20
-209.4788793447193
 30
0.0
 10
-35.86301808643315
 20
-209.4788793447193
 30
0.0
 10
-39.28908170629027
 20
-206.9146551112176
 30
0.0
 10
-39.28908170629027
 20
-200.003880847257
 30
0.0
 10
-39.28908170629027
 20
-200.003880847257
 30
0.0
 10
-39.28908170629027
 20
-186.9431246937855
 30
0.0
 10
-39.28908170629027
 20
-186.9431246937855
 30
0.0
 10
-39.28908170629027
 20
-186.9431246937855
 30
0.0
 10
-36.39050505290492
 20
-186.9431246937855
 30
0.0
 10
-36.39050505290492
 20
-186.9431246937855
 30
0.0
  0
SPLINE
  5
8D
330
7D
100
AcDbEntity
  8
Capa 1
 62
    18
420
    65793
370
    35
100
AcDbSpline
210
0.0
220
0.0
230
1.0
 70
     9
 71
     3
 72
    20
 73
    16
 74
     0
 42
0.0000000001
 43
0.0000000001
 40
0.0
 40
0.0
 40
0.0
 40
0.0
 40
1.0
 40
1.0
 40
1.0
 40
2.0
 40
2.0
 40
2.0
 40
3.0
 40
3.0
 40
3.0
 40
4.0
 40
4.0
 40
4.0
 40
5.0
 40
5.0
 40
5.0
 40
5.0
 10
-15.07216158126412
 20
-206.8826713089075
 30
0.0
 10
-14.34759871982279
 20
-206.9784603615409
 30
0.0
 10
-13.29262478695882
 20
-207.0104441638522
 30
0.0
 10
-12.17911345946071
 20
-207.0104441638522
 30
0.0
 10
-6.008946866268609
 20
-207.0104441638522
 30
0.0
 10
-2.721421746868193
 20
-203.5896385034831
 30
0.0
 10
-2.721421746868193
 20
-197.6046086095706
 30
0.0
 10
-2.689551387527497
 20
-192.3696557043518
 30
0.0
 10
-5.646665435547301
 20
-189.0446390965783
 30
0.0
 10
-11.71016388759483
 20
-189.0446390965783
 30
0.0
 10
-13.19148517739683
 20
-189.0446390965783
 30
0.0
 10
-14.31052503659238
 20
-189.1777696443811
 30
0.0
 10
-15.07216158126412
 20
-189.3425592858514
 30
0.0
 10
-15.07216158126412
 20
-189.3425592858514
 30
0.0
 10
-15.07216158126412
 20
-206.8826713089075
 30
0.0
 10
-15.07216158126412
 20
-206.8826713089075
 30
0.0
  0
SPLINE
  5
8E
330
7D
100
AcDbEntity
  8
Capa 1
 62
    18
420
    65793
370
    35
100
AcDbSpline
210
0.0
220
0.0
230
1.0
 70
     9
 71
     3
 72
    26
 73
    22
 74
     0
 42
0.0000000001
 43
0.0000000001
 40
0.0
 40
0.0
 40
0.0
 40
0.0
 40
1.0
 40
1.0
 40
1.0
 40
2.0
 40
2.0
 40
2.0
 40
3.0
 40
3.0
 40
3.0
 40
4.0
 40
4.0
 40
4.0
 40
5.0
 40
5.0
 40
5.0
 40
6.0
 40
6.0
 40
6.0
 40
7.0
 40
7.0
 40
7.0
 40
7.0
 10
-17.93886787542396
 20
-187.2678333468543
 30
0.0
 10
-16.1912014403878
 20
-186.9752708504752
 30
0.0
 10
-14.11312393385039
 20
-186.7783350523151
 30
0.0
 10
-11.8487023880817
 20
-186.7783350523151
 30
0.0
 10
-7.724742942004819
 20
-186.7783350523151
 30
0.0
 10
-4.788767397625615
 20
-187.762526979829
 30
0.0
 10
-2.844025067611875
 20
-189.5394950839756
 30
0.0
 10
-0.835216811340358
 20
-191.3482846360128
 30
0.0
 10
0.3153681993092389
 20
-193.912508869512
 30
0.0
 10
0.3153681993092389
 20
-197.498266525731
 30
0.0
 10
0.3153681993092389
 20
-201.1212033226231
 30
0.0
 10
-0.835216811340358
 20
-204.0844944907579
 30
0.0
 10
-2.881423958572043
 20
-206.1220412889653
 30
0.0
 10
-4.986168500445244
 20
-208.1967672278898
 30
0.0
 10
-8.417435444227699
 20
-209.3139273489405
 30
0.0
 10
-12.73326746126827
 20
-209.3139273489405
 30
0.0
 10
-14.81134496772739
 20
-209.3139273489405
 30
0.0
 10
-16.48974215254162
 20
-209.2129429578306
 30
0.0
 10
-17.93886787542396
 20
-209.0533486547938
 30
0.0
 10
-17.93886787542396
 20
-209.0533486547938
 30
0.0
 10
-17.93886787542396
 20
-187.2678333468543
 30
0.0
 10
-17.93886787542396
 20
-187.2678333468543
 30
0.0
  0
SPLINE
  5
8F
330
7D
100
AcDbEntity
  8
Capa 1
 62
    18
420
    65793
370
    35
100
AcDbSpline
210
0.0
220
0.0
230
1.0
 70
    11
 71
     3
 72
    23
 73
    19
 74
     0
 42
0.0000000001
 43
0.0000000001
 40
0.0
 40
0.0
 40
0.0
 40
0.0
 40
1.0
 40
1.0
 40
1.0
 40
2.0
 40
2.0
 40
2.0
 40
3.0
 40
3.0
 40
3.0
 40
4.0
 40
4.0
 40
4.0
 40
5.0
 40
5.0
 40
5.0
 40
6.0
 40
6.0
 40
6.0
 40
6.0
 10
14.45117335970631
 20
-199.9001364326527
 30
0.0
 10
14.45117335970631
 20
-199.9001364326527
 30
0.0
 10
12.23976067675945
 20
-193.5215596512204
 30
0.0
 10
12.23976067675945
 20
-193.5215596512204
 30
0.0
 10
11.74414406955779
 20
-192.0744955386565
 30
0.0
 10
11.4192615298759
 20
-190.7603996195959
 30
0.0
 10
11.08885045838042
 20
-189.4782875028537
 30
0.0
 10
11.08885045838042
 20
-189.4782875028537
 30
0.0
 10
11.01437788419208
 20
-189.4782875028537
 30
0.0
 10
11.01437788419208
 20
-189.4782875028537
 30
0.0
 10
10.69469866843489
 20
-190.7603996195959
 30
0.0
 10
10.35908427301472
 20
-192.1436584817936
 30
0.0
 10
9.900866556764242
 20
-193.4895758488661
 30
0.0
 10
9.900866556764242
 20
-193.4895758488661
 30
0.0
 10
7.726852764827285
 20
-199.9001364326527
 30
0.0
 10
7.726852764827285
 20
-199.9001364326527
 30
0.0
 10
7.726852764827285
 20
-199.9001364326527
 30
0.0
 10
14.45117335970631
 20
-199.9001364326527
 30
0.0
 10
14.45117335970631
 20
-199.9001364326527
 30
0.0
  0
SPLINE
  5
90
330
7D
100
AcDbEntity
  8
Capa 1
 62
    18
420
    65793
370
    35
100
AcDbSpline
210
0.0
220
0.0
230
1.0
 70
    11
 71
     3
 72
    29
 73
    25
 74
     0
 42
0.0000000001
 43
0.0000000001
 40
0.0
 40
0.0
 40
0.0
 40
0.0
 40
1.0
 40
1.0
 40
1.0
 40
2.0
 40
2.0
 40
2.0
 40
3.0
 40
3.0
 40
3.0
 40
4.0
 40
4.0
 40
4.0
 40
5.0
 40
5.0
 40
5.0
 40
6.0
 40
6.0
 40
6.0
 40
7.0
 40
7.0
 40
7.0
 40
8.0
 40
8.0
 40
8.0
 40
8.0
 10
7.135299872060515
 20
-202.1399767217268
 30
0.0
 10
7.135299872060515
 20
-202.1399767217268
 30
0.0
 10
4.828276111363971
 20
-209.1145562359606
 30
0.0
 10
4.828276111363971
 20
-209.1145562359606
 30
0.0
 10
4.828276111363971
 20
-209.1145562359606
 30
0.0
 10
1.860430207634123
 20
-209.1145562359606
 30
0.0
 10
1.860430207634123
 20
-209.1145562359606
 30
0.0
 10
1.860430207634123
 20
-209.1145562359606
 30
0.0
 10
9.437120308860924
 20
-186.9406893788855
 30
0.0
 10
9.437120308860924
 20
-186.9406893788855
 30
0.0
 10
9.437120308860924
 20
-186.9406893788855
 30
0.0
 10
12.86838725264273
 20
-186.9406893788855
 30
0.0
 10
12.86838725264273
 20
-186.9406893788855
 30
0.0
 10
12.86838725264273
 20
-186.9406893788855
 30
0.0
 10
20.44540256160507
 20
-209.1145562359606
 30
0.0
 10
20.44540256160507
 20
-209.1145562359606
 30
0.0
 10
20.44540256160507
 20
-209.1145562359606
 30
0.0
 10
17.38162037243396
 20
-209.1145562359606
 30
0.0
 10
17.38162037243396
 20
-209.1145562359606
 30
0.0
 10
17.38162037243396
 20
-209.1145562359606
 30
0.0
 10
15.00500215373503
 20
-202.1399767217268
 30
0.0
 10
15.00500215373503
 20
-202.1399767217268
 30
0.0
 10
15.00500215373503
 20
-202.1399767217268
 30
0.0
 10
7.135299872060515
 20
-202.1399767217268
 30
0.0
 10
7.135299872060515
 20
-202.1399767217268
 30
0.0
  0
SPLINE
  5
91
330
7D
100
AcDbEntity
  8
Capa 1
 62
    18
420
    65793
370
    35
100
AcDbSpline
210
0.0
220
0.0
230
1.0
 70
     9
 71
     3
 72
    20
 73
    16
 74
     0
 42
0.0000000001
 43
0.0000000001
 40
0.0
 40
0.0
 40
0.0
 40
0.0
 40
1.0
 40
1.0
 40
1.0
 40
2.0
 40
2.0
 40
2.0
 40
3.0
 40
3.0
 40
3.0
 40
4.0
 40
4.0
 40
4.0
 40
5.0
 40
5.0
 40
5.0
 40
5.0
 10
26.57524339413255
 20
-206.8826713089075
 30
0.0
 10
27.30500957949825
 20
-206.9784603615409
 30
0.0
 10
28.35478018847347
 20
-207.0104441638522
 30
0.0
 10
29.47349483978108
 20
-207.0104441638522
 30
0.0
 10
35.63845810912806
 20
-207.0104441638522
 30
0.0
 10
38.92598322857083
 20
-203.5896385034831
 30
0.0
 10
38.92598322857083
 20
-197.6046086095706
 30
0.0
 10
38.96305691179419
 20
-192.3696557043518
 30
0.0
 10
35.99521100810733
 20
-189.0446390965783
 30
0.0
 10
29.93724108780793
 20
-189.0446390965783
 30
0.0
 10
28.45591979792861
 20
-189.0446390965783
 30
0.0
 10
27.33687993876739
 20
-189.1777696443811
 30
0.0
 10
26.57524339413255
 20
-189.3425592858514
 30
0.0
 10
26.57524339413255
 20
-189.3425592858514
 30
0.0
 10
26.57524339413255
 20
-206.8826713089075
 30
0.0
 10
26.57524339413255
 20
-206.8826713089075
 30
0.0
  0
SPLINE
  5
92
330
7D
100
AcDbEntity
  8
Capa 1
 62
    18
420
    65793
370
    35
100
AcDbSpline
210
0.0
220
0.0
230
1.0
 70
     9
 71
     3
 72
    26
 73
    22
 74
     0
 42
0.0000000001
 43
0.0000000001
 40
0.0
 40
0.0
 40
0.0
 40
0.0
 40
1.0
 40
1.0
 40
1.0
 40
2.0
 40
2.0
 40
2.0
 40
3.0
 40
3.0
 40
3.0
 40
4.0
 40
4.0
 40
4.0
 40
5.0
 40
5.0
 40
5.0
 40
6.0
 40
6.0
 40
6.0
 40
7.0
 40
7.0
 40
7.0
 40
7.0
 10
23.70853709997271
 20
-187.2678333468543
 30
0.0
 10
25.45067500331143
 20
-186.9752708504752
 30
0.0
 10
27.52875250976991
 20
-186.7783350523151
 30
0.0
 10
29.79870258735828
 20
-186.7783350523151
 30
0.0
 10
33.92266203335527
 20
-186.7783350523151
 30
0.0
 10
36.85863757769951
 20
-187.762526979829
 30
0.0
 10
38.80337990779121
 20
-189.5394950839756
 30
0.0
 10
40.81218816398476
 20
-191.3482846360128
 30
0.0
 10
41.95756985074432
 20
-193.912508869512
 30
0.0
 10
41.95756985074432
 20
-197.498266525731
 30
0.0
 10
41.95756985074432
 20
-201.1212033226231
 30
0.0
 10
40.81218816398476
 20
-204.0844944907579
 30
0.0
 10
38.76077769289865
 20
-206.1220412889653
 30
0.0
 10
36.66123647499313
 20
-208.1967672278898
 30
0.0
 10
33.2354980628725
 20
-209.3139273489405
 30
0.0
 10
28.9089341902021
 20
-209.3139273489405
 30
0.0
 10
26.84158853933078
 20
-209.3139273489405
 30
0.0
 10
25.15766282274018
 20
-209.2129429578306
 30
0.0
 10
23.70853709997271
 20
-209.0533486547938
 30
0.0
 10
23.70853709997271
 20
-209.0533486547938
 30
0.0
 10
23.70853709997271
 20
-187.2678333468543
 30
0.0
 10
23.70853709997271
 20
-187.2678333468543
 30
0.0
  0
SPLINE
  5
93
330
7D
100
AcDbEntity
  8
Capa 1
 62
    18
420
    65793
370
    35
100
AcDbSpline
210
0.0
220
0.0
230
1.0
 70
     9
 71
     3
 72
    20
 73
    16
 74
     0
 42
0.0000000001
 43
0.0000000001
 40
0.0
 40
0.0
 40
0.0
 40
0.0
 40
1.0
 40
1.0
 40
1.0
 40
2.0
 40
2.0
 40
2.0
 40
3.0
 40
3.0
 40
3.0
 40
4.0
 40
4.0
 40
4.0
 40
5.0
 40
5.0
 40
5.0
 40
5.0
 10
55.50572461139634
 20
-206.8826713089075
 30
0.0
 10
56.22475894113382
 20
-206.9784603615409
 30
0.0
 10
57.28526140573727
 20
-207.0104441638522
 30
0.0
 10
58.40397605711771
 20
-207.0104441638522
 30
0.0
 10
64.55820747076363
 20
-207.0104441638522
 30
0.0
 10
67.85646444586511
 20
-203.5896385034831
 30
0.0
 10
67.85646444586511
 20
-197.6046086095706
 30
0.0
 10
67.89353812905895
 20
-192.3696557043518
 30
0.0
 10
64.92569222540803
 20
-189.0446390965783
 30
0.0
 10
58.86219377336082
 20
-189.0446390965783
 30
0.0
 10
57.38640101522161
 20
-189.0446390965783
 30
0.0
 10
56.26736115606071
 20
-189.1777696443811
 30
0.0
 10
55.50572461139634
 20
-189.3425592858514
 30
0.0
 10
55.50572461139634
 20
-189.3425592858514
 30
0.0
 10
55.50572461139634
 20
-206.8826713089075
 30
0.0
 10
55.50572461139634
 20
-206.8826713089075
 30
0.0
  0
SPLINE
  5
94
330
7D
100
AcDbEntity
  8
Capa 1
 62
    18
420
    65793
370
    35
100
AcDbSpline
210
0.0
220
0.0
230
1.0
 70
     9
 71
     3
 72
    26
 73
    22
 74
     0
 42
0.0000000001
 43
0.0000000001
 40
0.0
 40
0.0
 40
0.0
 40
0.0
 40
1.0
 40
1.0
 40
1.0
 40
2.0
 40
2.0
 40
2.0
 40
3.0
 40
3.0
 40
3.0
 40
4.0
 40
4.0
 40
4.0
 40
5.0
 40
5.0
 40
5.0
 40
6.0
 40
6.0
 40
6.0
 40
7.0
 40
7.0
 40
7.0
 40
7.0
 10
52.63901831723041
 20
-187.2678333468543
 30
0.0
 10
54.38115622057651
 20
-186.9752708504752
 30
0.0
 10
56.46476225876837
 20
-186.7783350523151
 30
0.0
 10
58.72918380461598
 20
-186.7783350523151
 30
0.0
 10
62.85314325064828
 20
-186.7783350523151
 30
0.0
 10
65.78911879503613
 20
-187.762526979829
 30
0.0
 10
67.7338611250056
 20
-189.5394950839756
 30
0.0
 10
69.73714084961625
 20
-191.3482846360128
 30
0.0
 10
70.88805106800203
 20
-193.912508869512
 30
0.0
 10
70.88805106800203
 20
-197.498266525731
 30
0.0
 10
70.88805106800203
 20
-201.1212033226231
 30
0.0
 10
69.73714084961625
 20
-204.0844944907579
 30
0.0
 10
67.69125891007742
 20
-206.1220412889653
 30
0.0
 10
65.58651436836209
 20
-208.1967672278898
 30
0.0
 10
62.1552474245084
 20
-209.3139273489405
 30
0.0
 10
57.83941540745948
 20
-209.3139273489405
 30
0.0
 10
55.76654122489104
 20
-209.3139273489405
 30
0.0
 10
54.08294071615245
 20
-209.2129429578306
 30
0.0
 10
52.63901831723041
 20
-209.0533486547938
 30
0.0
 10
52.63901831723041
 20
-209.0533486547938
 30
0.0
 10
52.63901831723041
 20
-187.2678333468543
 30
0.0
 10
52.63901831723041
 20
-187.2678333468543
 30
0.0
  0
LWPOLYLINE
  5
95
330
7D
100
AcDbEntity
  8
Capa 1
 62
    18
420
    65793
370
    35
100
AcDbPolyline
 90
       12
 70
     1
 43
0.0
 10
86.04891104856974
 20
-198.7157616204954
 10
77.4491173737061
 20
-198.7157616204954
 10
77.4491173737061
 20
-206.7172322501103
 10
87.06648609050276
 20
-206.7172322501103
 10
87.06648609050276
 20
-209.1165044878846
 10
74.5505407203217
 20
-209.1165044878846
 10
74.5505407203217
 20
-186.9426376307658
 10
86.58160133900215
 20
-186.9426376307658
 10
86.58160133900215
 20
-189.3419098685323
 10
77.4491173737061
 20
-189.3419098685323
 10
77.4491173737061
 20
-196.3538308778618
 10
86.04891104856974
 20
-196.3538308778618
  0
SPLINE
  5
96
330
7D
100
AcDbEntity
  8
Capa 1
 62
    18
420
    65793
370
    35
100
AcDbSpline
210
0.0
220
0.0
230
1.0
 70
     9
 71
     3
 72
    71
 73
    67
 74
     0
 42
0.0000000001
 43
0.0000000001
 40
0.0
 40
0.0
 40
0.0
 40
0.0
 40
1.0
 40
1.0
 40
1.0
 40
2.0
 40
2.0
 40
2.0
 40
3.0
 40
3.0
 40
3.0
 40
4.0
 40
4.0
 40
4.0
 40
5.0
 40
5.0
 40
5.0
 40
6.0
 40
6.0
 40
6.0
 40
7.0
 40
7.0
 40
7.0
 40
8.0
 40
8.0
 40
8.0
 40
9.0
 40
9.0
 40
9.0
 40
10.0
 40
10.0
 40
10.0
 40
11.0
 40
11.0
 40
11.0
 40
12.0
 40
12.0
 40
12.0
 40
13.0
 40
13.0
 40
13.0
 40
14.0
 40
14.0
 40
14.0
 40
15.0
 40
15.0
 40
15.0
 40
16.0
 40
16.0
 40
16.0
 40
17.0
 40
17.0
 40
17.0
 40
18.0
 40
18.0
 40
18.0
 40
19.0
 40
19.0
 40
19.0
 40
20.0
 40
20.0
 40
20.0
 40
21.0
 40
21.0
 40
21.0
 40
22.0
 40
22.0
 40
22.0
 40
22.0
 10
116.4886814219462
 20
-199.3807649420178
 30
0.0
 10
116.3286792102003
 20
-196.284667934717
 30
0.0
 10
116.131603315231
 20
-192.5339582828083
 30
0.0
 10
116.131603315231
 20
-189.8047820535381
 30
0.0
 10
116.131603315231
 20
-189.8047820535381
 30
0.0
 10
116.0623340649289
 20
-189.8047820535381
 30
0.0
 10
116.0623340649289
 20
-189.8047820535381
 30
0.0
 10
115.268501953376
 20
-192.37436397981
 30
0.0
 10
114.3784083484544
 20
-195.1673454594022
 30
0.0
 10
113.2648970210285
 20
-198.2264256802557
 30
0.0
 10
113.2648970210285
 20
-198.2264256802557
 30
0.0
 10
109.3380134700441
 20
-208.9835362944171
 30
0.0
 10
109.3380134700441
 20
-208.9835362944171
 30
0.0
 10
109.3380134700441
 20
-208.9835362944171
 30
0.0
 10
107.1643248857207
 20
-208.9835362944171
 30
0.0
 10
107.1643248857207
 20
-208.9835362944171
 30
0.0
 10
107.1643248857207
 20
-208.9835362944171
 30
0.0
 10
103.5408601631592
 20
-198.4231991240374
 30
0.0
 10
103.5408601631592
 20
-198.4231991240374
 30
0.0
 10
102.4858862302586
 20
-195.2684922048564
 30
0.0
 10
101.6335167240764
 20
-192.438169230132
 30
0.0
 10
101.0048901481941
 20
-189.8047820535381
 30
0.0
 10
101.0048901481941
 20
-189.8047820535381
 30
0.0
 10
100.9408242218904
 20
-189.8047820535381
 30
0.0
 10
100.9408242218904
 20
-189.8047820535381
 30
0.0
 10
100.8663516476652
 20
-192.5659420851556
 30
0.0
 10
100.7063494359177
 20
-196.2473264396284
 30
0.0
 10
100.5144768649899
 20
-199.6043268497191
 30
0.0
 10
100.5144768649899
 20
-199.6043268497191
 30
0.0
 10
99.92324918003765
 20
-209.1165044878846
 30
0.0
 10
99.92324918003765
 20
-209.1165044878846
 30
0.0
 10
99.92324918003765
 20
-209.1165044878846
 30
0.0
 10
97.1843495306264
 20
-209.1165044878846
 30
0.0
 10
97.1843495306264
 20
-209.1165044878846
 30
0.0
 10
97.1843495306264
 20
-209.1165044878846
 30
0.0
 10
98.73494007064872
 20
-186.9426376307658
 30
0.0
 10
98.73494007064872
 20
-186.9426376307658
 30
0.0
 10
98.73494007064872
 20
-186.9426376307658
 30
0.0
 10
102.3899499447801
 20
-186.9426376307658
 30
0.0
 10
102.3899499447801
 20
-186.9426376307658
 30
0.0
 10
102.3899499447801
 20
-186.9426376307658
 30
0.0
 10
106.173091671346
 20
-197.66776444258
 30
0.0
 10
106.173091671346
 20
-197.66776444258
 30
0.0
 10
107.100258959504
 20
-200.3969406719291
 30
0.0
 10
107.8303503526069
 20
-202.8281967119634
 30
0.0
 10
108.4163747135905
 20
-205.1370375898315
 30
0.0
 10
108.4163747135905
 20
-205.1370375898315
 30
0.0
 10
108.4856439638195
 20
-205.1370375898315
 30
0.0
 10
108.4856439638195
 20
-205.1370375898315
 30
0.0
 10
109.0768716486926
 20
-202.8920019622514
 30
0.0
 10
109.8655004364
 20
-200.4607459222094
 30
0.0
 10
110.8567336507694
 20
-197.66776444258
 30
0.0
 10
110.8567336507694
 20
-197.66776444258
 30
0.0
 10
114.8154875610585
 20
-186.9426376307658
 30
0.0
 10
114.8154875610585
 20
-186.9426376307658
 30
0.0
 10
114.8154875610585
 20
-186.9426376307658
 30
0.0
 10
118.4652941112566
 20
-186.9426376307658
 30
0.0
 10
118.4652941112566
 20
-186.9426376307658
 30
0.0
 10
118.4652941112566
 20
-186.9426376307658
 30
0.0
 10
119.8558824395831
 20
-209.1165044878846
 30
0.0
 10
119.8558824395831
 20
-209.1165044878846
 30
0.0
 10
119.8558824395831
 20
-209.1165044878846
 30
0.0
 10
117.0213717123016
 20
-209.1165044878846
 30
0.0
 10
117.0213717123016
 20
-209.1165044878846
 30
0.0
 10
117.0213717123016
 20
-209.1165044878846
 30
0.0
 10
116.4886814219462
 20
-199.3807649420178
 30
0.0
 10
116.4886814219462
 20
-199.3807649420178
 30
0.0
  0
SPLINE
  5
97
330
7D
100
AcDbEntity
  8
Capa 1
 62
    18
420
    65793
370
    35
100
AcDbSpline
210
0.0
220
0.0
230
1.0
 70
    11
 71
     3
 72
    17
 73
    13
 74
     0
 42
0.0000000001
 43
0.0000000001
 40
0.0
 40
0.0
 40
0.0
 40
0.0
 40
1.0
 40
1.0
 40
1.0
 40
2.0
 40
2.0
 40
2.0
 40
3.0
 40
3.0
 40
3.0
 40
4.0
 40
4.0
 40
4.0
 40
4.0
 10
135.2102410297989
 20
-181.9088417361879
 30
0.0
 10
135.2102410297989
 20
-181.9088417361879
 30
0.0
 10
130.9848167666106
 20
-185.7553404407312
 30
0.0
 10
130.9848167666106
 20
-185.7553404407312
 30
0.0
 10
130.9848167666106
 20
-185.7553404407312
 30
0.0
 10
128.6511259705401
 20
-185.7553404407312
 30
0.0
 10
128.6511259705401
 20
-185.7553404407312
 30
0.0
 10
128.6511259705401
 20
-185.7553404407312
 30
0.0
 10
131.7149081597118
 20
-181.9088417361879
 30
0.0
 10
131.7149081597118
 20
-181.9088417361879
 30
0.0
 10
131.7149081597118
 20
-181.9088417361879
 30
0.0
 10
135.2102410297989
 20
-181.9088417361879
 30
0.0
 10
135.2102410297989
 20
-181.9088417361879
 30
0.0
  0
SPLINE
  5
98
330
7D
100
AcDbEntity
  8
Capa 1
 62
    18
420
    65793
370
    35
100
AcDbSpline
210
0.0
220
0.0
230
1.0
 70
    11
 71
     3
 72
    41
 73
    37
 74
     0
 42
0.0000000001
 43
0.0000000001
 40
0.0
 40
0.0
 40
0.0
 40
0.0
 40
1.0
 40
1.0
 40
1.0
 40
2.0
 40
2.0
 40
2.0
 40
3.0
 40
3.0
 40
3.0
 40
4.0
 40
4.0
 40
4.0
 40
5.0
 40
5.0
 40
5.0
 40
6.0
 40
6.0
 40
6.0
 40
7.0
 40
7.0
 40
7.0
 40
8.0
 40
8.0
 40
8.0
 40
9.0
 40
9.0
 40
9.0
 40
10.0
 40
10.0
 40
10.0
 40
11.0
 40
11.0
 40
11.0
 40
12.0
 40
12.0
 40
12.0
 40
12.0
 10
135.7321994646432
 20
-198.7149498488769
 30
0.0
 10
135.7321994646432
 20
-198.7149498488769
 30
0.0
 10
127.1324057897353
 20
-198.7149498488769
 30
0.0
 10
127.1324057897353
 20
-198.7149498488769
 30
0.0
 10
127.1324057897353
 20
-198.7149498488769
 30
0.0
 10
127.1324057897353
 20
-206.7162581241564
 30
0.0
 10
127.1324057897353
 20
-206.7162581241564
 30
0.0
 10
127.1324057897353
 20
-206.7162581241564
 30
0.0
 10
136.760506362164
 20
-206.7162581241564
 30
0.0
 10
136.760506362164
 20
-206.7162581241564
 30
0.0
 10
136.760506362164
 20
-206.7162581241564
 30
0.0
 10
136.760506362164
 20
-209.1155303618863
 30
0.0
 10
136.760506362164
 20
-209.1155303618863
 30
0.0
 10
136.760506362164
 20
-209.1155303618863
 30
0.0
 10
124.228625812353
 20
-209.1155303618863
 30
0.0
 10
124.228625812353
 20
-209.1155303618863
 30
0.0
 10
124.228625812353
 20
-209.1155303618863
 30
0.0
 10
124.228625812353
 20
-186.9416635048465
 30
0.0
 10
124.228625812353
 20
-186.9416635048465
 30
0.0
 10
124.228625812353
 20
-186.9416635048465
 30
0.0
 10
136.2596864310364
 20
-186.9416635048465
 30
0.0
 10
136.2596864310364
 20
-186.9416635048465
 30
0.0
 10
136.2596864310364
 20
-186.9416635048465
 30
0.0
 10
136.2596864310364
 20
-189.3409357425771
 30
0.0
 10
136.2596864310364
 20
-189.3409357425771
 30
0.0
 10
136.2596864310364
 20
-189.3409357425771
 30
0.0
 10
127.1324057897353
 20
-189.3409357425771
 30
0.0
 10
127.1324057897353
 20
-189.3409357425771
 30
0.0
 10
127.1324057897353
 20
-189.3409357425771
 30
0.0
 10
127.1324057897353
 20
-196.3528567518571
 30
0.0
 10
127.1324057897353
 20
-196.3528567518571
 30
0.0
 10
127.1324057897353
 20
-196.3528567518571
 30
0.0
 10
135.7321994646432
 20
-196.3528567518571
 30
0.0
 10
135.7321994646432
 20
-196.3528567518571
 30
0.0
 10
135.7321994646432
 20
-196.3528567518571
 30
0.0
 10
135.7321994646432
 20
-198.7149498488769
 30
0.0
 10
135.7321994646432
 20
-198.7149498488769
 30
0.0
  0
SPLINE
  5
99
330
7D
100
AcDbEntity
  8
Capa 1
 62
    18
420
    65793
370
    35
100
AcDbSpline
210
0.0
220
0.0
230
1.0
 70
    11
 71
     3
 72
    59
 73
    55
 74
     0
 42
0.0000000001
 43
0.0000000001
 40
0.0
 40
0.0
 40
0.0
 40
0.0
 40
1.0
 40
1.0
 40
1.0
 40
2.0
 40
2.0
 40
2.0
 40
3.0
 40
3.0
 40
3.0
 40
4.0
 40
4.0
 40
4.0
 40
5.0
 40
5.0
 40
5.0
 40
6.0
 40
6.0
 40
6.0
 40
7.0
 40
7.0
 40
7.0
 40
8.0
 40
8.0
 40
8.0
 40
9.0
 40
9.0
 40
9.0
 40
10.0
 40
10.0
 40
10.0
 40
11.0
 40
11.0
 40
11.0
 40
12.0
 40
12.0
 40
12.0
 40
13.0
 40
13.0
 40
13.0
 40
14.0
 40
14.0
 40
14.0
 40
15.0
 40
15.0
 40
15.0
 40
16.0
 40
16.0
 40
16.0
 40
17.0
 40
17.0
 40
17.0
 40
18.0
 40
18.0
 40
18.0
 40
18.0
 10
152.6361729716735
 20
-209.1165044878846
 30
0.0
 10
152.6361729716735
 20
-209.1165044878846
 30
0.0
 10
149.7694666775146
 20
-204.2114555742047
 30
0.0
 10
149.7694666775146
 20
-204.2114555742047
 30
0.0
 10
148.6133531351303
 20
-202.3442184645028
 30
0.0
 10
147.9258639569143
 20
-201.1205539053393
 30
0.0
 10
147.2279681307738
 20
-199.8437994813243
 30
0.0
 10
147.2279681307738
 20
-199.8437994813243
 30
0.0
 10
147.1694307362471
 20
-199.8437994813243
 30
0.0
 10
147.1694307362471
 20
-199.8437994813243
 30
0.0
 10
146.5404789526681
 20
-201.1205539053393
 30
0.0
 10
145.8851853413435
 20
-202.3122346622273
 30
0.0
 10
144.7609421583281
 20
-204.2434393764802
 30
0.0
 10
144.7609421583281
 20
-204.2434393764802
 30
0.0
 10
142.0916369668753
 20
-209.1165044878846
 30
0.0
 10
142.0916369668753
 20
-209.1165044878846
 30
0.0
 10
142.0916369668753
 20
-209.1165044878846
 30
0.0
 10
138.7933799917741
 20
-209.1165044878846
 30
0.0
 10
138.7933799917741
 20
-209.1165044878846
 30
0.0
 10
138.7933799917741
 20
-209.1165044878846
 30
0.0
 10
145.5866446291807
 20
-197.8966840430155
 30
0.0
 10
145.5866446291807
 20
-197.8966840430155
 30
0.0
 10
145.5866446291807
 20
-197.8966840430155
 30
0.0
 10
139.0597251369288
 20
-186.9426376307658
 30
0.0
 10
139.0597251369288
 20
-186.9426376307658
 30
0.0
 10
139.0597251369288
 20
-186.9426376307658
 30
0.0
 10
142.3898524712987
 20
-186.9426376307658
 30
0.0
 10
142.3898524712987
 20
-186.9426376307658
 30
0.0
 10
142.3898524712987
 20
-186.9426376307658
 30
0.0
 10
145.3202994840261
 20
-192.1457690880516
 30
0.0
 10
145.3202994840261
 20
-192.1457690880516
 30
0.0
 10
146.1463271626103
 20
-193.5926708462366
 30
0.0
 10
146.7697504145993
 20
-194.7046356287036
 30
0.0
 10
147.36650663126
 20
-195.8909586928547
 30
0.0
 10
147.36650663126
 20
-195.8909586928547
 30
0.0
 10
147.4569143850414
 20
-195.8909586928547
 30
0.0
 10
147.4569143850414
 20
-195.8909586928547
 30
0.0
 10
148.0910694926635
 20
-194.5716674353151
 30
0.0
 10
148.6559553500155
 20
-193.5554917054904
 30
0.0
 10
149.4709259652388
 20
-192.1457690880516
 30
0.0
 10
149.4709259652388
 20
-192.1457690880516
 30
0.0
 10
152.476170759934
 20
-186.9426376307658
 30
0.0
 10
152.476170759934
 20
-186.9426376307658
 30
0.0
 10
152.476170759934
 20
-186.9426376307658
 30
0.0
 10
155.8010947702981
 20
-186.9426376307658
 30
0.0
 10
155.8010947702981
 20
-186.9426376307658
 30
0.0
 10
155.8010947702981
 20
-186.9426376307658
 30
0.0
 10
149.0501071399963
 20
-197.7370897400948
 30
0.0
 10
149.0501071399963
 20
-197.7370897400948
 30
0.0
 10
149.0501071399963
 20
-197.7370897400948
 30
0.0
 10
155.9715036300134
 20
-209.1165044878846
 30
0.0
 10
155.9715036300134
 20
-209.1165044878846
 30
0.0
 10
155.9715036300134
 20
-209.1165044878846
 30
0.0
 10
152.6361729716735
 20
-209.1165044878846
 30
0.0
 10
152.6361729716735
 20
-209.1165044878846
 30
0.0
  0
LWPOLYLINE
  5
9A
330
7D
100
AcDbEntity
  8
Capa 1
 62
    18
420
    65793
370
    35
100
AcDbPolyline
 90
        4
 70
     1
 43
0.0
 10
162.157280195139
 20
-209.1153680076228
 10
159.258703541719
 20
-209.1153680076228
 10
159.258703541719
 20
-186.9415011505117
 10
162.157280195139
 20
-186.9415011505117
  0
SPLINE
  5
9B
330
7D
100
AcDbEntity
  8
Capa 1
 62
    18
420
    65793
370
    35
100
AcDbSpline
210
0.0
220
0.0
230
1.0
 70
     9
 71
     3
 72
    35
 73
    31
 74
     0
 42
0.0000000001
 43
0.0000000001
 40
0.0
 40
0.0
 40
0.0
 40
0.0
 40
1.0
 40
1.0
 40
1.0
 40
2.0
 40
2.0
 40
2.0
 40
3.0
 40
3.0
 40
3.0
 40
4.0
 40
4.0
 40
4.0
 40
5.0
 40
5.0
 40
5.0
 40
6.0
 40
6.0
 40
6.0
 40
7.0
 40
7.0
 40
7.0
 40
8.0
 40
8.0
 40
8.0
 40
9.0
 40
9.0
 40
9.0
 40
10.0
 40
10.0
 40
10.0
 40
10.0
 10
182.6541488965658
 20
-208.4260115370025
 30
0.0
 10
181.6362486469733
 20
-208.95285132671
 30
0.0
 10
179.4889018901312
 20
-209.4795287620313
 30
0.0
 10
176.782197807758
 20
-209.4795287620313
 30
0.0
 10
170.5323553164079
 20
-209.4795287620313
 30
0.0
 10
165.8487133369849
 20
-205.5266879735258
 30
0.0
 10
165.8487133369849
 20
-198.2275621605963
 30
0.0
 10
165.8487133369849
 20
-191.2477873078841
 30
0.0
 10
170.5590223516209
 20
-186.5874063642892
 30
0.0
 10
177.4482232746733
 20
-186.5874063642892
 30
0.0
 10
180.1871229240496
 20
-186.5874063642892
 30
0.0
 10
181.961456394385
 20
-187.1725313571623
 30
0.0
 10
182.7230929390567
 20
-187.5662405990683
 30
0.0
 10
182.7230929390567
 20
-187.5662405990683
 30
0.0
 10
181.993326753691
 20
-189.9070652792464
 30
0.0
 10
181.993326753691
 20
-189.9070652792464
 30
0.0
 10
180.9383528207905
 20
-189.380387843875
 30
0.0
 10
179.392965604688
 20
-188.9813209092349
 30
0.0
 10
177.5441595601601
 20
-188.9813209092349
 30
0.0
 10
172.338559146007
 20
-188.9813209092349
 30
0.0
 10
168.8858284908205
 20
-192.3063375169693
 30
0.0
 10
168.8858284908205
 20
-198.1265777694833
 30
0.0
 10
168.8858284908205
 20
-203.5901255664598
 30
0.0
 10
172.0081480745484
 20
-207.0375573364054
 30
0.0
 10
177.3844825561523
 20
-207.0375573364054
 30
0.0
 10
179.1588160265634
 20
-207.0375573364054
 30
0.0
 10
180.9383528207905
 20
-206.681189589624
 30
0.0
 10
182.0944663631824
 20
-206.1225283519124
 30
0.0
 10
182.0944663631824
 20
-206.1225283519124
 30
0.0
 10
182.6541488965658
 20
-208.4260115370025
 30
0.0
 10
182.6541488965658
 20
-208.4260115370025
 30
0.0
  0
SPLINE
  5
9C
330
7D
100
AcDbEntity
  8
Capa 1
 62
    18
420
    65793
370
    35
100
AcDbSpline
210
0.0
220
0.0
230
1.0
 70
     9
 71
     3
 72
    17
 73
    13
 74
     0
 42
0.0000000001
 43
0.0000000001
 40
0.0
 40
0.0
 40
0.0
 40
0.0
 40
1.0
 40
1.0
 40
1.0
 40
2.0
 40
2.0
 40
2.0
 40
3.0
 40
3.0
 40
3.0
 40
4.0
 40
4.0
 40
4.0
 40
4.0
 10
187.3055953090307
 20
-198.1285260213636
 30
0.0
 10
187.3055953090307
 20
-202.8954114031053
 30
0.0
 10
189.8630290353283
 20
-207.1406523337329
 30
0.0
 10
194.4133358382736
 20
-207.1406523337329
 30
0.0
 10
198.963642641292
 20
-207.1406523337329
 30
0.0
 10
201.5318082232535
 20
-202.9592166534626
 30
0.0
 10
201.5318082232535
 20
-197.9317525775389
 30
0.0
 10
201.5318082232535
 20
-193.4895758488661
 30
0.0
 10
199.2247844624882
 20
-188.8824471244241
 30
0.0
 10
194.4504095215393
 20
-188.8824471244241
 30
0.0
 10
189.6659531403604
 20
-188.8824471244241
 30
0.0
 10
187.3055953090307
 20
-193.2926400507849
 30
0.0
 10
187.3055953090307
 20
-198.1285260213636
 30
0.0
  0
SPLINE
  5
9D
330
7D
100
AcDbEntity
  8
Capa 1
 62
    18
420
    65793
370
    35
100
AcDbSpline
210
0.0
220
0.0
230
1.0
 70
     9
 71
     3
 72
    17
 73
    13
 74
     0
 42
0.0000000001
 43
0.0000000001
 40
0.0
 40
0.0
 40
0.0
 40
0.0
 40
1.0
 40
1.0
 40
1.0
 40
2.0
 40
2.0
 40
2.0
 40
3.0
 40
3.0
 40
3.0
 40
4.0
 40
4.0
 40
4.0
 40
4.0
 10
204.5633948454645
 20
-197.7987843841594
 30
0.0
 10
204.5633948454645
 20
-205.3958303863184
 30
0.0
 10
199.9171517569618
 20
-209.481477013954
 30
0.0
 10
194.2481303025206
 20
-209.481477013954
 30
0.0
 10
188.3443088545261
 20
-209.481477013954
 30
0.0
 10
184.2684801551604
 20
-204.9063320918163
 30
0.0
 10
184.2684801551604
 20
-198.1976889644634
 30
0.0
 10
184.2684801551604
 20
-191.1487511686526
 30
0.0
 10
188.6161825314297
 20
-186.5469801369789
 30
0.0
 10
194.5463458070248
 20
-186.5469801369789
 30
0.0
 10
200.6420398261445
 20
-186.5469801369789
 30
0.0
 10
204.5633948454645
 20
-191.1859303094784
 30
0.0
 10
204.5633948454645
 20
-197.7987843841594
 30
0.0
  0
ENDBLK
  5
80
330
7D
100
AcDbEntity
  8
0
100
AcDbBlockEnd
  0
ENDSEC
  0
SECTION
  2
ENTITIES
  0
INSERT
  5
7A
330
70
100
AcDbEntity
  8
Capa 1
100
AcDbBlockReference
  2
Block_0
 10
0.0
 20
0.0
 30
0.0
  0
ENDSEC
  0
SECTION
  2
OBJECTS
  0
DICTIONARY
  5
C
330
0
100
AcDbDictionary
281
     1
  3
ACAD_COLOR
350
63
  3
ACAD_DETAILVIEWSTYLE
350
6A
  3
ACAD_GROUP
350
D
  3
ACAD_LAYOUT
350
62
  3
ACAD_MATERIAL
350
10
  3
ACAD_MLEADERSTYLE
350
66
  3
ACAD_MLINESTYLE
350
5F
  3
ACAD_PLOTSETTINGS
350
61
  3
ACAD_PLOTSTYLENAME
350
E
  3
ACAD_SCALELIST
350
42
  3
ACAD_SECTIONVIEWSTYLE
350
68
  3
ACAD_TABLESTYLE
350
64
  3
ACAD_VISUALSTYLE
350
29
  3
ACDB_RECOMPOSE_DATA
350
A6
  3
AcDbVariableDictionary
350
9E
  0
DICTIONARY
  5
63
102
{ACAD_REACTORS
330
C
102
}
330
C
100
AcDbDictionary
281
     1
  0
DICTIONARY
  5
6A
102
{ACAD_REACTORS
330
C
102
}
330
C
100
AcDbDictionary
281
     1
  3
Imperial24
350
6B
  0
DICTIONARY
  5
D
102
{ACAD_REACTORS
330
C
102
}
330
C
100
AcDbDictionary
281
     1
  0
DICTIONARY
  5
62
102
{ACAD_REACTORS
330
C
102
}
330
C
100
AcDbDictionary
281
     1
  3
Layout1
350
6F
  3
Layout2
350
77
  3
Model
350
73
  0
DICTIONARY
  5
10
102
{ACAD_REACTORS
330
C
102
}
330
C
100
AcDbDictionary
281
     1
  3
ByBlock
350
19
  3
ByLayer
350
11
  3
Global
350
21
  0
DICTIONARY
  5
66
102
{ACAD_REACTORS
330
C
102
}
330
C
100
AcDbDictionary
281
     1
  3
Standard
350
67
  0
DICTIONARY
  5
5F
102
{ACAD_REACTORS
330
C
102
}
330
C
100
AcDbDictionary
281
     1
  3
Standard
350
60
  0
DICTIONARY
  5
61
102
{ACAD_REACTORS
330
C
102
}
330
C
100
AcDbDictionary
281
     1
  0
ACDBDICTIONARYWDFLT
  5
E
102
{ACAD_REACTORS
330
C
102
}
330
C
100
AcDbDictionary
281
     1
  3
Normal
350
F
100
AcDbDictionaryWithDefault
340
F
  0
DICTIONARY
  5
42
102
{ACAD_REACTORS
330
C
102
}
330
C
100
AcDbDictionary
281
     1
  3
A0
350
43
  3
A1
350
44
  3
A2
350
45
  3
A3
350
46
  3
A4
350
47
  3
A5
350
48
  3
A6
350
49
  3
A7
350
4A
  3
A8
350
4B
  3
A9
350
4C
  3
B0
350
4D
  3
B1
350
4E
  3
B2
350
4F
  3
B3
350
50
  3
B4
350
51
  3
B5
350
52
  3
B6
350
53
  0
DICTIONARY
  5
68
102
{ACAD_REACTORS
330
C
102
}
330
C
100
AcDbDictionary
281
     1
  3
Imperial24
350
69
  0
DICTIONARY
  5
64
102
{ACAD_REACTORS
330
C
102
}
330
C
100
AcDbDictionary
281
     1
  3
Standard
350
65
  0
DICTIONARY
  5
29
102
{ACAD_REACTORS
330
C
102
}
330
C
100
AcDbDictionary
281
     1
  3
2dWireframe
350
2F
  3
Basic
350
2E
  3
Brighten
350
35
  3
ColorChange
350
39
  3
Conceptual
350
32
  3
Dim
350
34
  3
EdgeColorOff
350
41
  3
Facepattern
350
38
  3
Flat
350
2A
  3
FlatWithEdges
350
2B
  3
Gouraud
350
2C
  3
GouraudWithEdges
350
2D
  3
Hidden
350
31
  3
JitterOff
350
3F
  3
Linepattern
350
37
  3
OverhangOff
350
40
  3
Realistic
350
33
  3
Shaded
350
3E
  3
Shaded with edges
350
3D
  3
Shades of Gray
350
3A
  3
Sketchy
350
3B
  3
Thicken
350
36
  3
Wireframe
350
30
  3
X-Ray
350
3C
  0
XRECORD
  5
A6
102
{ACAD_REACTORS
330
C
102
}
330
C
100
AcDbXrecord
280
     1
 90
        1
330
65
  0
DICTIONARY
  5
9E
102
{ACAD_REACTORS
330
C
102
}
330
C
100
AcDbDictionary
281
     1
  3
CANNOSCALE
350
A3
  3
CMLEADERSTYLE
350
A0
  3
CTABLESTYLE
350
9F
  3
CVIEWDETAILSTYLE
350
A1
  3
CVIEWSECTIONSTYLE
350
A2
  0
ACDBDETAILVIEWSTYLE
  5
6B
102
{ACAD_REACTORS
330
6A
102
}
330
6A
100
AcDbModelDocViewStyle
 70
     0
  3
Imperial24
290
     1
300
Imperial24
 90
        0
100
AcDbDetailViewStyle
 70
     0
 71
     0
 90
        3
 71
     1
340
55
 62
   256
 40
0.24
340
0
 62
   256
 40
0.24
300

 40
0.36
280
     3
 71
     2
340
5D
 90
       25
 62
   256
 71
     3
340
55
 62
   256
 40
0.24
 90
        1
 40
0.75
 90
        1
300
%<\AcVar ViewType \f "%tc1">% %<\AcVar ViewDetailId>%\PSCALE %<\AcVar ViewScale \f "%sn">%
 71
     4
340
5D
 90
       25
 62
   256
340
5D
 90
       25
 62
   256
280
     0
  0
LAYOUT
  5
6F
102
{ACAD_REACTORS
330
62
102
}
330
62
100
AcDbPlotSettings
  1

  2

  4

  6

 40
0.0
 41
0.0
 42
0.0
 43
0.0
 44
0.0
 45
0.0
 46
0.0
 47
0.0
 48
0.0
 49
0.0
140
0.0
141
0.0
142
1.0
143
1.0
 70
   688
 72
     0
 73
     0
 74
     5
  7

 75
    16
147
1.0
 76
     0
 77
     2
 78
   300
148
0.0
149
0.0
100
AcDbLayout
  1
Layout1
 70
     1
 71
     1
 10
0.0
 20
0.0
 11
12.0
 21
9.0
 12
0.0
 22
0.0
 32
0.0
 14
0.0
 24
0.0
 34
0.0
 15
0.0
 25
0.0
 35
0.0
146
0.0
 13
0.0
 23
0.0
 33
0.0
 16
1.0
 26
0.0
 36
0.0
 17
0.0
 27
1.0
 37
0.0
 76
     0
330
6C
  0
LAYOUT
  5
77
102
{ACAD_REACTORS
330
62
102
}
330
62
100
AcDbPlotSettings
  1

  2

  4

  6

 40
0.0
 41
0.0
 42
0.0
 43
0.0
 44
0.0
 45
0.0
 46
0.0
 47
0.0
 48
0.0
 49
0.0
140
0.0
141
0.0
142
1.0
143
1.0
 70
   688
 72
     0
 73
     0
 74
     5
  7

 75
    16
147
1.0
 76
     0
 77
     2
 78
   300
148
0.0
149
0.0
100
AcDbLayout
  1
Layout2
 70
     1
 71
     2
 10
0.0
 20
0.0
 11
12.0
 21
9.0
 12
0.0
 22
0.0
 32
0.0
 14
0.0
 24
0.0
 34
0.0
 15
0.0
 25
0.0
 35
0.0
146
0.0
 13
0.0
 23
0.0
 33
0.0
 16
1.0
 26
0.0
 36
0.0
 17
0.0
 27
1.0
 37
0.0
 76
     0
330
74
  0
LAYOUT
  5
73
102
{ACAD_REACTORS
330
62
102
}
330
62
100
AcDbPlotSettings
  1

  2

  4

  6

 40
0.0
 41
0.0
 42
0.0
 43
0.0
 44
0.0
 45
0.0
 46
0.0
 47
0.0
 48
0.0
 49
0.0
140
0.0
141
0.0
142
1.0
143
1.0
 70
  1712
 72
     0
 73
     0
 74
     0
  7

 75
     0
147
1.0
 76
     0
 77
     2
 78
   300
148
0.0
149
0.0
100
AcDbLayout
  1
Model
 70
     1
 71
     0
 10
0.0
 20
0.0
 11
12.0
 21
9.0
 12
0.0
 22
0.0
 32
0.0
 14
0.0
 24
0.0
 34
0.0
 15
0.0
 25
0.0
 35
0.0
146
0.0
 13
0.0
 23
0.0
 33
0.0
 16
1.0
 26
0.0
 36
0.0
 17
0.0
 27
1.0
 37
0.0
 76
     0
330
70
  0
MATERIAL
  5
19
102
{ACAD_XDICTIONARY
360
1A
102
}
102
{ACAD_REACTORS
330
10
102
}
330
10
100
AcDbMaterial
  1
ByBlock
 72
     0
 43
0.0208333333333333
 43
0.0
 43
0.0
 43
0.0
 43
0.0
 43
0.0208333333333333
 43
0.0
 43
0.0
 43
0.0
 43
0.0
 43
1.0
 43
0.0
 43
0.0
 43
0.0
 43
0.0
 43
1.0
 77
     0
 47
0.0208333333333333
 47
0.0
 47
0.0
 47
0.0
 47
0.0
 47
0.0208333333333333
 47
0.0
 47
0.0
 47
0.0
 47
0.0
 47
1.0
 47
0.0
 47
0.0
 47
0.0
 47
0.0
 47
1.0
171
     0
 49
0.0208333333333333
 49
0.0
 49
0.0
 49
0.0
 49
0.0
 49
0.0208333333333333
 49
0.0
 49
0.0
 49
0.0
 49
0.0
 49
1.0
 49
0.0
 49
0.0
 49
0.0
 49
0.0
 49
1.0
175
     0
142
0.0208333333333333
142
0.0
142
0.0
142
0.0
142
0.0
142
0.0208333333333333
142
0.0
142
0.0
142
0.0
142
0.0
142
1.0
142
0.0
142
0.0
142
0.0
142
0.0
142
1.0
179
     0
144
0.0208333333333333
144
0.0
144
0.0
144
0.0
144
0.0
144
0.0208333333333333
144
0.0
144
0.0
144
0.0
144
0.0
144
1.0
144
0.0
144
0.0
144
0.0
144
0.0
144
1.0
147
0.0208333333333333
147
0.0
147
0.0
147
0.0
147
0.0
147
0.0208333333333333
147
0.0
147
0.0
147
0.0
147
0.0
147
1.0
147
0.0
147
0.0
147
0.0
147
0.0
147
1.0
  0
MATERIAL
  5
11
102
{ACAD_XDICTIONARY
360
12
102
}
102
{ACAD_REACTORS
330
10
102
}
330
10
100
AcDbMaterial
  1
ByLayer
 72
     0
 43
0.0208333333333333
 43
0.0
 43
0.0
 43
0.0
 43
0.0
 43
0.0208333333333333
 43
0.0
 43
0.0
 43
0.0
 43
0.0
 43
1.0
 43
0.0
 43
0.0
 43
0.0
 43
0.0
 43
1.0
 77
     0
 47
0.0208333333333333
 47
0.0
 47
0.0
 47
0.0
 47
0.0
 47
0.0208333333333333
 47
0.0
 47
0.0
 47
0.0
 47
0.0
 47
1.0
 47
0.0
 47
0.0
 47
0.0
 47
0.0
 47
1.0
171
     0
 49
0.0208333333333333
 49
0.0
 49
0.0
 49
0.0
 49
0.0
 49
0.0208333333333333
 49
0.0
 49
0.0
 49
0.0
 49
0.0
 49
1.0
 49
0.0
 49
0.0
 49
0.0
 49
0.0
 49
1.0
175
     0
142
0.0208333333333333
142
0.0
142
0.0
142
0.0
142
0.0
142
0.0208333333333333
142
0.0
142
0.0
142
0.0
142
0.0
142
1.0
142
0.0
142
0.0
142
0.0
142
0.0
142
1.0
179
     0
144
0.0208333333333333
144
0.0
144
0.0
144
0.0
144
0.0
144
0.0208333333333333
144
0.0
144
0.0
144
0.0
144
0.0
144
1.0
144
0.0
144
0.0
144
0.0
144
0.0
144
1.0
147
0.0208333333333333
147
0.0
147
0.0
147
0.0
147
0.0
147
0.0208333333333333
147
0.0
147
0.0
147
0.0
147
0.0
147
1.0
147
0.0
147
0.0
147
0.0
147
0.0
147
1.0
  0
MATERIAL
  5
21
102
{ACAD_XDICTIONARY
360
22
102
}
102
{ACAD_REACTORS
330
10
102
}
330
10
100
AcDbMaterial
  1
Global
 72
     0
 43
0.0208333333333333
 43
0.0
 43
0.0
 43
0.0
 43
0.0
 43
0.0208333333333333
 43
0.0
 43
0.0
 43
0.0
 43
0.0
 43
1.0
 43
0.0
 43
0.0
 43
0.0
 43
0.0
 43
1.0
 77
     0
 47
0.0208333333333333
 47
0.0
 47
0.0
 47
0.0
 47
0.0
 47
0.0208333333333333
 47
0.0
 47
0.0
 47
0.0
 47
0.0
 47
1.0
 47
0.0
 47
0.0
 47
0.0
 47
0.0
 47
1.0
171
     0
 49
0.0208333333333333
 49
0.0
 49
0.0
 49
0.0
 49
0.0
 49
0.0208333333333333
 49
0.0
 49
0.0
 49
0.0
 49
0.0
 49
1.0
 49
0.0
 49
0.0
 49
0.0
 49
0.0
 49
1.0
175
     0
142
0.0208333333333333
142
0.0
142
0.0
142
0.0
142
0.0
142
0.0208333333333333
142
0.0
142
0.0
142
0.0
142
0.0
142
1.0
142
0.0
142
0.0
142
0.0
142
0.0
142
1.0
179
     0
144
0.0208333333333333
144
0.0
144
0.0
144
0.0
144
0.0
144
0.0208333333333333
144
0.0
144
0.0
144
0.0
144
0.0
144
1.0
144
0.0
144
0.0
144
0.0
144
0.0
144
1.0
147
0.0208333333333333
147
0.0
147
0.0
147
0.0
147
0.0
147
0.0208333333333333
147
0.0
147
0.0
147
0.0
147
0.0
147
1.0
147
0.0
147
0.0
147
0.0
147
0.0
147
1.0
  0
MLEADERSTYLE
  5
67
102
{ACAD_REACTORS
330
66
102
}
330
66
100
AcDbMLeaderStyle
179
     2
170
     2
171
     1
172
     0
 90
        2
 40
0.0
 41
0.0
173
     1
 91
-1056964608
340
5B
 92
       -2
290
     1
 42
0.09
291
     1
 43
0.36
  3
Standard
 44
0.18
300

342
55
174
     1
178
     6
175
     1
176
     0
 93
-1056964608
 45
0.18
292
     0
297
     0
 46
0.18
 94
-1056964608
 47
1.0
 49
1.0
140
1.0
293
     1
141
0.0
294
     1
177
     0
142
1.0
295
     1
296
     0
143
0.125
271
     0
272
     9
273
     9
298
     1
  0
MLINESTYLE
  5
60
102
{ACAD_REACTORS
330
5F
102
}
330
5F
100
AcDbMlineStyle
  2
STANDARD
 70
     0
  3

 62
   256
 51
90.0
 52
90.0
 71
     2
 49
0.5
 62
   256
  6
BYLAYER
 49
-0.5
 62
   256
  6
BYLAYER
  0
ACDBPLACEHOLDER
  5
F
102
{ACAD_REACTORS
330
E
102
}
330
E
  0
SCALE
  5
43
102
{ACAD_REACTORS
330
42
102
}
330
42
100
AcDbScale
 70
     0
300
1:1
140
1.0
141
1.0
290
     1
  0
SCALE
  5
44
102
{ACAD_REACTORS
330
42
102
}
330
42
100
AcDbScale
 70
     0
300
1/128" = 1'-0"
140
0.0078125
141
12.0
290
     0
  0
SCALE
  5
45
102
{ACAD_REACTORS
330
42
102
}
330
42
100
AcDbScale
 70
     0
300
1/64" = 1'-0"
140
0.015625
141
12.0
290
     0
  0
SCALE
  5
46
102
{ACAD_REACTORS
330
42
102
}
330
42
100
AcDbScale
 70
     0
300
1/32" = 1'-0"
140
0.03125
141
12.0
290
     0
  0
SCALE
  5
47
102
{ACAD_REACTORS
330
42
102
}
330
42
100
AcDbScale
 70
     0
300
1/16" = 1'-0"
140
0.0625
141
12.0
290
     0
  0
SCALE
  5
48
102
{ACAD_REACTORS
330
42
102
}
330
42
100
AcDbScale
 70
     0
300
3/32" = 1'-0"
140
0.09375
141
12.0
290
     0
  0
SCALE
  5
49
102
{ACAD_REACTORS
330
42
102
}
330
42
100
AcDbScale
 70
     0
300
1/8" = 1'-0"
140
0.125
141
12.0
290
     0
  0
SCALE
  5
4A
102
{ACAD_REACTORS
330
42
102
}
330
42
100
AcDbScale
 70
     0
300
3/16" = 1'-0"
140
0.1875
141
12.0
290
     0
  0
SCALE
  5
4B
102
{ACAD_REACTORS
330
42
102
}
330
42
100
AcDbScale
 70
     0
300
1/4" = 1'-0"
140
0.25
141
12.0
290
     0
  0
SCALE
  5
4C
102
{ACAD_REACTORS
330
42
102
}
330
42
100
AcDbScale
 70
     0
300
3/8" = 1'-0"
140
0.375
141
12.0
290
     0
  0
SCALE
  5
4D
102
{ACAD_REACTORS
330
42
102
}
330
42
100
AcDbScale
 70
     0
300
1/2" = 1'-0"
140
0.5
141
12.0
290
     0
  0
SCALE
  5
4E
102
{ACAD_REACTORS
330
42
102
}
330
42
100
AcDbScale
 70
     0
300
3/4" = 1'-0"
140
0.75
141
12.0
290
     0
  0
SCALE
  5
4F
102
{ACAD_REACTORS
330
42
102
}
330
42
100
AcDbScale
 70
     0
300
1" = 1'-0"
140
1.0
141
12.0
290
     0
  0
SCALE
  5
50
102
{ACAD_REACTORS
330
42
102
}
330
42
100
AcDbScale
 70
     0
300
1-1/2" = 1'-0"
140
1.5
141
12.0
290
     0
  0
SCALE
  5
51
102
{ACAD_REACTORS
330
42
102
}
330
42
100
AcDbScale
 70
     0
300
3" = 1'-0"
140
3.0
141
12.0
290
     0
  0
SCALE
  5
52
102
{ACAD_REACTORS
330
42
102
}
330
42
100
AcDbScale
 70
     0
300
6" = 1'-0"
140
6.0
141
12.0
290
     0
  0
SCALE
  5
53
102
{ACAD_REACTORS
330
42
102
}
330
42
100
AcDbScale
 70
     0
300
1'-0" = 1'-0"
140
12.0
141
12.0
290
     0
  0
ACDBSECTIONVIEWSTYLE
  5
69
102
{ACAD_REACTORS
330
68
102
}
330
68
100
AcDbModelDocViewStyle
 70
     0
  3
Imperial24
290
     1
300
Imperial24
 90
        0
100
AcDbSectionViewStyle
 70
     0
 71
     0
 90
       78
 71
     1
340
55
 62
   256
 40
0.24
340
0
340
0
 62
   256
 40
0.24
300
I, O, Q, S, X, Z
 40
0.48
 90
        3
 40
0.18
 90
        1
 71
     2
340
5D
 90
       25
 62
   256
340
5D
 90
       50
 62
   256
 40
0.24
 40
0.0
 40
0.24
 71
     3
340
55
 62
   256
 40
0.24
 90
        1
 40
0.75
 90
        1
300
%<\AcVar ViewType \f "%tc1">% %<\AcVar ViewSectionStartId>%-%<\AcVar ViewSectionEndId>%\PSCALE %<\AcVar ViewScale \f "%sn">%
 71
     4
 62
   256
 62
   257
300
ANSI31
 40
1.0
 90
        0
290
     0
290
     0
 90
        6
 40
0.0
 40
1.570796326794896
 40
0.2617993877991494
 40
1.308996938995747
 40
-0.2617993877991494
 40
1.832595714594046
  0
TABLESTYLE
  5
65
102
{ACAD_XDICTIONARY
360
A4
102
}
102
{ACAD_REACTORS
330
64
102
}
330
64
100
AcDbTableStyle
280
     0
  3
Standard
 70
     0
 71
     0
 40
0.06
 41
0.06
280
     0
281
     0
  7
Standard
140
0.18
170
     2
 62
     0
 63
     7
283
     0
 90
      512
 91
        0
  1

274
    -2
284
     1
 64
     0
275
    -2
285
     1
 65
     0
276
    -2
286
     1
 66
     0
277
    -2
287
     1
 67
     0
278
    -2
288
     1
 68
     0
279
    -2
289
     1
 69
     0
  7
Standard
140
0.25
170
     5
 62
     0
 63
     7
283
     0
 90
      512
 91
        0
  1

274
    -2
284
     1
 64
     0
275
    -2
285
     1
 65
     0
276
    -2
286
     1
 66
     0
277
    -2
287
     1
 67
     0
278
    -2
288
     1
 68
     0
279
    -2
289
     1
 69
     0
  7
Standard
140
0.18
170
     5
 62
     0
 63
     7
283
     0
 90
      512
 91
        0
  1

274
    -2
284
     1
 64
     0
275
    -2
285
     1
 65
     0
276
    -2
286
     1
 66
     0
277
    -2
287
     1
 67
     0
278
    -2
288
     1
 68
     0
279
    -2
289
     1
 69
     0
  0
VISUALSTYLE
  5
2F
102
{ACAD_REACTORS
330
29
102
}
330
29
100
AcDbVisualStyle
  2
2dWireframe
 70
     4
177
     3
291
     0
 70
    58
 90
        0
176
     1
 90
        2
176
     1
 90
        0
176
     1
 90
        0
176
     1
 40
0.6
176
     1
 40
30.0
176
     1
 62
     7
420
 16777215
176
     1
 90
        1
176
     1
 90
        4
176
     1
 62
     7
176
     1
 62
   257
176
     1
 90
        1
176
     1
 90
        1
176
     1
 40
1.0
176
     1
 90
        0
176
     1
 62
   257
176
     1
 40
1.0
176
     1
 90
        1
176
     1
 90
        6
176
     1
 90
        2
176
     1
 62
     7
176
     1
 90
        5
176
     1
 90
        0
176
     1
 90
        0
176
     1
290
     0
176
     1
 90
        1
176
     1
 40
0.0
176
     1
 90
        0
176
     1
290
     1
176
     1
290
     1
176
     1
290
     0
176
     1
290
     0
176
     1
290
     0
176
     1
290
     0
176
     1
290
     0
176
     1
290
     0
176
     1
290
     0
176
     1
 90
       50
176
     1
 40
0.0
176
     1
 40
1.0
176
     1
 90
        0
176
     1
 62
    18
420
        0
176
     1
 90
       50
176
     1
 90
        3
176
     1
 62
     5
420
      255
176
     1
290
     0
176
     1
 90
       50
176
     1
 90
       50
176
     1
 90
       50
176
     1
290
     0
176
     1
 90
       50
176
     1
 62
   256
176
     0
 40
1.0
176
     0
 90
        2
176
     1
  1
strokes_ogs.tif
176
     1
290
     0
176
     1
 40
1.0
176
     1
 40
1.0
176
     1
  0
VISUALSTYLE
  5
2E
102
{ACAD_REACTORS
330
29
102
}
330
29
100
AcDbVisualStyle
  2
Basic
 70
     7
177
     3
291
     1
 70
    58
 90
        1
176
     1
 90
        0
176
     1
 90
        1
176
     1
 90
        0
176
     1
 40
0.6
176
     1
 40
30.0
176
     1
 62
     7
420
 16777215
176
     1
 90
        0
176
     1
 90
        4
176
     1
 62
     7
176
     1
 62
   257
176
     1
 90
        1
176
     1
 90
        1
176
     1
 40
1.0
176
     1
 90
        8
176
     1
 62
     7
176
     1
 40
1.0
176
     1
 90
        1
176
     1
 90
        6
176
     1
 90
        2
176
     1
 62
     7
176
     1
 90
        5
176
     1
 90
        0
176
     1
 90
        0
176
     1
290
     0
176
     1
 90
        1
176
     1
 40
0.0
176
     1
 90
        0
176
     1
290
     0
176
     1
290
     1
176
     1
290
     1
176
     1
290
     0
176
     1
290
     0
176
     1
290
     0
176
     1
290
     0
176
     1
290
     0
176
     1
290
     0
176
     1
 90
       50
176
     1
 40
0.0
176
     1
 40
1.0
176
     1
 90
        0
176
     1
 62
    18
420
        0
176
     1
 90
       50
176
     1
 90
        3
176
     1
 62
     5
420
      255
176
     1
290
     0
176
     1
 90
       50
176
     1
 90
       50
176
     1
 90
       50
176
     1
290
     0
176
     1
 90
       50
176
     1
 62
   256
176
     0
 40
1.0
176
     0
 90
        2
176
     1
  1
strokes_ogs.tif
176
     1
290
     0
176
     1
 40
1.0
176
     1
 40
1.0
176
     1
  0
VISUALSTYLE
  5
35
102
{ACAD_REACTORS
330
29
102
}
330
29
100
AcDbVisualStyle
  2
Brighten
 70
    12
177
     3
291
     1
 70
    58
 90
        2
176
     1
 90
        2
176
     1
 90
        0
176
     1
 90
        0
176
     1
 40
0.6
176
     1
 40
30.0
176
     1
 62
     7
420
 16777215
176
     1
 90
        1
176
     1
 90
        4
176
     1
 62
     7
176
     1
 62
   257
176
     1
 90
        1
176
     1
 90
        1
176
     1
 40
1.0
176
     1
 90
        8
176
     1
 62
     7
176
     1
 40
1.0
176
     1
 90
        1
176
     1
 90
        6
176
     1
 90
        2
176
     1
 62
     7
176
     1
 90
        5
176
     1
 90
        0
176
     1
 90
        0
176
     1
290
     0
176
     1
 90
        1
176
     1
 40
50.0
176
     1
 90
        0
176
     1
290
     0
176
     1
290
     1
176
     1
290
     1
176
     1
290
     0
176
     1
290
     0
176
     1
290
     0
176
     1
290
     0
176
     1
290
     0
176
     1
290
     0
176
     1
 90
       50
176
     1
 40
0.0
176
     1
 40
1.0
176
     1
 90
        0
176
     1
 62
    18
420
        0
176
     1
 90
       50
176
     1
 90
        3
176
     1
 62
     5
420
      255
176
     1
290
     0
176
     1
 90
       50
176
     1
 90
       50
176
     1
 90
       50
176
     1
290
     0
176
     1
 90
       50
176
     1
 62
   256
176
     0
 40
1.0
176
     0
 90
        2
176
     1
  1
strokes_ogs.tif
176
     1
290
     0
176
     1
 40
1.0
176
     1
 40
1.0
176
     1
  0
VISUALSTYLE
  5
39
102
{ACAD_REACTORS
330
29
102
}
330
29
100
AcDbVisualStyle
  2
ColorChange
 70
    16
177
     3
291
     1
 70
    58
 90
        2
176
     1
 90
        2
176
     1
 90
        3
176
     1
 90
        0
176
     1
 40
0.6
176
     1
 40
30.0
176
     1
 62
     8
420
  8421504
176
     1
 90
        1
176
     1
 90
        4
176
     1
 62
     7
176
     1
 62
   257
176
     1
 90
        1
176
     1
 90
        1
176
     1
 40
1.0
176
     1
 90
        8
176
     1
 62
     8
420
  8421504
176
     1
 40
1.0
176
     1
 90
        1
176
     1
 90
        6
176
     1
 90
        2
176
     1
 62
     7
176
     1
 90
        5
176
     1
 90
        0
176
     1
 90
        0
176
     1
290
     0
176
     1
 90
        1
176
     1
 40
0.0
176
     1
 90
        0
176
     1
290
     0
176
     1
290
     1
176
     1
290
     1
176
     1
290
     0
176
     1
290
     0
176
     1
290
     0
176
     1
290
     0
176
     1
290
     0
176
     1
290
     0
176
     1
 90
       50
176
     1
 40
0.0
176
     1
 40
1.0
176
     1
 90
        0
176
     1
 62
    18
420
        0
176
     1
 90
       50
176
     1
 90
        3
176
     1
 62
     5
420
      255
176
     1
290
     0
176
     1
 90
       50
176
     1
 90
       50
176
     1
 90
       50
176
     1
290
     0
176
     1
 90
       50
176
     1
 62
   256
176
     0
 40
1.0
176
     0
 90
        2
176
     1
  1
strokes_ogs.tif
176
     1
290
     0
176
     1
 40
1.0
176
     1
 40
1.0
176
     1
  0
VISUALSTYLE
  5
32
102
{ACAD_REACTORS
330
29
102
}
330
29
100
AcDbVisualStyle
  2
Conceptual
 70
     9
177
     3
291
     0
 70
    58
 90
        3
176
     1
 90
        2
176
     1
 90
        0
176
     1
 90
        0
176
     1
 40
0.6
176
     1
 40
30.0
176
     1
 62
     7
420
 16777215
176
     1
 90
        2
176
     1
 90
        2
176
     1
 62
     7
176
     1
 62
   257
176
     1
 90
        1
176
     1
 90
        1
176
     1
 40
179.0
176
     1
 90
        8
176
     1
 62
     7
176
     1
 40
1.0
176
     1
 90
        1
176
     1
 90
        6
176
     1
 90
        2
176
     1
 62
     7
176
     1
 90
        3
176
     1
 90
        0
176
     1
 90
        0
176
     1
290
     0
176
     1
 90
        1
176
     1
 40
0.0
176
     1
 90
        0
176
     1
290
     0
176
     1
290
     1
176
     1
290
     1
176
     1
290
     0
176
     1
290
     0
176
     1
290
     0
176
     1
290
     0
176
     1
290
     0
176
     1
290
     0
176
     1
 90
       50
176
     1
 40
0.0
176
     1
 40
1.0
176
     1
 90
        0
176
     1
 62
    18
420
        0
176
     1
 90
       50
176
     1
 90
        3
176
     1
 62
     5
420
      255
176
     1
290
     0
176
     1
 90
       50
176
     1
 90
       50
176
     1
 90
       50
176
     1
290
     0
176
     1
 90
       50
176
     1
 62
   256
176
     0
 40
1.0
176
     0
 90
        2
176
     1
  1
strokes_ogs.tif
176
     1
290
     0
176
     1
 40
1.0
176
     1
 40
1.0
176
     1
  0
VISUALSTYLE
  5
34
102
{ACAD_REACTORS
330
29
102
}
330
29
100
AcDbVisualStyle
  2
Dim
 70
    11
177
     3
291
     1
 70
    58
 90
        2
176
     1
 90
        2
176
     1
 90
        0
176
     1
 90
        0
176
     1
 40
0.6
176
     1
 40
30.0
176
     1
 62
     7
420
 16777215
176
     1
 90
        1
176
     1
 90
        4
176
     1
 62
     7
176
     1
 62
   257
176
     1
 90
        1
176
     1
 90
        1
176
     1
 40
1.0
176
     1
 90
        8
176
     1
 62
     7
176
     1
 40
1.0
176
     1
 90
        1
176
     1
 90
        6
176
     1
 90
        2
176
     1
 62
     7
176
     1
 90
        5
176
     1
 90
        0
176
     1
 90
        0
176
     1
290
     0
176
     1
 90
        1
176
     1
 40
-50.0
176
     1
 90
        0
176
     1
290
     0
176
     1
290
     1
176
     1
290
     1
176
     1
290
     0
176
     1
290
     0
176
     1
290
     0
176
     1
290
     0
176
     1
290
     0
176
     1
290
     0
176
     1
 90
       50
176
     1
 40
0.0
176
     1
 40
1.0
176
     1
 90
        0
176
     1
 62
    18
420
        0
176
     1
 90
       50
176
     1
 90
        3
176
     1
 62
     5
420
      255
176
     1
290
     0
176
     1
 90
       50
176
     1
 90
       50
176
     1
 90
       50
176
     1
290
     0
176
     1
 90
       50
176
     1
 62
   256
176
     0
 40
1.0
176
     0
 90
        2
176
     1
  1
strokes_ogs.tif
176
     1
290
     0
176
     1
 40
1.0
176
     1
 40
1.0
176
     1
  0
VISUALSTYLE
  5
41
102
{ACAD_REACTORS
330
29
102
}
330
29
100
AcDbVisualStyle
  2
EdgeColorOff
 70
    22
177
     3
291
     1
 70
    58
 90
        2
176
     0
 90
        2
176
     0
 90
        0
176
     0
 90
        0
176
     0
 40
0.6
176
     0
 40
30.0
176
     0
 62
     7
420
 16777215
176
     0
 90
        1
176
     0
 90
        4
176
     0
 62
     7
176
     0
 62
   257
176
     0
 90
        1
176
     0
 90
        1
176
     0
 40
1.0
176
     0
 90
        8
176
     2
 62
     7
176
     0
 40
1.0
176
     0
 90
        1
176
     0
 90
        6
176
     0
 90
        2
176
     0
 62
     7
176
     0
 90
        5
176
     0
 90
        0
176
     0
 90
        0
176
     0
290
     0
176
     0
 90
        1
176
     0
 40
0.0
176
     0
 90
        0
176
     0
290
     0
176
     0
290
     1
176
     0
290
     1
176
     0
290
     0
176
     0
290
     0
176
     0
290
     0
176
     0
290
     0
176
     0
290
     0
176
     0
290
     0
176
     0
 90
       50
176
     0
 40
0.0
176
     0
 40
1.0
176
     0
 90
        0
176
     0
 62
    18
420
        0
176
     0
 90
       50
176
     0
 90
        3
176
     0
 62
     5
420
      255
176
     0
290
     0
176
     0
 90
       50
176
     0
 90
       50
176
     0
 90
       50
176
     0
290
     0
176
     0
 90
       50
176
     0
 62
   256
176
     0
 40
1.0
176
     0
 90
        2
176
     0
  1
strokes_ogs.tif
176
     0
290
     0
176
     0
 40
1.0
176
     0
 40
1.0
176
     0
  0
VISUALSTYLE
  5
38
102
{ACAD_REACTORS
330
29
102
}
330
29
100
AcDbVisualStyle
  2
Facepattern
 70
    15
177
     3
291
     1
 70
    58
 90
        2
176
     1
 90
        2
176
     1
 90
        0
176
     1
 90
        0
176
     1
 40
0.6
176
     1
 40
30.0
176
     1
 62
     7
420
 16777215
176
     1
 90
        1
176
     1
 90
        4
176
     1
 62
     7
176
     1
 62
   257
176
     1
 90
        1
176
     1
 90
        1
176
     1
 40
1.0
176
     1
 90
        8
176
     1
 62
     7
176
     1
 40
1.0
176
     1
 90
        1
176
     1
 90
        6
176
     1
 90
        2
176
     1
 62
     7
176
     1
 90
        5
176
     1
 90
        0
176
     1
 90
        0
176
     1
290
     0
176
     1
 90
        1
176
     1
 40
0.0
176
     1
 90
        0
176
     1
290
     0
176
     1
290
     1
176
     1
290
     1
176
     1
290
     0
176
     1
290
     0
176
     1
290
     0
176
     1
290
     0
176
     1
290
     0
176
     1
290
     0
176
     1
 90
       50
176
     1
 40
0.0
176
     1
 40
1.0
176
     1
 90
        0
176
     1
 62
    18
420
        0
176
     1
 90
       50
176
     1
 90
        3
176
     1
 62
     5
420
      255
176
     1
290
     0
176
     1
 90
       50
176
     1
 90
       50
176
     1
 90
       50
176
     1
290
     0
176
     1
 90
       50
176
     1
 62
   256
176
     0
 40
1.0
176
     0
 90
        2
176
     1
  1
strokes_ogs.tif
176
     1
290
     0
176
     1
 40
1.0
176
     1
 40
1.0
176
     1
  0
VISUALSTYLE
  5
2A
102
{ACAD_REACTORS
330
29
102
}
330
29
100
AcDbVisualStyle
  2
Flat
 70
     0
177
     3
291
     1
 70
    58
 90
        2
176
     1
 90
        1
176
     1
 90
        1
176
     1
 90
        2
176
     1
 40
0.6
176
     1
 40
30.0
176
     1
 62
     7
420
 16777215
176
     1
 90
        0
176
     1
 90
        0
176
     1
 62
     7
176
     1
 62
   257
176
     1
 90
        1
176
     1
 90
        1
176
     1
 40
1.0
176
     1
 90
        8
176
     1
 62
     7
176
     1
 40
1.0
176
     1
 90
        1
176
     1
 90
        6
176
     1
 90
        2
176
     1
 62
     7
176
     1
 90
        5
176
     1
 90
        0
176
     1
 90
        0
176
     1
290
     0
176
     1
 90
       13
176
     1
 40
0.0
176
     1
 90
        0
176
     1
290
     0
176
     1
290
     1
176
     1
290
     1
176
     1
290
     0
176
     1
290
     0
176
     1
290
     0
176
     1
290
     0
176
     1
290
     0
176
     1
290
     0
176
     1
 90
       50
176
     1
 40
0.0
176
     1
 40
1.0
176
     1
 90
        0
176
     1
 62
    18
420
        0
176
     1
 90
       50
176
     1
 90
        3
176
     1
 62
     5
420
      255
176
     1
290
     0
176
     1
 90
       50
176
     1
 90
       50
176
     1
 90
       50
176
     1
290
     0
176
     1
 90
       50
176
     1
 62
   256
176
     0
 40
1.0
176
     0
 90
        2
176
     1
  1
strokes_ogs.tif
176
     1
290
     0
176
     1
 40
1.0
176
     1
 40
1.0
176
     1
  0
VISUALSTYLE
  5
2B
102
{ACAD_REACTORS
330
29
102
}
330
29
100
AcDbVisualStyle
  2
FlatWithEdges
 70
     1
177
     3
291
     1
 70
    58
 90
        2
176
     1
 90
        1
176
     1
 90
        1
176
     1
 90
        2
176
     1
 40
0.6
176
     1
 40
30.0
176
     1
 62
     7
420
 16777215
176
     1
 90
        1
176
     1
 90
        0
176
     1
 62
     7
176
     1
 62
   257
176
     1
 90
        1
176
     1
 90
        1
176
     1
 40
1.0
176
     1
 90
        0
176
     1
 62
   257
176
     1
 40
1.0
176
     1
 90
        1
176
     1
 90
        6
176
     1
 90
        2
176
     1
 62
     7
176
     1
 90
        5
176
     1
 90
        0
176
     1
 90
        0
176
     1
290
     0
176
     1
 90
       13
176
     1
 40
0.0
176
     1
 90
        0
176
     1
290
     0
176
     1
290
     1
176
     1
290
     1
176
     1
290
     0
176
     1
290
     0
176
     1
290
     0
176
     1
290
     0
176
     1
290
     0
176
     1
290
     0
176
     1
 90
       50
176
     1
 40
0.0
176
     1
 40
1.0
176
     1
 90
        0
176
     1
 62
    18
420
        0
176
     1
 90
       50
176
     1
 90
        3
176
     1
 62
     5
420
      255
176
     1
290
     0
176
     1
 90
       50
176
     1
 90
       50
176
     1
 90
       50
176
     1
290
     0
176
     1
 90
       50
176
     1
 62
   256
176
     0
 40
1.0
176
     0
 90
        2
176
     1
  1
strokes_ogs.tif
176
     1
290
     0
176
     1
 40
1.0
176
     1
 40
1.0
176
     1
  0
VISUALSTYLE
  5
2C
102
{ACAD_REACTORS
330
29
102
}
330
29
100
AcDbVisualStyle
  2
Gouraud
 70
     2
177
     3
291
     1
 70
    58
 90
        2
176
     1
 90
        2
176
     1
 90
        1
176
     1
 90
        2
176
     1
 40
0.6
176
     1
 40
30.0
176
     1
 62
     7
420
 16777215
176
     1
 90
        0
176
     1
 90
        0
176
     1
 62
     7
176
     1
 62
   257
176
     1
 90
        1
176
     1
 90
        1
176
     1
 40
1.0
176
     1
 90
        0
176
     1
 62
     7
176
     1
 40
1.0
176
     1
 90
        1
176
     1
 90
        6
176
     1
 90
        2
176
     1
 62
     7
176
     1
 90
        5
176
     1
 90
        0
176
     1
 90
        0
176
     1
290
     0
176
     1
 90
       13
176
     1
 40
0.0
176
     1
 90
        0
176
     1
290
     0
176
     1
290
     1
176
     1
290
     1
176
     1
290
     0
176
     1
290
     0
176
     1
290
     0
176
     1
290
     0
176
     1
290
     0
176
     1
290
     0
176
     1
 90
       50
176
     1
 40
0.0
176
     1
 40
1.0
176
     1
 90
        0
176
     1
 62
    18
420
        0
176
     1
 90
       50
176
     1
 90
        3
176
     1
 62
     5
420
      255
176
     1
290
     0
176
     1
 90
       50
176
     1
 90
       50
176
     1
 90
       50
176
     1
290
     0
176
     1
 90
       50
176
     1
 62
   256
176
     0
 40
1.0
176
     0
 90
        2
176
     1
  1
strokes_ogs.tif
176
     1
290
     0
176
     1
 40
1.0
176
     1
 40
1.0
176
     1
  0
VISUALSTYLE
  5
2D
102
{ACAD_REACTORS
330
29
102
}
330
29
100
AcDbVisualStyle
  2
GouraudWithEdges
 70
     3
177
     3
291
     1
 70
    58
 90
        2
176
     1
 90
        2
176
     1
 90
        1
176
     1
 90
        2
176
     1
 40
0.6
176
     1
 40
30.0
176
     1
 62
     7
420
 16777215
176
     1
 90
        1
176
     1
 90
        0
176
     1
 62
     7
176
     1
 62
   257
176
     1
 90
        1
176
     1
 90
        1
176
     1
 40
1.0
176
     1
 90
        0
176
     1
 62
   257
176
     1
 40
1.0
176
     1
 90
        1
176
     1
 90
        6
176
     1
 90
        2
176
     1
 62
     7
176
     1
 90
        5
176
     1
 90
        0
176
     1
 90
        0
176
     1
290
     0
176
     1
 90
       13
176
     1
 40
0.0
176
     1
 90
        0
176
     1
290
     0
176
     1
290
     1
176
     1
290
     1
176
     1
290
     0
176
     1
290
     0
176
     1
290
     0
176
     1
290
     0
176
     1
290
     0
176
     1
290
     0
176
     1
 90
       50
176
     1
 40
0.0
176
     1
 40
1.0
176
     1
 90
        0
176
     1
 62
    18
420
        0
176
     1
 90
       50
176
     1
 90
        3
176
     1
 62
     5
420
      255
176
     1
290
     0
176
     1
 90
       50
176
     1
 90
       50
176
     1
 90
       50
176
     1
290
     0
176
     1
 90
       50
176
     1
 62
   256
176
     0
 40
1.0
176
     0
 90
        2
176
     1
  1
strokes_ogs.tif
176
     1
290
     0
176
     1
 40
1.0
176
     1
 40
1.0
176
     1
  0
VISUALSTYLE
  5
31
102
{ACAD_REACTORS
330
29
102
}
330
29
100
AcDbVisualStyle
  2
Hidden
 70
     6
177
     3
291
     0
 70
    58
 90
        1
176
     1
 90
        2
176
     1
 90
        2
176
     1
 90
        0
176
     1
 40
0.6
176
     1
 40
30.0
176
     1
 62
     7
420
 16777215
176
     1
 90
        2
176
     1
 90
        2
176
     1
 62
     7
176
     1
 62
   257
176
     1
 90
        2
176
     1
 90
        1
176
     1
 40
40.0
176
     1
 90
        0
176
     1
 62
   257
176
     1
 40
1.0
176
     1
 90
        1
176
     1
 90
        6
176
     1
 90
        2
176
     1
 62
     7
176
     1
 90
        3
176
     1
 90
        0
176
     1
 90
        0
176
     1
290
     0
176
     1
 90
        1
176
     1
 40
0.0
176
     1
 90
        0
176
     1
290
     0
176
     1
290
     1
176
     1
290
     1
176
     1
290
     0
176
     1
290
     0
176
     1
290
     0
176
     1
290
     0
176
     1
290
     0
176
     1
290
     0
176
     1
 90
       50
176
     1
 40
0.0
176
     1
 40
1.0
176
     1
 90
        0
176
     1
 62
    18
420
        0
176
     1
 90
       50
176
     1
 90
        3
176
     1
 62
     5
420
      255
176
     1
290
     0
176
     1
 90
       50
176
     1
 90
       50
176
     1
 90
       50
176
     1
290
     0
176
     1
 90
       50
176
     1
 62
   256
176
     0
 40
1.0
176
     0
 90
        2
176
     1
  1
strokes_ogs.tif
176
     1
290
     0
176
     1
 40
1.0
176
     1
 40
1.0
176
     1
  0
VISUALSTYLE
  5
3F
102
{ACAD_REACTORS
330
29
102
}
330
29
100
AcDbVisualStyle
  2
JitterOff
 70
    20
177
     3
291
     1
 70
    58
 90
        2
176
     0
 90
        2
176
     0
 90
        0
176
     0
 90
        0
176
     0
 40
0.6
176
     0
 40
30.0
176
     0
 62
     7
420
 16777215
176
     0
 90
        1
176
     0
 90
        4
176
     0
 62
     7
176
     0
 62
   257
176
     0
 90
        1
176
     0
 90
        1
176
     0
 40
1.0
176
     0
 90
       10
176
     2
 62
     7
176
     0
 40
1.0
176
     0
 90
        1
176
     0
 90
        6
176
     0
 90
        2
176
     0
 62
     7
176
     0
 90
        5
176
     0
 90
        0
176
     0
 90
        0
176
     0
290
     0
176
     0
 90
        1
176
     0
 40
0.0
176
     0
 90
        0
176
     0
290
     0
176
     0
290
     1
176
     0
290
     1
176
     0
290
     0
176
     0
290
     0
176
     0
290
     0
176
     0
290
     0
176
     0
290
     0
176
     0
290
     0
176
     0
 90
       50
176
     0
 40
0.0
176
     0
 40
1.0
176
     0
 90
        0
176
     0
 62
    18
420
        0
176
     0
 90
       50
176
     0
 90
        3
176
     0
 62
     5
420
      255
176
     0
290
     0
176
     0
 90
       50
176
     0
 90
       50
176
     0
 90
       50
176
     0
290
     0
176
     0
 90
       50
176
     0
 62
   256
176
     0
 40
1.0
176
     0
 90
        2
176
     0
  1
strokes_ogs.tif
176
     0
290
     0
176
     0
 40
1.0
176
     0
 40
1.0
176
     0
  0
VISUALSTYLE
  5
37
102
{ACAD_REACTORS
330
29
102
}
330
29
100
AcDbVisualStyle
  2
Linepattern
 70
    14
177
     3
291
     1
 70
    58
 90
        2
176
     1
 90
        2
176
     1
 90
        0
176
     1
 90
        0
176
     1
 40
0.6
176
     1
 40
30.0
176
     1
 62
     7
420
 16777215
176
     1
 90
        1
176
     1
 90
        4
176
     1
 62
     7
176
     1
 62
   257
176
     1
 90
        7
176
     1
 90
        7
176
     1
 40
1.0
176
     1
 90
        8
176
     1
 62
     7
176
     1
 40
1.0
176
     1
 90
        1
176
     1
 90
        6
176
     1
 90
        2
176
     1
 62
     7
176
     1
 90
        5
176
     1
 90
        0
176
     1
 90
        0
176
     1
290
     0
176
     1
 90
        1
176
     1
 40
0.0
176
     1
 90
        0
176
     1
290
     0
176
     1
290
     1
176
     1
290
     1
176
     1
290
     0
176
     1
290
     0
176
     1
290
     0
176
     1
290
     0
176
     1
290
     0
176
     1
290
     0
176
     1
 90
       50
176
     1
 40
0.0
176
     1
 40
1.0
176
     1
 90
        0
176
     1
 62
    18
420
        0
176
     1
 90
       50
176
     1
 90
        3
176
     1
 62
     5
420
      255
176
     1
290
     0
176
     1
 90
       50
176
     1
 90
       50
176
     1
 90
       50
176
     1
290
     0
176
     1
 90
       50
176
     1
 62
   256
176
     0
 40
1.0
176
     0
 90
        2
176
     1
  1
strokes_ogs.tif
176
     1
290
     0
176
     1
 40
1.0
176
     1
 40
1.0
176
     1
  0
VISUALSTYLE
  5
40
102
{ACAD_REACTORS
330
29
102
}
330
29
100
AcDbVisualStyle
  2
OverhangOff
 70
    21
177
     3
291
     1
 70
    58
 90
        2
176
     0
 90
        2
176
     0
 90
        0
176
     0
 90
        0
176
     0
 40
0.6
176
     0
 40
30.0
176
     0
 62
     7
420
 16777215
176
     0
 90
        1
176
     0
 90
        4
176
     0
 62
     7
176
     0
 62
   257
176
     0
 90
        1
176
     0
 90
        1
176
     0
 40
1.0
176
     0
 90
        9
176
     2
 62
     7
176
     0
 40
1.0
176
     0
 90
        1
176
     0
 90
        6
176
     0
 90
        2
176
     0
 62
     7
176
     0
 90
        5
176
     0
 90
        0
176
     0
 90
        0
176
     0
290
     0
176
     0
 90
        1
176
     0
 40
0.0
176
     0
 90
        0
176
     0
290
     0
176
     0
290
     1
176
     0
290
     1
176
     0
290
     0
176
     0
290
     0
176
     0
290
     0
176
     0
290
     0
176
     0
290
     0
176
     0
290
     0
176
     0
 90
       50
176
     0
 40
0.0
176
     0
 40
1.0
176
     0
 90
        0
176
     0
 62
    18
420
        0
176
     0
 90
       50
176
     0
 90
        3
176
     0
 62
     5
420
      255
176
     0
290
     0
176
     0
 90
       50
176
     0
 90
       50
176
     0
 90
       50
176
     0
290
     0
176
     0
 90
       50
176
     0
 62
   256
176
     0
 40
1.0
176
     0
 90
        2
176
     0
  1
strokes_ogs.tif
176
     0
290
     0
176
     0
 40
1.0
176
     0
 40
1.0
176
     0
  0
VISUALSTYLE
  5
33
102
{ACAD_REACTORS
330
29
102
}
330
29
100
AcDbVisualStyle
  2
Realistic
 70
     8
177
     3
291
     0
 70
    58
 90
        2
176
     1
 90
        3
176
     1
 90
        0
176
     1
 90
        2
176
     1
 40
0.6
176
     1
 40
30.0
176
     1
 62
     7
420
 16777215
176
     1
 90
        0
176
     1
 90
        0
176
     1
 62
     7
176
     1
 62
   257
176
     1
 90
        1
176
     1
 90
        1
176
     1
 40
1.0
176
     1
 90
        8
176
     1
 62
   257
176
     1
 40
1.0
176
     1
 90
        1
176
     1
 90
        6
176
     1
 90
        2
176
     1
 62
     7
176
     1
 90
        3
176
     1
 90
        0
176
     1
 90
        0
176
     1
290
     0
176
     1
 90
       13
176
     1
 40
0.0
176
     1
 90
        0
176
     1
290
     0
176
     1
290
     1
176
     1
290
     1
176
     1
290
     0
176
     1
290
     0
176
     1
290
     0
176
     1
290
     0
176
     1
290
     0
176
     1
290
     0
176
     1
 90
       50
176
     1
 40
0.0
176
     1
 40
1.0
176
     1
 90
        0
176
     1
 62
    18
420
        0
176
     1
 90
       50
176
     1
 90
        3
176
     1
 62
     5
420
      255
176
     1
290
     0
176
     1
 90
       50
176
     1
 90
       50
176
     1
 90
       50
176
     1
290
     0
176
     1
 90
       50
176
     1
 62
   256
176
     0
 40
1.0
176
     0
 90
        2
176
     1
  1
strokes_ogs.tif
176
     1
290
     0
176
     1
 40
1.0
176
     1
 40
1.0
176
     1
  0
VISUALSTYLE
  5
3E
102
{ACAD_REACTORS
330
29
102
}
330
29
100
AcDbVisualStyle
  2
Shaded
 70
    27
177
     3
291
     0
 70
    58
 90
        2
176
     1
 90
        2
176
     1
 90
        1
176
     1
 90
        2
176
     1
 40
0.6
176
     1
 40
30.0
176
     1
 62
     7
420
 16777215
176
     1
 90
        0
176
     1
 90
        4
176
     1
 62
     7
176
     1
 62
   257
176
     1
 90
        1
176
     1
 90
        1
176
     1
 40
1.0
176
     1
 90
        8
176
     1
 62
   257
176
     1
 40
1.0
176
     1
 90
        1
176
     1
 90
        6
176
     1
 90
        2
176
     1
 62
     8
420
  7895160
176
     1
 90
        3
176
     1
 90
        0
176
     1
 90
        0
176
     1
290
     0
176
     1
 90
        5
176
     1
 40
0.0
176
     1
 90
        0
176
     1
290
     0
176
     1
290
     1
176
     1
290
     1
176
     1
290
     0
176
     1
290
     0
176
     1
290
     0
176
     1
290
     0
176
     1
290
     0
176
     1
290
     0
176
     1
 90
       50
176
     1
 40
0.0
176
     1
 40
1.0
176
     1
 90
        0
176
     1
 62
    18
420
        0
176
     1
 90
       50
176
     1
 90
        3
176
     1
 62
     5
420
      255
176
     1
290
     0
176
     1
 90
       50
176
     1
 90
       50
176
     1
 90
       50
176
     1
290
     0
176
     1
 90
       50
176
     1
 62
   256
176
     0
 40
1.0
176
     0
 90
        2
176
     1
  1
strokes_ogs.tif
176
     1
290
     0
176
     1
 40
1.0
176
     1
 40
1.0
176
     1
  0
VISUALSTYLE
  5
3D
102
{ACAD_REACTORS
330
29
102
}
330
29
100
AcDbVisualStyle
  2
Shaded with edges
 70
    26
177
     3
291
     0
 70
    58
 90
        2
176
     1
 90
        2
176
     1
 90
        1
176
     1
 90
        2
176
     1
 40
0.6
176
     1
 40
30.0
176
     1
 62
     7
420
 16777215
176
     1
 90
        1
176
     1
 90
        2
176
     1
 62
     7
176
     1
 62
   257
176
     1
 90
        2
176
     1
 90
        1
176
     1
 40
1.0
176
     1
 90
        8
176
     1
 62
   257
176
     1
 40
1.0
176
     1
 90
        1
176
     1
 90
        6
176
     1
 90
        2
176
     1
 62
     7
176
     1
 90
        3
176
     1
 90
        0
176
     1
 90
        0
176
     1
290
     0
176
     1
 90
        5
176
     1
 40
0.0
176
     1
 90
        0
176
     1
290
     0
176
     1
290
     1
176
     1
290
     1
176
     1
290
     0
176
     1
290
     0
176
     1
290
     0
176
     1
290
     0
176
     1
290
     0
176
     1
290
     0
176
     1
 90
       50
176
     1
 40
0.0
176
     1
 40
1.0
176
     1
 90
        0
176
     1
 62
    18
420
        0
176
     1
 90
       50
176
     1
 90
        3
176
     1
 62
     5
420
      255
176
     1
290
     0
176
     1
 90
       50
176
     1
 90
       50
176
     1
 90
       50
176
     1
290
     0
176
     1
 90
       50
176
     1
 62
   256
176
     0
 40
1.0
176
     0
 90
        2
176
     1
  1
strokes_ogs.tif
176
     1
290
     0
176
     1
 40
1.0
176
     1
 40
1.0
176
     1
  0
VISUALSTYLE
  5
3A
102
{ACAD_REACTORS
330
29
102
}
330
29
100
AcDbVisualStyle
  2
Shades of Gray
 70
    23
177
     3
291
     0
 70
    58
 90
        2
176
     1
 90
        2
176
     1
 90
        3
176
     1
 90
        0
176
     1
 40
0.6
176
     1
 40
30.0
176
     1
 62
     7
420
 16777215
176
     1
 90
        2
176
     1
 90
        2
176
     1
 62
     7
176
     1
 62
     7
176
     1
 90
        1
176
     1
 90
        1
176
     1
 40
40.0
176
     1
 90
        8
176
     1
 62
     7
176
     1
 40
1.0
176
     1
 90
        1
176
     1
 90
        6
176
     1
 90
        2
176
     1
 62
     7
176
     1
 90
        3
176
     1
 90
        0
176
     1
 90
        0
176
     1
290
     0
176
     1
 90
        1
176
     1
 40
0.0
176
     1
 90
        0
176
     1
290
     0
176
     1
290
     1
176
     1
290
     1
176
     1
290
     0
176
     1
290
     0
176
     1
290
     0
176
     1
290
     0
176
     1
290
     0
176
     1
290
     0
176
     1
 90
       50
176
     1
 40
0.0
176
     1
 40
1.0
176
     1
 90
        0
176
     1
 62
    18
420
        0
176
     1
 90
       50
176
     1
 90
        3
176
     1
 62
     5
420
      255
176
     1
290
     0
176
     1
 90
       50
176
     1
 90
       50
176
     1
 90
       50
176
     1
290
     0
176
     1
 90
       50
176
     1
 62
   256
176
     0
 40
1.0
176
     0
 90
        2
176
     1
  1
strokes_ogs.tif
176
     1
290
     0
176
     1
 40
1.0
176
     1
 40
1.0
176
     1
  0
VISUALSTYLE
  5
3B
102
{ACAD_REACTORS
330
29
102
}
330
29
100
AcDbVisualStyle
  2
Sketchy
 70
    24
177
     3
291
     0
 70
    58
 90
        1
176
     1
 90
        2
176
     1
 90
        2
176
     1
 90
        0
176
     1
 40
0.6
176
     1
 40
30.0
176
     1
 62
     7
420
 16777215
176
     1
 90
        2
176
     1
 90
        2
176
     1
 62
     7
176
     1
 62
     7
176
     1
 90
        1
176
     1
 90
        1
176
     1
 40
40.0
176
     1
 90
       11
176
     1
 62
     7
176
     1
 40
1.0
176
     1
 90
        1
176
     1
 90
        6
176
     1
 90
        2
176
     1
 62
     7
176
     1
 90
        6
176
     1
 90
        0
176
     1
 90
        0
176
     1
290
     0
176
     1
 90
        1
176
     1
 40
0.0
176
     1
 90
        0
176
     1
290
     0
176
     1
290
     1
176
     1
290
     1
176
     1
290
     0
176
     1
290
     0
176
     1
290
     0
176
     1
290
     0
176
     1
290
     0
176
     1
290
     0
176
     1
 90
       50
176
     1
 40
0.0
176
     1
 40
1.0
176
     1
 90
        0
176
     1
 62
    18
420
        0
176
     1
 90
       50
176
     1
 90
        3
176
     1
 62
     5
420
      255
176
     1
290
     0
176
     1
 90
       50
176
     1
 90
       50
176
     1
 90
       50
176
     1
290
     0
176
     1
 90
       50
176
     1
 62
   256
176
     0
 40
1.0
176
     0
 90
        2
176
     1
  1
strokes_ogs.tif
176
     1
290
     0
176
     1
 40
1.0
176
     1
 40
1.0
176
     1
  0
VISUALSTYLE
  5
36
102
{ACAD_REACTORS
330
29
102
}
330
29
100
AcDbVisualStyle
  2
Thicken
 70
    13
177
     3
291
     1
 70
    58
 90
        2
176
     1
 90
        2
176
     1
 90
        0
176
     1
 90
        0
176
     1
 40
0.6
176
     1
 40
30.0
176
     1
 62
     7
420
 16777215
176
     1
 90
        1
176
     1
 90
        4
176
     1
 62
     7
176
     1
 62
   257
176
     1
 90
        1
176
     1
 90
        1
176
     1
 40
1.0
176
     1
 90
       12
176
     1
 62
     7
176
     1
 40
1.0
176
     1
 90
        1
176
     1
 90
        6
176
     1
 90
        2
176
     1
 62
     7
176
     1
 90
        5
176
     1
 90
        0
176
     1
 90
        0
176
     1
290
     0
176
     1
 90
        1
176
     1
 40
0.0
176
     1
 90
        0
176
     1
290
     0
176
     1
290
     1
176
     1
290
     1
176
     1
290
     0
176
     1
290
     0
176
     1
290
     0
176
     1
290
     0
176
     1
290
     0
176
     1
290
     0
176
     1
 90
       50
176
     1
 40
0.0
176
     1
 40
1.0
176
     1
 90
        0
176
     1
 62
    18
420
        0
176
     1
 90
       50
176
     1
 90
        3
176
     1
 62
     5
420
      255
176
     1
290
     0
176
     1
 90
       50
176
     1
 90
       50
176
     1
 90
       50
176
     1
290
     0
176
     1
 90
       50
176
     1
 62
   256
176
     0
 40
1.0
176
     0
 90
        2
176
     1
  1
strokes_ogs.tif
176
     1
290
     0
176
     1
 40
1.0
176
     1
 40
1.0
176
     1
  0
VISUALSTYLE
  5
30
102
{ACAD_REACTORS
330
29
102
}
330
29
100
AcDbVisualStyle
  2
Wireframe
 70
     5
177
     3
291
     0
 70
    58
 90
        0
176
     1
 90
        2
176
     1
 90
        0
176
     1
 90
        0
176
     1
 40
0.6
176
     1
 40
30.0
176
     1
 62
     7
420
 16777215
176
     1
 90
        1
176
     1
 90
        4
176
     1
 62
     7
176
     1
 62
   257
176
     1
 90
        1
176
     1
 90
        1
176
     1
 40
1.0
176
     1
 90
        0
176
     1
 62
   257
176
     1
 40
1.0
176
     1
 90
        1
176
     1
 90
        6
176
     1
 90
        2
176
     1
 62
     7
176
     1
 90
        3
176
     1
 90
        0
176
     1
 90
        0
176
     1
290
     0
176
     1
 90
        1
176
     1
 40
0.0
176
     1
 90
        0
176
     1
290
     0
176
     1
290
     1
176
     1
290
     1
176
     1
290
     0
176
     1
290
     0
176
     1
290
     0
176
     1
290
     0
176
     1
290
     0
176
     1
290
     0
176
     1
 90
       50
176
     1
 40
0.0
176
     1
 40
1.0
176
     1
 90
        0
176
     1
 62
    18
420
        0
176
     1
 90
       50
176
     1
 90
        3
176
     1
 62
     5
420
      255
176
     1
290
     0
176
     1
 90
       50
176
     1
 90
       50
176
     1
 90
       50
176
     1
290
     0
176
     1
 90
       50
176
     1
 62
   256
176
     0
 40
1.0
176
     0
 90
        2
176
     1
  1
strokes_ogs.tif
176
     1
290
     0
176
     1
 40
1.0
176
     1
 40
1.0
176
     1
  0
VISUALSTYLE
  5
3C
102
{ACAD_REACTORS
330
29
102
}
330
29
100
AcDbVisualStyle
  2
X-Ray
 70
    25
177
     3
291
     0
 70
    58
 90
        2
176
     1
 90
        2
176
     1
 90
        1
176
     1
 90
        1
176
     1
 40
0.5
176
     1
 40
30.0
176
     1
 62
     7
420
 16777215
176
     1
 90
        1
176
     1
 90
        0
176
     1
 62
     7
176
     1
 62
   257
176
     1
 90
        1
176
     1
 90
        1
176
     1
 40
1.0
176
     1
 90
        8
176
     1
 62
     7
176
     1
 40
1.0
176
     1
 90
        1
176
     1
 90
        6
176
     1
 90
        2
176
     1
 62
     7
176
     1
 90
        3
176
     1
 90
        0
176
     1
 90
        0
176
     1
290
     0
176
     1
 90
       13
176
     1
 40
0.0
176
     1
 90
        0
176
     1
290
     0
176
     1
290
     1
176
     1
290
     1
176
     1
290
     0
176
     1
290
     0
176
     1
290
     0
176
     1
290
     0
176
     1
290
     0
176
     1
290
     0
176
     1
 90
       50
176
     1
 40
0.0
176
     1
 40
1.0
176
     1
 90
        0
176
     1
 62
    18
420
        0
176
     1
 90
       50
176
     1
 90
        3
176
     1
 62
     5
420
      255
176
     1
290
     0
176
     1
 90
       50
176
     1
 90
       50
176
     1
 90
       50
176
     1
290
     0
176
     1
 90
       50
176
     1
 62
   256
176
     0
 40
1.0
176
     0
 90
        2
176
     1
  1
strokes_ogs.tif
176
     1
290
     0
176
     1
 40
1.0
176
     1
 40
1.0
176
     1
  0
DICTIONARYVAR
  5
A3
102
{ACAD_REACTORS
330
9E
102
}
330
9E
100
DictionaryVariables
280
     0
  1
1:1
  0
DICTIONARYVAR
  5
A0
102
{ACAD_REACTORS
330
9E
102
}
330
9E
100
DictionaryVariables
280
     0
  1
STANDARD
  0
DICTIONARYVAR
  5
9F
102
{ACAD_REACTORS
330
9E
102
}
330
9E
100
DictionaryVariables
280
     0
  1
STANDARD
  0
DICTIONARYVAR
  5
A1
102
{ACAD_REACTORS
330
9E
102
}
330
9E
100
DictionaryVariables
280
     0
  1
Imperial24
  0
DICTIONARYVAR
  5
A2
102
{ACAD_REACTORS
330
9E
102
}
330
9E
100
DictionaryVariables
280
     0
  1
Imperial24
  0
DICTIONARY
  5
1A
330
19
100
AcDbDictionary
280
     1
281
     1
  3
BUMPTILE
360
1C
  3
DIFFUSETILE
360
1B
  3
OPACITYTILE
360
1F
  3
REFLECTIONTILE
360
1E
  3
REFRACTIONTILE
360
20
  3
SPECULARTILE
360
1D
  0
DICTIONARY
  5
12
330
11
100
AcDbDictionary
280
     1
281
     1
  3
BUMPTILE
360
14
  3
DIFFUSETILE
360
13
  3
OPACITYTILE
360
17
  3
REFLECTIONTILE
360
16
  3
REFRACTIONTILE
360
18
  3
SPECULARTILE
360
15
  0
DICTIONARY
  5
22
330
21
100
AcDbDictionary
280
     1
281
     1
  3
BUMPTILE
360
24
  3
DIFFUSETILE
360
23
  3
OPACITYTILE
360
27
  3
REFLECTIONTILE
360
26
  3
REFRACTIONTILE
360
28
  3
SPECULARTILE
360
25
  0
DICTIONARY
  5
A4
330
65
100
AcDbDictionary
280
     1
281
     1
  3
ACAD_ROUNDTRIP_2008_TABLESTYLE_CELLSTYLEMAP
360
A5
  0
XRECORD
  5
1C
102
{ACAD_REACTORS
330
1A
102
}
330
1A
100
AcDbXrecord
280
     1
270
     1
271
     1
  0
XRECORD
  5
1B
102
{ACAD_REACTORS
330
1A
102
}
330
1A
100
AcDbXrecord
280
     1
270
     1
271
     1
  0
XRECORD
  5
1F
102
{ACAD_REACTORS
330
1A
102
}
330
1A
100
AcDbXrecord
280
     1
270
     1
271
     1
  0
XRECORD
  5
1E
102
{ACAD_REACTORS
330
1A
102
}
330
1A
100
AcDbXrecord
280
     1
270
     1
271
     1
  0
XRECORD
  5
20
102
{ACAD_REACTORS
330
1A
102
}
330
1A
100
AcDbXrecord
280
     1
270
     1
271
     1
  0
XRECORD
  5
1D
102
{ACAD_REACTORS
330
1A
102
}
330
1A
100
AcDbXrecord
280
     1
270
     1
271
     1
  0
XRECORD
  5
14
102
{ACAD_REACTORS
330
12
102
}
330
12
100
AcDbXrecord
280
     1
270
     1
271
     1
  0
XRECORD
  5
13
102
{ACAD_REACTORS
330
12
102
}
330
12
100
AcDbXrecord
280
     1
270
     1
271
     1
  0
XRECORD
  5
17
102
{ACAD_REACTORS
330
12
102
}
330
12
100
AcDbXrecord
280
     1
270
     1
271
     1
  0
XRECORD
  5
16
102
{ACAD_REACTORS
330
12
102
}
330
12
100
AcDbXrecord
280
     1
270
     1
271
     1
  0
XRECORD
  5
18
102
{ACAD_REACTORS
330
12
102
}
330
12
100
AcDbXrecord
280
     1
270
     1
271
     1
  0
XRECORD
  5
15
102
{ACAD_REACTORS
330
12
102
}
330
12
100
AcDbXrecord
280
     1
270
     1
271
     1
  0
XRECORD
  5
24
102
{ACAD_REACTORS
330
22
102
}
330
22
100
AcDbXrecord
280
     1
270
     1
271
     1
  0
XRECORD
  5
23
102
{ACAD_REACTORS
330
22
102
}
330
22
100
AcDbXrecord
280
     1
270
     1
271
     1
  0
XRECORD
  5
27
102
{ACAD_REACTORS
330
22
102
}
330
22
100
AcDbXrecord
280
     1
270
     1
271
     1
  0
XRECORD
  5
26
102
{ACAD_REACTORS
330
22
102
}
330
22
100
AcDbXrecord
280
     1
270
     1
271
     1
  0
XRECORD
  5
28
102
{ACAD_REACTORS
330
22
102
}
330
22
100
AcDbXrecord
280
     1
270
     1
271
     1
  0
XRECORD
  5
25
102
{ACAD_REACTORS
330
22
102
}
330
22
100
AcDbXrecord
280
     1
270
     1
271
     1
  0
CELLSTYLEMAP
  5
A5
102
{ACAD_REACTORS
330
A4
102
}
330
A4
100
AcDbCellStyleMap
 90
        3
300
CELLSTYLE
  1
TABLEFORMAT_BEGIN
 90
        5
170
     1
 91
        0
 92
    32768
 62
   257
 93
        1
300
CONTENTFORMAT
  1
CONTENTFORMAT_BEGIN
 90
        0
 91
        0
 92
      512
 93
        0
300

 40
0.0
140
1.0
 94
        5
 62
     0
340
55
144
0.25
309
CONTENTFORMAT_END
171
     0
 94
        0
309
TABLEFORMAT_END
  1
CELLSTYLE_BEGIN
 90
        1
 91
        1
300
_TITLE
309
CELLSTYLE_END
300
CELLSTYLE
  1
TABLEFORMAT_BEGIN
 90
        5
170
     1
 91
        0
 92
        0
 62
   257
 93
        1
300
CONTENTFORMAT
  1
CONTENTFORMAT_BEGIN
 90
        0
 91
        0
 92
      512
 93
        0
300

 40
0.0
140
1.0
 94
        5
 62
     0
340
55
144
0.18
309
CONTENTFORMAT_END
171
     0
 94
        0
309
TABLEFORMAT_END
  1
CELLSTYLE_BEGIN
 90
        2
 91
        1
300
_HEADER
309
CELLSTYLE_END
300
CELLSTYLE
  1
TABLEFORMAT_BEGIN
 90
        5
170
     1
 91
        0
 92
        0
 62
   257
 93
        1
300
CONTENTFORMAT
  1
CONTENTFORMAT_BEGIN
 90
        0
 91
        0
 92
      512
 93
        0
300

 40
0.0
140
1.0
 94
        2
 62
     0
340
55
144
0.18
309
CONTENTFORMAT_END
171
     0
 94
        0
309
TABLEFORMAT_END
  1
CELLSTYLE_BEGIN
 90
        3
 91
        2
300
_DATA
309
CELLSTYLE_END
  0
ENDSEC
  0
EOF
