0
SECTION
2
HEADER
9
$INSUNITS
70
4
9
$MEASUREMENT
70
1
9
$EXTMIN
10
-70
20
-70
9
$EXTMAX
10
-20
20
-20
0
ENDSEC
0
SECTION
2
TABLES
0
ENDSEC
0
SECTION
2
ENTITIES
0
POLYLINE
8
0
66
1
70
1
0
VERTEX
8
0
10
-20
20
-33.998
30
0
0
VERTEX
8
0
10
-23.003
20
-33.998
30
0
0
VERTEX
8
0
10
-23.003
20
-54.003
30
0
0
VERTEX
8
0
10
-20
20
-54.003
30
0
0
VERTEX
8
0
10
-20
20
-55.003
30
0
0
VERTEX
8
0
10
-20
20
-70
30
0
0
VERTEX
8
0
10
-35.998
20
-70
30
0
0
VERTEX
8
0
10
-35.998
20
-64.997
30
0
0
VERTEX
8
0
10
-55.003
20
-64.997
30
0
0
VERTEX
8
0
10
-56.003
20
-64.997
30
0
0
VERTEX
8
0
10
-56.003
20
-70
30
0
0
VERTEX
8
0
10
-62.998
20
-70
30
0
0
VERTEX
8
0
10
-70
20
-70
30
0
0
VERTEX
8
0
10
-70
20
-53.003
30
0
0
VERTEX
8
0
10
-62.998
20
-53.003
30
0
0
VERTEX
8
0
10
-62.998
20
-32.998
30
0
0
VERTEX
8
0
10
-70
20
-32.998
30
0
0
VERTEX
8
0
10
-70
20
-20
30
0
0
VERTEX
8
0
10
-62.998
20
-20
30
0
0
VERTEX
8
0
10
-56.003
20
-20
30
0
0
VERTEX
8
0
10
-56.003
20
-26.003
30
0
0
VERTEX
8
0
10
-55.003
20
-26.003
30
0
0
VERTEX
8
0
10
-35.998
20
-26.003
30
0
0
VERTEX
8
0
10
-35.998
20
-20
30
0
0
VERTEX
8
0
10
-34.998
20
-20
30
0
0
VERTEX
8
0
10
-23.003
20
-20
30
0
0
VERTEX
8
0
10
-20
20
-20
30
0
0
VERTEX
8
0
10
-20
20
-33.998
30
0
0
SEQEND
8
0
0
POLYLINE
8
0
66
1
70
1
0
VERTEX
8
0
10
-50.001
20
-53.662
30
0
0
VERTEX
8
0
10
-49.152
20
-54.081
30
0
0
VERTEX
8
0
10
-48.828
20
-54.241
30
0
0
VERTEX
8
0
10
-47.589
20
-54.662
30
0
0
VERTEX
8
0
10
-46.306
20
-54.917
30
0
0
VERTEX
8
0
10
-45
20
-55.003
30
0
0
VERTEX
8
0
10
-43.694
20
-54.917
30
0
0
VERTEX
8
0
10
-42.411
20
-54.662
30
0
0
VERTEX
8
0
10
-41.172
20
-54.241
30
0
0
VERTEX
8
0
10
-39.999
20
-53.662
30
0
0
VERTEX
8
0
10
-38.911
20
-52.936
30
0
0
VERTEX
8
0
10
-37.927
20
-52.073
30
0
0
VERTEX
8
0
10
-37.064
20
-51.089
30
0
0
VERTEX
8
0
10
-36.338
20
-50.001
30
0
0
VERTEX
8
0
10
-35.919
20
-49.152
30
0
0
VERTEX
8
0
10
-35.759
20
-48.828
30
0
0
VERTEX
8
0
10
-35.338
20
-47.589
30
0
0
VERTEX
8
0
10
-35.083
20
-46.306
30
0
0
VERTEX
8
0
10
-34.998
20
-45
30
0
0
VERTEX
8
0
10
-35.083
20
-43.694
30
0
0
VERTEX
8
0
10
-35.338
20
-42.411
30
0
0
VERTEX
8
0
10
-35.759
20
-41.172
30
0
0
VERTEX
8
0
10
-35.864
20
-40.96
30
0
0
VERTEX
8
0
10
-36.338
20
-39.999
30
0
0
VERTEX
8
0
10
-37.064
20
-38.911
30
0
0
VERTEX
8
0
10
-37.927
20
-37.927
30
0
0
VERTEX
8
0
10
-38.911
20
-37.064
30
0
0
VERTEX
8
0
10
-39.999
20
-36.338
30
0
0
VERTEX
8
0
10
-41.172
20
-35.759
30
0
0
VERTEX
8
0
10
-42.411
20
-35.338
30
0
0
VERTEX
8
0
10
-43.694
20
-35.083
30
0
0
VERTEX
8
0
10
-45
20
-34.998
30
0
0
VERTEX
8
0
10
-46.306
20
-35.083
30
0
0
VERTEX
8
0
10
-47.589
20
-35.338
30
0
0
VERTEX
8
0
10
-48.828
20
-35.759
30
0
0
VERTEX
8
0
10
-49.152
20
-35.919
30
0
0
VERTEX
8
0
10
-50.001
20
-36.338
30
0
0
VERTEX
8
0
10
-51.089
20
-37.064
30
0
0
VERTEX
8
0
10
-52.073
20
-37.927
30
0
0
VERTEX
8
0
10
-52.936
20
-38.911
30
0
0
VERTEX
8
0
10
-53.662
20
-39.999
30
0
0
VERTEX
8
0
10
-54.241
20
-41.172
30
0
0
VERTEX
8
0
10
-54.662
20
-42.411
30
0
0
VERTEX
8
0
10
-54.917
20
-43.694
30
0
0
VERTEX
8
0
10
-55.003
20
-45
30
0
0
VERTEX
8
0
10
-54.917
20
-46.306
30
0
0
VERTEX
8
0
10
-54.662
20
-47.589
30
0
0
VERTEX
8
0
10
-54.241
20
-48.828
30
0
0
VERTEX
8
0
10
-54.081
20
-49.152
30
0
0
VERTEX
8
0
10
-53.662
20
-50.001
30
0
0
VERTEX
8
0
10
-52.936
20
-51.089
30
0
0
VERTEX
8
0
10
-52.073
20
-52.073
30
0
0
VERTEX
8
0
10
-51.089
20
-52.936
30
0
0
VERTEX
8
0
10
-50.001
20
-53.662
30
0
0
SEQEND
8
0
0
ENDSEC
0
EOF
